<svg width="36" height="36" viewBox="0 0 36 36" fill="none" xmlns="http://www.w3.org/2000/svg">
<circle cx="18" cy="18" r="18" fill="#323B45"/>
<path d="M12.27 23.18C11.2 23.18 10.23 22.95 9.36 22.49C8.5 22.02 7.82 21.375 7.32 20.555C6.83 19.725 6.585 18.79 6.585 17.75C6.585 16.71 6.83 15.78 7.32 14.96C7.82 14.13 8.5 13.485 9.36 13.025C10.23 12.555 11.205 12.32 12.285 12.32C13.195 12.32 14.015 12.48 14.745 12.8C15.485 13.12 16.105 13.58 16.605 14.18L15.045 15.62C14.335 14.8 13.455 14.39 12.405 14.39C11.755 14.39 11.175 14.535 10.665 14.825C10.155 15.105 9.755 15.5 9.465 16.01C9.185 16.52 9.045 17.1 9.045 17.75C9.045 18.4 9.185 18.98 9.465 19.49C9.755 20 10.155 20.4 10.665 20.69C11.175 20.97 11.755 21.11 12.405 21.11C13.455 21.11 14.335 20.695 15.045 19.865L16.605 21.305C16.105 21.915 15.485 22.38 14.745 22.7C14.005 23.02 13.18 23.18 12.27 23.18ZM27.876 12.5V23H25.881L20.646 16.625V23H18.246V12.5H20.256L25.476 18.875V12.5H27.876Z" fill="#C4C4C4"/>
</svg>
