<svg width="36" height="36" viewBox="0 0 36 36" fill="none" xmlns="http://www.w3.org/2000/svg">
<circle cx="18" cy="18" r="18" fill="#323B45"/>
<path d="M23.3371 18.0002C23.3345 17.1598 23.2444 16.322 23.0684 15.5002H25.3184C25.2025 15.1575 25.0625 14.8233 24.8996 14.5002H22.8059C22.4123 13.1853 21.8018 11.9453 20.9996 10.8315C20.4871 10.616 19.9527 10.4567 19.4059 10.3565C20.5048 11.5373 21.3343 12.9425 21.8371 14.4752H18.4684V10.2502H17.5309V14.4815H14.1621C14.6659 12.946 15.4976 11.5385 16.5996 10.3565C16.0551 10.4551 15.5228 10.6122 15.0121 10.8252C14.2068 11.9344 13.5921 13.1701 13.1934 14.4815H11.0871C10.9212 14.8105 10.7792 15.1509 10.6621 15.5002H12.9309C12.7548 16.322 12.6647 17.1598 12.6621 18.0002C12.6638 18.9195 12.7687 19.8356 12.9746 20.7315H10.7621C10.8914 21.0818 11.046 21.4223 11.2246 21.7502H13.2434C13.626 22.9476 14.1932 24.0779 14.9246 25.1002C15.4483 25.3249 15.9955 25.4905 16.5559 25.594C15.5358 24.4813 14.7513 23.1739 14.2496 21.7502H17.5371V25.7127H18.4746V21.7502H21.7496C21.2462 23.1745 20.4595 24.482 19.4371 25.594C20.0001 25.4869 20.5494 25.3171 21.0746 25.0877C21.8048 24.0692 22.372 22.9432 22.7559 21.7502H24.7559C24.9337 21.4284 25.0882 21.0942 25.2184 20.7502H22.9996C23.2154 19.8492 23.3286 18.9267 23.3371 18.0002ZM17.5309 20.7315H13.9434C13.5033 19.0114 13.484 17.2106 13.8871 15.4815H17.5309V20.7315ZM22.0559 20.7315H18.4684V15.5002H22.1121C22.2916 16.3213 22.3797 17.1598 22.3746 18.0002C22.3797 18.9202 22.2726 19.8374 22.0559 20.7315Z" fill="#C4C4C4"/>
<path d="M18 8C16.0222 8 14.0888 8.58649 12.4443 9.6853C10.7998 10.7841 9.51809 12.3459 8.76121 14.1732C8.00433 16.0004 7.8063 18.0111 8.19215 19.9509C8.578 21.8907 9.53041 23.6725 10.9289 25.0711C12.3275 26.4696 14.1093 27.422 16.0491 27.8078C17.9889 28.1937 19.9996 27.9957 21.8268 27.2388C23.6541 26.4819 25.2159 25.2002 26.3147 23.5557C27.4135 21.9112 28 19.9778 28 18C28 15.3478 26.9464 12.8043 25.0711 10.9289C23.1957 9.05357 20.6522 8 18 8ZM18 26.75C16.2694 26.75 14.5777 26.2368 13.1388 25.2754C11.6998 24.3139 10.5783 22.9473 9.91606 21.3485C9.25379 19.7496 9.08051 17.9903 9.41813 16.293C9.75575 14.5956 10.5891 13.0365 11.8128 11.8128C13.0365 10.5891 14.5956 9.75575 16.293 9.41813C17.9903 9.08051 19.7496 9.25379 21.3485 9.91605C22.9473 10.5783 24.3139 11.6998 25.2754 13.1388C26.2368 14.5777 26.75 16.2694 26.75 18C26.75 20.3206 25.8281 22.5462 24.1872 24.1872C22.5462 25.8281 20.3206 26.75 18 26.75Z" fill="#C4C4C4"/>
</svg>
