<svg width="36" height="36" viewBox="0 0 36 36" fill="none" xmlns="http://www.w3.org/2000/svg">
<circle cx="18" cy="18" r="18" fill="#C4C4C4"/>
<path d="M12.3667 17.6671C12.3704 18.7754 12.5092 19.8791 12.78 20.9538H17.1V14.6338H12.72C12.4896 15.6286 12.3711 16.646 12.3667 17.6671Z" fill="#161C24"/>
<path d="M18.2334 14.6338V20.9538H22.5534C22.8354 19.8805 22.9854 18.7768 23.0001 17.6671C22.9979 16.6463 22.8816 15.6288 22.6534 14.6338H18.2334Z" fill="#161C24"/>
<path d="M17.6667 7C15.557 7 13.4947 7.62559 11.7406 8.79766C9.98646 9.96973 8.61929 11.6356 7.81196 13.5847C7.00462 15.5338 6.79339 17.6785 7.20496 19.7476C7.61654 21.8168 8.63244 23.7174 10.1242 25.2091C11.616 26.7009 13.5166 27.7168 15.5857 28.1284C17.6548 28.54 19.7996 28.3287 21.7486 27.5214C23.6977 26.714 25.3636 25.3469 26.5357 23.5928C27.7078 21.8386 28.3333 19.7763 28.3333 17.6667C28.3333 14.8377 27.2095 12.1246 25.2091 10.1242C23.2088 8.12381 20.4956 7 17.6667 7ZM25.8133 22.14H23.4C22.9437 23.5685 22.2691 24.9178 21.4 26.14C20.7587 26.4195 20.0877 26.6253 19.4 26.7533C20.6317 25.415 21.5796 23.8412 22.1867 22.1267H18.24V26.8933H17.1133V22.14H13.1467C13.7529 23.8569 14.7009 25.433 15.9333 26.7733C15.2598 26.6466 14.6024 26.4454 13.9733 26.1733C13.1012 24.9409 12.4265 23.5802 11.9733 22.14H9.52C9.30703 21.7515 9.12212 21.3482 8.96667 20.9333H11.6333C11.3835 19.8622 11.2538 18.7665 11.2467 17.6667C11.247 16.6472 11.3543 15.6305 11.5667 14.6333H8.84C8.9802 14.2197 9.14951 13.8164 9.34667 13.4267H11.8867C12.3633 11.8394 13.1024 10.3431 14.0733 9C14.6891 8.74488 15.3306 8.55712 15.9867 8.44C14.6604 9.86337 13.6596 11.5581 13.0533 13.4067H17.1133V8.33333H18.24V13.4267H22.3C21.6949 11.581 20.6963 9.88873 19.3733 8.46667C20.0284 8.57533 20.6699 8.75414 21.2867 9C22.252 10.3334 22.9887 11.8181 23.4667 13.3933H25.98C26.1771 13.7831 26.3465 14.1863 26.4867 14.6H23.78C23.997 15.6078 24.1065 16.6358 24.1067 17.6667C24.1032 18.773 23.9758 19.8754 23.7267 20.9533H26.3933C26.2284 21.3621 26.0346 21.7587 25.8133 22.14Z" fill="#161C24"/>
</svg>
