<svg width="36" height="36" viewBox="0 0 36 36" fill="none" xmlns="http://www.w3.org/2000/svg">
<circle cx="18" cy="18" r="18" fill="#323B45"/>
<path d="M17.0013 25.3106H11.2123V10.165H23.3357V15.2796C23.6073 15.3056 23.8656 15.4054 24.0803 15.5674C24.295 15.7294 24.4573 15.9468 24.5481 16.1941V10.165C24.5481 9.85605 24.4203 9.55972 24.193 9.34123C23.9656 9.12275 23.6573 9 23.3357 9H11.2123C10.8908 9 10.5824 9.12275 10.3551 9.34123C10.1277 9.55972 10 9.85605 10 10.165V25.3106C10 25.6196 10.1277 25.9159 10.3551 26.1344C10.5824 26.3529 10.8908 26.4757 11.2123 26.4757H17.9772L17.371 25.8931C17.1992 25.7316 17.0721 25.5314 17.0013 25.3106Z" fill="#C4C4C4"/>
<path d="M27.9064 20.9244L26.6941 20.5691C26.6081 20.2839 26.4902 20.0085 26.3425 19.7477L26.9486 18.6642C26.9715 18.6229 26.9797 18.5755 26.9721 18.5292C26.9644 18.483 26.9413 18.4404 26.9062 18.4079L26.0091 17.5632C25.9753 17.5295 25.9309 17.5073 25.8828 17.5C25.8347 17.4926 25.7854 17.5005 25.7424 17.5225L24.621 18.105C24.3472 17.952 24.0564 17.8289 23.7541 17.738L23.3844 16.573C23.3689 16.5295 23.3394 16.4919 23.3001 16.4657C23.2609 16.4396 23.2139 16.4261 23.1661 16.4273H21.9538C21.9063 16.4277 21.8602 16.4426 21.822 16.4698C21.7839 16.497 21.7558 16.5352 21.7416 16.5788L21.3719 17.7438C21.068 17.8306 20.7752 17.9498 20.499 18.0992L19.3958 17.5166C19.3527 17.4947 19.3034 17.4868 19.2553 17.4941C19.2072 17.5015 19.1629 17.5237 19.1291 17.5574L18.238 18.3962C18.2029 18.4287 18.1798 18.4713 18.1721 18.5176C18.1645 18.5638 18.1727 18.6112 18.1955 18.6526L18.8017 19.7127C18.6462 19.9782 18.5222 20.2596 18.432 20.5516L17.2196 20.9069C17.1743 20.9205 17.1346 20.9475 17.1062 20.9842C17.0779 21.0208 17.0624 21.0652 17.062 21.1108V22.2758C17.0624 22.3215 17.0779 22.3658 17.1062 22.4025C17.1346 22.4391 17.1743 22.4662 17.2196 22.4797L18.432 22.8351C18.5235 23.1211 18.6475 23.3965 18.8017 23.6564L18.1955 24.7632C18.1727 24.8046 18.1645 24.8519 18.1721 24.8982C18.1798 24.9444 18.2029 24.987 18.238 25.0195L19.0927 25.8933C19.1265 25.927 19.1708 25.9492 19.2189 25.9566C19.2671 25.964 19.3164 25.956 19.3594 25.9341L20.4929 25.3516C20.7607 25.4907 21.0432 25.602 21.3355 25.6836L21.7053 26.8486C21.7194 26.8922 21.7475 26.9304 21.7857 26.9576C21.8238 26.9848 21.8699 26.9997 21.9174 27.0001H23.1298C23.1773 26.9997 23.2234 26.9848 23.2615 26.9576C23.2997 26.9304 23.3278 26.8922 23.3419 26.8486L23.7117 25.6836C24.0021 25.6019 24.2825 25.4906 24.5482 25.3516L25.6939 25.9341C25.7369 25.956 25.7862 25.964 25.8343 25.9566C25.8825 25.9492 25.9268 25.927 25.9606 25.8933L26.8395 25.0486C26.8746 25.0162 26.8977 24.9736 26.9054 24.9273C26.913 24.8811 26.9048 24.8337 26.882 24.7923L26.2758 23.6972C26.4227 23.4401 26.5406 23.1687 26.6274 22.8875L27.8397 22.5322C27.8851 22.5186 27.9248 22.4915 27.9531 22.4549C27.9814 22.4182 27.9969 22.3739 27.9973 22.3283V21.1341C28.004 21.0945 27.999 21.0538 27.9829 21.0168C27.9669 20.9797 27.9404 20.9477 27.9064 20.9244ZM22.5478 23.6739C22.1479 23.6774 21.7558 23.5665 21.4215 23.3555C21.0872 23.1445 20.8256 22.8427 20.67 22.4886C20.5145 22.1345 20.4719 21.7439 20.5477 21.3665C20.6235 20.9891 20.8143 20.6418 21.0959 20.3688C21.3775 20.0957 21.7371 19.9092 22.1291 19.8329C22.5212 19.7567 22.928 19.7941 23.2979 19.9403C23.6678 20.0866 23.9841 20.3352 24.2067 20.6546C24.4293 20.974 24.5482 21.3497 24.5482 21.7341C24.5482 22.2456 24.3381 22.7363 23.9634 23.0996C23.5888 23.4629 23.08 23.6693 22.5478 23.6739Z" fill="#C4C4C4"/>
</svg>
