<svg width="36" height="36" viewBox="0 0 36 36" fill="none" xmlns="http://www.w3.org/2000/svg">
<circle cx="18" cy="18" r="18" fill="#C4C4C4"/>
<path d="M17.7 26.6667H11.3333V9.33333H24.6667V15.1867C24.9654 15.2164 25.2494 15.3307 25.4856 15.5161C25.7217 15.7014 25.9001 15.9502 26 16.2333V9.33333C26 8.97971 25.8595 8.64057 25.6095 8.39052C25.3594 8.14048 25.0203 8 24.6667 8H11.3333C10.9797 8 10.6406 8.14048 10.3905 8.39052C10.1405 8.64057 10 8.97971 10 9.33333V26.6667C10 27.0203 10.1405 27.3594 10.3905 27.6095C10.6406 27.8595 10.9797 28 11.3333 28H18.7733L18.1067 27.3333C17.9177 27.1485 17.7779 26.9193 17.7 26.6667Z" fill="#161C24"/>
<path d="M29.6933 21.6468L28.3599 21.2401C28.2654 20.9137 28.1357 20.5985 27.9733 20.3001L28.6399 19.0601C28.6651 19.0128 28.6741 18.9585 28.6657 18.9056C28.6573 18.8527 28.6319 18.8039 28.5933 18.7668L27.6066 17.8001C27.5694 17.7615 27.5207 17.7361 27.4677 17.7277C27.4148 17.7192 27.3606 17.7283 27.3133 17.7534L26.0799 18.4201C25.7788 18.2449 25.4591 18.1041 25.1266 18.0001L24.7199 16.6668C24.7029 16.617 24.6704 16.574 24.6273 16.5441C24.5841 16.5141 24.5325 16.4987 24.4799 16.5001H23.1466C23.0944 16.5006 23.0436 16.5176 23.0017 16.5487C22.9598 16.5799 22.9288 16.6235 22.9133 16.6734L22.5066 18.0068C22.1724 18.106 21.8504 18.2424 21.5466 18.4134L20.3333 17.7468C20.2859 17.7216 20.2317 17.7126 20.1788 17.721C20.1259 17.7294 20.0771 17.7548 20.0399 17.7934L19.0599 18.7534C19.0213 18.7906 18.9959 18.8394 18.9875 18.8923C18.9791 18.9452 18.9881 18.9994 19.0133 19.0468L19.6799 20.2601C19.5089 20.5639 19.3725 20.8859 19.2733 21.2201L17.9399 21.6268C17.8901 21.6423 17.8464 21.6732 17.8152 21.7152C17.7841 21.7571 17.7671 21.8079 17.7666 21.8601V23.1934C17.7671 23.2457 17.7841 23.2964 17.8152 23.3383C17.8464 23.3803 17.8901 23.4112 17.9399 23.4268L19.2733 23.8334C19.3739 24.1607 19.5103 24.476 19.6799 24.7734L19.0133 26.0401C18.9881 26.0874 18.9791 26.1416 18.9875 26.1946C18.9959 26.2475 19.0213 26.2962 19.0599 26.3334L19.9999 27.3334C20.0371 27.372 20.0859 27.3974 20.1388 27.4059C20.1917 27.4143 20.2459 27.4052 20.2933 27.3801L21.5399 26.7134C21.8344 26.8727 22.1451 27.0001 22.4666 27.0934L22.8733 28.4268C22.8888 28.4766 22.9198 28.5203 22.9617 28.5514C23.0036 28.5826 23.0544 28.5996 23.1066 28.6001H24.4399C24.4922 28.5996 24.5429 28.5826 24.5848 28.5514C24.6268 28.5203 24.6577 28.4766 24.6733 28.4268L25.0799 27.0934C25.3993 26.9999 25.7077 26.8725 25.9999 26.7134L27.2599 27.3801C27.3073 27.4052 27.3615 27.4143 27.4144 27.4059C27.4673 27.3974 27.5161 27.372 27.5533 27.3334L28.5199 26.3668C28.5585 26.3296 28.584 26.2808 28.5924 26.2279C28.6008 26.175 28.5917 26.1207 28.5666 26.0734L27.8999 24.8201C28.0615 24.5259 28.1911 24.2152 28.2866 23.8934L29.6199 23.4868C29.6698 23.4712 29.7135 23.4403 29.7446 23.3983C29.7758 23.3564 29.7928 23.3057 29.7933 23.2534V21.8868C29.8006 21.8414 29.7951 21.7949 29.7775 21.7525C29.7598 21.7101 29.7306 21.6735 29.6933 21.6468ZM23.7999 24.7934C23.36 24.7974 22.9289 24.6706 22.5612 24.429C22.1935 24.1875 21.9058 23.8422 21.7347 23.4369C21.5636 23.0316 21.5168 22.5847 21.6002 22.1527C21.6836 21.7208 21.8934 21.3233 22.2031 21.0109C22.5127 20.6984 22.9083 20.4849 23.3394 20.3977C23.7706 20.3104 24.218 20.3531 24.6248 20.5206C25.0316 20.688 25.3795 20.9725 25.6244 21.338C25.8692 21.7035 25.9999 22.1335 25.9999 22.5734C26 23.1588 25.7688 23.7204 25.3568 24.1362C24.9448 24.5519 24.3852 24.7881 23.7999 24.7934Z" fill="#161C24"/>
</svg>
