<svg width="36" height="36" viewBox="0 0 36 36" fill="none" xmlns="http://www.w3.org/2000/svg">
<circle cx="18" cy="18" r="18" fill="#323B45"/>
<path d="M27.893 16.8133C27.8674 16.6365 27.7726 16.4771 27.6294 16.3702C27.4863 16.2633 27.3065 16.2177 27.1297 16.2433C26.9529 16.2689 26.7935 16.3638 26.6866 16.5069C26.5797 16.6501 26.5341 16.8298 26.5597 17.0066C26.6268 17.4323 26.6625 17.8624 26.6664 18.2933C26.6633 20.0148 26.1476 21.6963 25.185 23.1235C24.2225 24.5507 22.8567 25.659 21.2619 26.3069C19.667 26.9549 17.9153 27.1132 16.2301 26.7617C14.5449 26.4102 13.0026 25.5648 11.7997 24.3333H15.373C15.5499 24.3333 15.7194 24.2631 15.8445 24.138C15.9695 24.013 16.0397 23.8434 16.0397 23.6666C16.0397 23.4898 15.9695 23.3203 15.8445 23.1952C15.7194 23.0702 15.5499 23 15.373 23H9.37305V29C9.37305 29.1768 9.44328 29.3464 9.56831 29.4714C9.69333 29.5964 9.8629 29.6666 10.0397 29.6666C10.2165 29.6666 10.3861 29.5964 10.5111 29.4714C10.6361 29.3464 10.7064 29.1768 10.7064 29V25.1333C12.1645 26.6894 14.0818 27.7387 16.1785 28.1279C18.2752 28.517 20.4414 28.2258 22.3608 27.2966C24.2802 26.3674 25.8523 24.849 26.8476 22.963C27.8429 21.077 28.2092 18.9222 27.893 16.8133Z" fill="#C4C4C4"/>
<path d="M26.0401 7.00004C25.8589 6.99811 25.6841 7.0665 25.5523 7.19082C25.4205 7.31515 25.342 7.48573 25.3334 7.66671V11.5534C23.9791 10.062 22.2044 9.0164 20.2436 8.55452C18.2828 8.09264 16.2279 8.23622 14.3504 8.9663C12.4728 9.69638 10.8608 10.9786 9.72704 12.6438C8.59331 14.309 7.99116 16.2789 8.0001 18.2934C7.99917 18.8472 8.04376 19.4002 8.13343 19.9467C8.15899 20.1045 8.24036 20.2478 8.36272 20.3506C8.48509 20.4534 8.6403 20.5088 8.8001 20.5067H8.90676C9.08082 20.4773 9.23611 20.3801 9.33859 20.2364C9.44107 20.0927 9.48237 19.9142 9.45343 19.74C9.37375 19.2619 9.33361 18.7781 9.33343 18.2934C9.33343 15.9948 10.2465 13.7904 11.8718 12.1651C13.4972 10.5398 15.7016 9.62671 18.0001 9.62671C19.1788 9.6214 20.3459 9.859 21.4286 10.3247C22.5114 10.7904 23.4866 11.4741 24.2934 12.3334H20.7068C20.53 12.3334 20.3604 12.4036 20.2354 12.5286C20.1103 12.6537 20.0401 12.8232 20.0401 13C20.0401 13.1769 20.1103 13.3464 20.2354 13.4714C20.3604 13.5965 20.53 13.6667 20.7068 13.6667H26.6668V7.66671C26.6671 7.49661 26.6024 7.33283 26.4859 7.2089C26.3694 7.08496 26.2099 7.01025 26.0401 7.00004Z" fill="#C4C4C4"/>
</svg>
