<svg width="36" height="36" viewBox="0 0 36 36" fill="none" xmlns="http://www.w3.org/2000/svg">
<circle cx="18" cy="18" r="18" fill="#C4C4C4"/>
<path d="M22.2067 23.334C21.9733 23.934 21.58 24.334 21.1333 24.334H15.4933C15.04 24.334 14.6533 23.934 14.42 23.334H7V24.5007C7.03412 24.9282 7.23503 25.3251 7.55934 25.6058C7.88365 25.8864 8.30534 26.0283 8.73333 26.0007H27.9333C28.3613 26.0283 28.783 25.8864 29.1073 25.6058C29.4316 25.3251 29.6325 24.9282 29.6667 24.5007V23.334H22.2067Z" fill="#161C24"/>
<path d="M11.0002 12.6667H25.6669V22H27.6669V11.0467C27.6722 10.7755 27.5701 10.5132 27.3827 10.3171C27.1954 10.121 26.938 10.007 26.6669 10H10.0002C9.72906 10.007 9.47171 10.121 9.28434 10.3171C9.09698 10.5132 8.99483 10.7755 9.0002 11.0467V22H11.0002V12.6667Z" fill="#161C24"/>
</svg>
