<svg width="36" height="36" viewBox="0 0 36 36" fill="none" xmlns="http://www.w3.org/2000/svg">
<circle cx="18" cy="18" r="18" fill="#323B45"/>
<path d="M13.0678 20.3155V13.2309H21.7891L22.7202 12.3079H12.125V20.3155H13.0678Z" fill="#C4C4C4"/>
<path d="M10.9466 11.1538H25.0892V20.3845H26.2678V10.8654C26.2678 10.6359 26.1746 10.4158 26.0089 10.2535C25.8431 10.0912 25.6183 10 25.3839 10H10.652C10.4176 10 10.1927 10.0912 10.027 10.2535C9.86119 10.4158 9.76807 10.6359 9.76807 10.8654V20.3845H10.9466V11.1538Z" fill="#C4C4C4"/>
<path d="M8 21.5386V23.5001C8 23.8979 8.16142 24.2794 8.44875 24.5607C8.73607 24.842 9.12577 25.0001 9.53212 25.0001H26.4679C26.8742 25.0001 27.2639 24.842 27.5513 24.5607C27.8386 24.2794 28 23.8979 28 23.5001V21.5386H8ZM26.8568 23.5001C26.8568 23.5919 26.8196 23.6799 26.7533 23.7449C26.6869 23.8098 26.597 23.8462 26.5032 23.8462H9.50854C9.41477 23.8462 9.32484 23.8098 9.25854 23.7449C9.19223 23.6799 9.15498 23.5919 9.15498 23.5001V22.4213H15.0183C15.0919 22.5914 15.2149 22.7368 15.372 22.8393C15.5291 22.9418 15.7134 22.9971 15.9022 22.9982H20.1037C20.2925 22.9971 20.4768 22.9418 20.6339 22.8393C20.791 22.7368 20.914 22.5914 20.9876 22.4213H26.8568V23.5001Z" fill="#C4C4C4"/>
</svg>
