<svg width="20" height="14" viewBox="0 0 20 14" fill="none" xmlns="http://www.w3.org/2000/svg">
<path d="M7.11364 13.7603L0.160305 6.81364C0.0510871 6.6861 -0.00598358 6.52205 0.000497188 6.35427C0.00697796 6.18649 0.0765329 6.02733 0.195263 5.9086C0.313992 5.78987 0.473152 5.72031 0.640936 5.71383C0.80872 5.70735 0.97277 5.76442 1.1003 5.87364L7.10031 11.8736L18.827 0.160305C18.9545 0.0510871 19.1186 -0.00598358 19.2863 0.000497188C19.4541 0.00697796 19.6133 0.0765329 19.732 0.195263C19.8507 0.313992 19.9203 0.473152 19.9268 0.640936C19.9333 0.80872 19.8762 0.97277 19.767 1.1003L7.11364 13.7603Z" fill="white"/>
</svg>
