<svg width="36" height="36" viewBox="0 0 36 36" fill="none" xmlns="http://www.w3.org/2000/svg">
<circle cx="18" cy="18" r="18" fill="#C4C4C4"/>
<path d="M13.8 17L13.1333 19.0667H14.4666L13.8 17Z" fill="#161C24"/>
<path d="M26.6667 8H16V11.3333H18.6667V12.6667H10C8.86667 12.6667 8 13.5333 8 14.6667V22C8 23.1333 8.86667 24 10 24H10.6667V27.4L14.8667 24H19.3333V19.3333H26.6667C27.8 19.3333 28.6667 18.4667 28.6667 17.3333V10C28.6667 8.86667 27.8 8 26.6667 8ZM15.2 21.2667L14.8667 20.2H12.8L12.4 21.2667H10.8L13 15.3333H14.6L16.8 21.2667H15.2ZM25.3333 16V17.3333C24.4667 17.3333 23.5333 17.0667 22.7333 16.6667C21.9333 17.0667 21 17.2667 20.0667 17.3333L20 16C20.4667 16 20.9333 15.9333 21.4 15.8C20.8 15.2 20.4 14.4667 20.2 13.6667H21.6C21.8 14.2667 22.2 14.7333 22.6667 15.1333C23.4 14.5333 23.8667 13.6667 23.9333 12.6667H19.9333V11.3333H21.9333V10H23.2667V11.3333H25.4667L25.5333 12C25.6 13.4 25.0667 14.8 24.0667 15.8C24.5333 15.9333 24.9333 16 25.3333 16Z" fill="#161C24"/>
</svg>
