<svg width="36" height="36" viewBox="0 0 36 36" fill="none" xmlns="http://www.w3.org/2000/svg">
<circle cx="18" cy="18" r="18" fill="#323B45"/>
<path d="M25.6667 9H15V12.3333H16.3333V10.3333H25.6667C26.0667 10.3333 26.3333 10.6 26.3333 11V18.3333C26.3333 18.7333 26.0667 19 25.6667 19H17V23.6667H13.4667L11 25.6V23.6667H9C8.6 23.6667 8.33333 23.4 8.33333 23V15.6667C8.33333 15.2667 8.6 15 9 15H17.6667V13.6667H9C7.86667 13.6667 7 14.5333 7 15.6667V23C7 24.1333 7.86667 25 9 25H9.66667V28.4L13.8667 25H18.3333V20.3333H25.6667C26.8 20.3333 27.6667 19.4667 27.6667 18.3333V11C27.6667 9.86667 26.8 9 25.6667 9Z" fill="#C4C4C4"/>
<path d="M9.7998 22.2666H11.3998L11.7998 21.1999H13.8665L14.2665 22.2666H15.8665L13.5998 16.3333H11.9998L9.7998 22.2666ZM12.7998 17.9999L13.4665 20.0666H12.1331L12.7998 17.9999Z" fill="#C4C4C4"/>
<path d="M19 18.3333C19.7333 18.3333 20.7333 18.1333 21.6667 17.6667C22.6 18.1333 23.6667 18.3333 24.3333 18.3333V17C24.3333 17 23.6667 17 22.9333 16.7333C23.7333 15.9333 24.3333 14.7333 24.3333 13V12.3333H22.3333V11H21V12.3333H19V13.6667H22.9333C22.8 14.8667 22.2667 15.6 21.6667 16.0667C21.2667 15.7333 20.8667 15.2667 20.6 14.6667H19.2C19.4667 15.5333 19.8667 16.2 20.4 16.7333C19.7333 17 19.1333 17 19 17V18.3333Z" fill="#C4C4C4"/>
</svg>
