<svg width="36" height="36" viewBox="0 0 36 36" fill="none" xmlns="http://www.w3.org/2000/svg">
<circle cx="18" cy="18" r="18" fill="#C4C4C4"/>
<path d="M17.6667 18.2267L21.92 13.9933C21.9993 13.9379 22.0657 13.8658 22.1143 13.7822C22.163 13.6985 22.1929 13.6052 22.2019 13.5089C22.2109 13.4125 22.1988 13.3153 22.1664 13.2241C22.1341 13.1328 22.0823 13.0498 22.0146 12.9806C21.9468 12.9114 21.8649 12.8578 21.7744 12.8235C21.6839 12.7892 21.587 12.775 21.4904 12.7819C21.3939 12.7889 21.3 12.8167 21.2153 12.8636C21.1306 12.9105 21.0571 12.9752 21 13.0533L18.3333 15.6667V7.66667C18.3333 7.48986 18.2631 7.32029 18.1381 7.19526C18.013 7.07024 17.8435 7 17.6667 7C17.4899 7 17.3203 7.07024 17.1953 7.19526C17.0702 7.32029 17 7.48986 17 7.66667V15.6667L14.3333 13.0333C14.2078 12.9087 14.0379 12.839 13.861 12.8396C13.6841 12.8403 13.5146 12.9111 13.39 13.0367C13.2653 13.1622 13.1957 13.3321 13.1963 13.509C13.1969 13.6859 13.2678 13.8553 13.3933 13.98L17.6667 18.2267Z" fill="#161C24"/>
<path d="M18.6066 19.1739L18.1133 19.6672H28.2866C28.1733 19.2872 27.7599 18.1272 26.2266 13.9139C26.1436 13.6433 25.974 13.4074 25.744 13.2424C25.514 13.0774 25.2362 12.9924 24.9533 13.0005H23.3666C23.4616 13.3408 23.4648 13.7003 23.3758 14.0422C23.2868 14.3841 23.1088 14.6964 22.8599 14.9472L18.6066 19.1739Z" fill="#161C24"/>
<path d="M16.7197 19.1734L12.4664 14.94C12.2187 14.6899 12.0413 14.3787 11.9524 14.0381C11.8634 13.6975 11.8659 13.3394 11.9597 13H10.3797C10.1016 12.989 9.82753 13.069 9.59896 13.2278C9.37039 13.3866 9.19981 13.6156 9.11305 13.88C7.57305 18.12 7.15972 19.2867 7.04639 19.6667H17.2197L16.7197 19.1734Z" fill="#161C24"/>
<path d="M7 21V25C7 25.3536 7.14048 25.6928 7.39052 25.9428C7.64057 26.1929 7.97971 26.3333 8.33333 26.3333H27C27.3536 26.3333 27.6928 26.1929 27.9428 25.9428C28.1929 25.6928 28.3333 25.3536 28.3333 25V21H7ZM25.6667 23.6667H23V22.3333H25.6667V23.6667Z" fill="#161C24"/>
</svg>
