<svg width="36" height="36" viewBox="0 0 36 36" fill="none" xmlns="http://www.w3.org/2000/svg">
<circle cx="18" cy="18" r="18" fill="#323B45"/>
<path d="M11.25 20.1724H24.75V21.1379H11.25V20.1724Z" fill="#C4C4C4"/>
<path d="M25.2225 16.0061C25.1524 15.8101 25.0094 15.6393 24.8153 15.5199C24.6212 15.4004 24.3869 15.3389 24.1481 15.3447H22.8094C22.9129 15.6648 22.8851 16.0057 22.7306 16.3102H24.1594C24.75 17.7295 25.7175 20.0033 25.875 20.404V24.0344H10.125V20.404C10.2825 20.0033 11.8406 16.3102 11.8406 16.3102H13.2638C13.1093 16.0057 13.0815 15.6648 13.185 15.3447H11.8519C11.6172 15.3368 11.386 15.3947 11.1931 15.5097C11.0003 15.6247 10.8563 15.7905 10.7831 15.982C9 20.1723 9 20.2206 9 20.3316V24.0344C9 24.2904 9.11853 24.536 9.3295 24.7171C9.54048 24.8982 9.82663 24.9999 10.125 24.9999H25.875C26.1734 24.9999 26.4595 24.8982 26.6705 24.7171C26.8815 24.536 27 24.2904 27 24.0344V20.3316C27 20.2206 27 20.1723 25.2225 16.0061Z" fill="#C4C4C4"/>
<path d="M17.9999 19.1296L21.5887 16.0641C21.6556 16.024 21.7116 15.9718 21.7526 15.9112C21.7937 15.8506 21.8189 15.7831 21.8265 15.7133C21.8341 15.6435 21.8239 15.5731 21.7966 15.5071C21.7693 15.441 21.7256 15.3809 21.6684 15.3308C21.6113 15.2807 21.5422 15.2419 21.4658 15.217C21.3894 15.1922 21.3077 15.1819 21.2262 15.1869C21.1447 15.1919 21.0655 15.2121 20.9941 15.246C20.9226 15.28 20.8606 15.3269 20.8124 15.3834L18.5624 17.2759V11.4828C18.5624 11.3547 18.5031 11.2319 18.3977 11.1414C18.2922 11.0509 18.1491 11 17.9999 11C17.8507 11 17.7076 11.0509 17.6022 11.1414C17.4967 11.2319 17.4374 11.3547 17.4374 11.4828V17.2759L15.1874 15.369C15.0815 15.2787 14.9381 15.2282 14.7889 15.2287C14.6396 15.2291 14.4966 15.2805 14.3915 15.3714C14.2863 15.4623 14.2275 15.5853 14.228 15.7134C14.2286 15.8415 14.2884 15.9642 14.3943 16.0545L17.9999 19.1296Z" fill="#C4C4C4"/>
</svg>
