<svg width="10" height="17" viewBox="0 0 10 17" fill="none" xmlns="http://www.w3.org/2000/svg">
<path d="M1.92052 15.6773L9.86719 7.99726L1.92052 0.31726C1.70393 0.108623 1.41332 -0.0054274 1.11264 0.000198693C0.811958 0.00582478 0.525825 0.130666 0.317188 0.34726C0.108551 0.563853 -0.00549889 0.854456 0.000126839 1.15514C0.00575256 1.45582 0.130594 1.74196 0.347188 1.95059L6.60719 7.99726L0.347188 14.0506C0.130594 14.2592 0.00575256 14.5454 0.000126839 14.846C-0.00549889 15.1467 0.108551 15.4373 0.317188 15.6539C0.525825 15.8705 0.811958 15.9954 1.11264 16.001C1.41332 16.0066 1.70393 15.8926 1.92052 15.6839V15.6773Z" fill="white"/>
</svg>
