<svg width="36" height="36" viewBox="0 0 36 36" fill="none" xmlns="http://www.w3.org/2000/svg">
<circle cx="18" cy="18" r="18" fill="#161C24"/>
<path d="M25.9375 17.4375H19.5625V11.0625C19.5625 10.7807 19.4506 10.5105 19.2513 10.3112C19.052 10.1119 18.7818 10 18.5 10C18.2182 10 17.948 10.1119 17.7487 10.3112C17.5494 10.5105 17.4375 10.7807 17.4375 11.0625V17.4375H11.0625C10.7807 17.4375 10.5105 17.5494 10.3112 17.7487C10.1119 17.948 10 18.2182 10 18.5C10 18.7818 10.1119 19.052 10.3112 19.2513C10.5105 19.4506 10.7807 19.5625 11.0625 19.5625H17.4375V25.9375C17.4375 26.2193 17.5494 26.4895 17.7487 26.6888C17.948 26.8881 18.2182 27 18.5 27C18.7818 27 19.052 26.8881 19.2513 26.6888C19.4506 26.4895 19.5625 26.2193 19.5625 25.9375V19.5625H25.9375C26.2193 19.5625 26.4895 19.4506 26.6888 19.2513C26.8881 19.052 27 18.7818 27 18.5C27 18.2182 26.8881 17.948 26.6888 17.7487C26.4895 17.5494 26.2193 17.4375 25.9375 17.4375Z" fill="#C4C4C4"/>
</svg>
