<svg width="36" height="36" viewBox="0 0 36 36" fill="none" xmlns="http://www.w3.org/2000/svg">
<circle cx="18" cy="18" r="18" fill="#C4C4C4"/>
<path d="M18 8C16.0222 8 14.0888 8.58649 12.4443 9.6853C10.7998 10.7841 9.51809 12.3459 8.76121 14.1732C8.00433 16.0004 7.8063 18.0111 8.19215 19.9509C8.578 21.8907 9.53041 23.6725 10.9289 25.0711C12.3275 26.4696 14.1093 27.422 16.0491 27.8078C17.9889 28.1937 19.9996 27.9957 21.8268 27.2388C23.6541 26.4819 25.2159 25.2002 26.3147 23.5557C27.4135 21.9112 28 19.9778 28 18C28 15.3478 26.9464 12.8043 25.0711 10.9289C23.1957 9.05357 20.6522 8 18 8ZM23 21.8125C23.1658 21.9783 23.2589 22.2031 23.2589 22.4375C23.2589 22.6719 23.1658 22.8967 23 23.0625C22.8342 23.2283 22.6094 23.3214 22.375 23.3214C22.1406 23.3214 21.9158 23.2283 21.75 23.0625L18 19.3125L14.25 23.075C14.1679 23.1571 14.0705 23.2222 13.9633 23.2666C13.856 23.311 13.7411 23.3339 13.625 23.3339C13.5089 23.3339 13.394 23.311 13.2868 23.2666C13.1795 23.2222 13.0821 23.1571 13 23.075C12.9179 22.9929 12.8528 22.8955 12.8084 22.7882C12.764 22.681 12.7411 22.5661 12.7411 22.45C12.7411 22.3339 12.764 22.219 12.8084 22.1117C12.8528 22.0045 12.9179 21.9071 13 21.825L16.75 18.05L12.8938 14.1625C12.728 13.9967 12.6349 13.7719 12.6349 13.5375C12.6349 13.3031 12.728 13.0783 12.8938 12.9125C13.0595 12.7467 13.2843 12.6536 13.5188 12.6536C13.7532 12.6536 13.978 12.7467 14.1438 12.9125L18 16.8125L21.8563 12.9562C21.9383 12.8742 22.0358 12.8091 22.143 12.7646C22.2502 12.7202 22.3652 12.6974 22.4813 12.6974C22.5973 12.6974 22.7123 12.7202 22.8195 12.7646C22.9267 12.8091 23.0242 12.8742 23.1063 12.9562C23.1883 13.0383 23.2534 13.1358 23.2979 13.243C23.3423 13.3502 23.3651 13.4652 23.3651 13.5812C23.3651 13.6973 23.3423 13.8123 23.2979 13.9195C23.2534 14.0267 23.1883 14.1242 23.1063 14.2062L19.25 18.05L23 21.8125Z" fill="#161C24"/>
</svg>
