<svg width="36" height="36" viewBox="0 0 36 36" fill="none" xmlns="http://www.w3.org/2000/svg">
<circle cx="18" cy="18" r="18" fill="#323B45"/>
<path d="M19.006 18.0004L22.0435 14.9629C22.1459 14.8433 22.1994 14.6895 22.1933 14.5322C22.1872 14.3749 22.122 14.2257 22.0107 14.1144C21.8994 14.0031 21.7502 13.9379 21.5929 13.9318C21.4356 13.9257 21.2818 13.9792 21.1622 14.0816L18.1247 17.0879L15.0685 14.0316C14.9489 13.9292 14.7951 13.8757 14.6378 13.8818C14.4805 13.8879 14.3313 13.9531 14.22 14.0644C14.1087 14.1757 14.0435 14.3249 14.0374 14.4822C14.0313 14.6395 14.0848 14.7933 14.1872 14.9129L17.2372 18.0004L14.2497 20.9504C14.1843 21.0064 14.1312 21.0754 14.0936 21.1529C14.0561 21.2304 14.035 21.3149 14.0317 21.401C14.0284 21.487 14.0429 21.5729 14.0743 21.6531C14.1057 21.7333 14.1534 21.8061 14.2143 21.867C14.2752 21.9279 14.3481 21.9756 14.4283 22.007C14.5085 22.0385 14.5943 22.053 14.6804 22.0496C14.7664 22.0463 14.8509 22.0252 14.9284 21.9877C15.006 21.9502 15.0749 21.8971 15.131 21.8316L18.1122 18.8504L21.0747 21.8129C21.1943 21.9153 21.3481 21.9688 21.5054 21.9627C21.6627 21.9566 21.8119 21.8914 21.9232 21.7801C22.0345 21.6688 22.0997 21.5196 22.1058 21.3623C22.1119 21.205 22.0584 21.0512 21.956 20.9316L19.006 18.0004Z" fill="#C4C4C4"/>
<path d="M18 28C16.0222 28 14.0888 27.4135 12.4443 26.3147C10.7998 25.2159 9.51809 23.6541 8.76121 21.8268C8.00433 19.9996 7.8063 17.9889 8.19215 16.0491C8.578 14.1093 9.53041 12.3275 10.9289 10.9289C12.3275 9.53041 14.1093 8.578 16.0491 8.19215C17.9889 7.8063 19.9996 8.00433 21.8268 8.76121C23.6541 9.51809 25.2159 10.7998 26.3147 12.4443C27.4135 14.0888 28 16.0222 28 18C28 20.6522 26.9464 23.1957 25.0711 25.0711C23.1957 26.9464 20.6522 28 18 28ZM18 9.25C16.2694 9.25 14.5777 9.76318 13.1388 10.7246C11.6998 11.6861 10.5783 13.0527 9.91606 14.6515C9.25379 16.2504 9.08051 18.0097 9.41813 19.707C9.75575 21.4044 10.5891 22.9635 11.8128 24.1872C13.0365 25.4109 14.5956 26.2443 16.293 26.5819C17.9903 26.9195 19.7496 26.7462 21.3485 26.0839C22.9473 25.4217 24.3139 24.3002 25.2754 22.8612C26.2368 21.4223 26.75 19.7306 26.75 18C26.75 15.6794 25.8281 13.4538 24.1872 11.8128C22.5462 10.1719 20.3206 9.25 18 9.25Z" fill="#C4C4C4"/>
</svg>
