<svg width="50" height="50" viewBox="0 0 50 50" fill="none" xmlns="http://www.w3.org/2000/svg">
<rect x="1" y="1" width="48" height="48" rx="24" fill="#161C24" stroke="url(#paint0_linear_255_4308)" stroke-width="2"/>
<path d="M32 24H26V18C26 17.7348 25.8946 17.4804 25.7071 17.2929C25.5196 17.1054 25.2652 17 25 17C24.7348 17 24.4804 17.1054 24.2929 17.2929C24.1054 17.4804 24 17.7348 24 18V24H18C17.7348 24 17.4804 24.1054 17.2929 24.2929C17.1054 24.4804 17 24.7348 17 25C17 25.2652 17.1054 25.5196 17.2929 25.7071C17.4804 25.8946 17.7348 26 18 26H24V32C24 32.2652 24.1054 32.5196 24.2929 32.7071C24.4804 32.8946 24.7348 33 25 33C25.2652 33 25.5196 32.8946 25.7071 32.7071C25.8946 32.5196 26 32.2652 26 32V26H32C32.2652 26 32.5196 25.8946 32.7071 25.7071C32.8946 25.5196 33 25.2652 33 25C33 24.7348 32.8946 24.4804 32.7071 24.2929C32.5196 24.1054 32.2652 24 32 24Z" fill="white"/>
<defs>
<linearGradient id="paint0_linear_255_4308" x1="-2.22156e-07" y1="25.4098" x2="50" y2="25.4098" gradientUnits="userSpaceOnUse">
<stop stop-color="#7624FE"/>
<stop offset="1" stop-color="#368BFF"/>
</linearGradient>
</defs>
</svg>
