<svg width="30" height="35" viewBox="0 0 30 35" fill="none" xmlns="http://www.w3.org/2000/svg">
<path d="M15.0002 16.1538C16.5977 16.1538 18.1593 15.6801 19.4875 14.7926C20.8158 13.9051 21.851 12.6437 22.4623 11.1678C23.0737 9.69195 23.2336 8.06795 22.922 6.50118C22.6103 4.93442 21.8411 3.49525 20.7115 2.36567C19.5819 1.2361 18.1427 0.466848 16.576 0.155199C15.0092 -0.15645 13.3852 0.00349959 11.9093 0.614822C10.4335 1.22614 9.17205 2.26138 8.28454 3.58962C7.39704 4.91786 6.92334 6.47945 6.92334 8.07691C6.92334 10.219 7.7743 12.2734 9.28901 13.7881C10.8037 15.3029 12.8581 16.1538 15.0002 16.1538ZM15.0002 2.30769C16.1413 2.30769 17.2567 2.64605 18.2055 3.27998C19.1542 3.91391 19.8937 4.81494 20.3303 5.86913C20.767 6.92331 20.8812 8.08331 20.6586 9.20243C20.436 10.3215 19.8865 11.3495 19.0797 12.1564C18.2729 12.9632 17.2449 13.5127 16.1258 13.7353C15.0066 13.9579 13.8466 13.8436 12.7925 13.407C11.7383 12.9703 10.8372 12.2309 10.2033 11.2821C9.56939 10.3334 9.23103 9.21796 9.23103 8.07691C9.23103 6.54682 9.83885 5.0794 10.9208 3.99746C12.0027 2.91552 13.4702 2.30769 15.0002 2.30769Z" fill="url(#paint0_linear_76_1266)"/>
<path d="M29.3884 24.6578C27.538 22.702 25.3082 21.1442 22.8352 20.0796C20.3622 19.0149 17.6981 18.4658 15.0057 18.4658C12.3133 18.4658 9.64924 19.0149 7.17629 20.0796C4.70333 21.1442 2.47349 22.702 0.623078 24.6578C0.221901 25.0863 -0.000907974 25.6516 2.78112e-06 26.2386V32.3078C2.78112e-06 32.9198 0.243133 33.5068 0.675909 33.9396C1.10868 34.3723 1.69565 34.6155 2.30769 34.6155H27.6923C28.3043 34.6155 28.8913 34.3723 29.324 33.9396C29.7568 33.5068 29.9999 32.9198 29.9999 32.3078V26.2386C30.004 25.6531 29.7854 25.0881 29.3884 24.6578ZM27.6923 32.3078H2.30769V26.227C3.94295 24.5051 5.91148 23.1339 8.09348 22.197C10.2755 21.26 12.6253 20.7768 15 20.7768C17.3746 20.7768 19.7245 21.26 21.9065 22.197C24.0885 23.1339 26.057 24.5051 27.6923 26.227V32.3078Z" fill="url(#paint1_linear_76_1266)"/>
<defs>
<linearGradient id="paint0_linear_76_1266" x1="6.92334" y1="13.2461" x2="23.1393" y2="13.2461" gradientUnits="userSpaceOnUse">
<stop stop-color="#7624FE"/>
<stop offset="1" stop-color="#368BFF"/>
</linearGradient>
<linearGradient id="paint1_linear_76_1266" x1="0" y1="31.7085" x2="30.1153" y2="31.7085" gradientUnits="userSpaceOnUse">
<stop stop-color="#7624FE"/>
<stop offset="1" stop-color="#368BFF"/>
</linearGradient>
</defs>
</svg>
