<svg width="80" height="80" viewBox="0 0 80 80" fill="none" xmlns="http://www.w3.org/2000/svg">
<circle cx="40" cy="40" r="40" fill="#323B45"/>
<path d="M52.9174 46.9544C51.2035 45.0973 49.1235 43.6153 46.8086 42.6016C44.4936 41.588 41.9939 41.0647 39.4668 41.0647C36.9396 41.0647 34.4399 41.588 32.125 42.6016C29.81 43.6153 27.7301 45.0973 26.0161 46.9544C25.7515 47.247 25.6034 47.6265 25.6001 48.021V54.421C25.6057 54.8417 25.7768 55.2432 26.0762 55.5386C26.3757 55.8341 26.7794 55.9997 27.2001 55.9997H51.7334C52.1578 55.9997 52.5647 55.8311 52.8648 55.5311C53.1649 55.231 53.3334 54.824 53.3334 54.3997V47.9997C53.3249 47.6126 53.1772 47.2415 52.9174 46.9544Z" fill="#C4C4C4"/>
<path d="M39.4667 38.9328C43.5904 38.9328 46.9333 35.5899 46.9333 31.4662C46.9333 27.3425 43.5904 23.9995 39.4667 23.9995C35.3429 23.9995 32 27.3425 32 31.4662C32 35.5899 35.3429 38.9328 39.4667 38.9328Z" fill="#C4C4C4"/>
</svg>
