<svg width="36" height="36" viewBox="0 0 36 36" fill="none" xmlns="http://www.w3.org/2000/svg">
<circle cx="18" cy="18" r="18" fill="#161C24"/>
<path d="M25 26.6689H10.3333V12.0023H19.1467L20.48 10.6689H10.3333C9.97971 10.6689 9.64057 10.8094 9.39052 11.0595C9.14048 11.3095 9 11.6487 9 12.0023V26.6689C9 27.0226 9.14048 27.3617 9.39052 27.6118C9.64057 27.8618 9.97971 28.0023 10.3333 28.0023H25C25.3536 28.0023 25.6928 27.8618 25.9428 27.6118C26.1929 27.3617 26.3333 27.0226 26.3333 26.6689V16.6689L25 18.0023V26.6689Z" fill="#C4C4C4"/>
<path d="M28.6866 10.5621L26.44 8.31541C26.3403 8.21543 26.2218 8.13611 26.0914 8.08198C25.961 8.02786 25.8212 8 25.68 8C25.5388 8 25.399 8.02786 25.2685 8.08198C25.1381 8.13611 25.0197 8.21543 24.92 8.31541L15.78 17.5087L15.04 20.7154C15.0084 20.8709 15.0118 21.0313 15.0497 21.1854C15.0876 21.3394 15.1592 21.483 15.2593 21.6061C15.3593 21.7291 15.4855 21.8284 15.6285 21.8969C15.7716 21.9654 15.928 22.0013 16.0866 22.0021C16.1686 22.0111 16.2513 22.0111 16.3333 22.0021L19.5666 21.2887L28.6866 12.0821C28.7866 11.9824 28.8659 11.8639 28.9201 11.7335C28.9742 11.6031 29.0021 11.4633 29.0021 11.3221C29.0021 11.1809 28.9742 11.0411 28.9201 10.9107C28.8659 10.7802 28.7866 10.6618 28.6866 10.5621ZM18.8733 20.0554L16.4333 20.5954L17 18.1754L23.88 11.2487L25.76 13.1287L18.8733 20.0554ZM26.5133 12.3754L24.6333 10.4954L25.6666 9.44208L27.56 11.3354L26.5133 12.3754Z" fill="#C4C4C4"/>
</svg>
