<svg width="32" height="32" viewBox="0 0 32 32" fill="none" xmlns="http://www.w3.org/2000/svg">
<circle cx="16" cy="16" r="16" fill="white"/>
<path d="M23 23.6689H8.33333V9.00228H17.1467L18.48 7.66895H8.33333C7.97971 7.66895 7.64057 7.80942 7.39052 8.05947C7.14048 8.30952 7 8.64866 7 9.00228V23.6689C7 24.0226 7.14048 24.3617 7.39052 24.6118C7.64057 24.8618 7.97971 25.0023 8.33333 25.0023H23C23.3536 25.0023 23.6928 24.8618 23.9428 24.6118C24.1929 24.3617 24.3333 24.0226 24.3333 23.6689V13.6689L23 15.0023V23.6689Z" fill="black"/>
<path d="M26.6866 7.56208L24.44 5.31541C24.3403 5.21543 24.2218 5.13611 24.0914 5.08198C23.961 5.02786 23.8212 5 23.68 5C23.5388 5 23.399 5.02786 23.2685 5.08198C23.1381 5.13611 23.0197 5.21543 22.92 5.31541L13.78 14.5087L13.04 17.7154C13.0084 17.8709 13.0118 18.0313 13.0497 18.1854C13.0876 18.3394 13.1592 18.483 13.2593 18.6061C13.3593 18.7291 13.4855 18.8284 13.6285 18.8969C13.7716 18.9654 13.928 19.0013 14.0866 19.0021C14.1686 19.0111 14.2513 19.0111 14.3333 19.0021L17.5666 18.2887L26.6866 9.08208C26.7866 8.98237 26.8659 8.86392 26.9201 8.7335C26.9742 8.60309 27.0021 8.46328 27.0021 8.32208C27.0021 8.18088 26.9742 8.04107 26.9201 7.91065C26.8659 7.78024 26.7866 7.66179 26.6866 7.56208V7.56208ZM16.8733 17.0554L14.4333 17.5954L15 15.1754L21.88 8.24875L23.76 10.1287L16.8733 17.0554ZM24.5133 9.37541L22.6333 7.49541L23.6666 6.44208L25.56 8.33541L24.5133 9.37541Z" fill="black"/>
</svg>
