<svg width="22" height="20" viewBox="0 0 22 20" fill="none" xmlns="http://www.w3.org/2000/svg">
<path d="M20.08 5.33301H1.25333C0.920929 5.33301 0.602138 5.46505 0.367093 5.7001C0.132047 5.93515 0 6.25394 0 6.58634V18.7463C0 19.0787 0.132047 19.3975 0.367093 19.6326C0.602138 19.8676 0.920929 19.9997 1.25333 19.9997H20.08C20.4124 19.9997 20.7312 19.8676 20.9662 19.6326C21.2013 19.3975 21.3333 19.0787 21.3333 18.7463V6.58634C21.3333 6.25394 21.2013 5.93515 20.9662 5.7001C20.7312 5.46505 20.4124 5.33301 20.08 5.33301ZM20 18.6663H1.33333V6.66634H20V18.6663Z" fill="url(#paint0_linear_226_3084)"/>
<path d="M18.76 0.666667C18.76 0.489856 18.6898 0.320286 18.5647 0.195262C18.4397 0.0702379 18.2702 0 18.0933 0H3.42668C3.24987 0 3.0803 0.0702379 2.95527 0.195262C2.83025 0.320286 2.76001 0.489856 2.76001 0.666667V1.33333H18.76V0.666667Z" fill="url(#paint1_linear_226_3084)"/>
<path d="M20.08 3.33317C20.08 3.15636 20.0098 2.98679 19.8847 2.86177C19.7597 2.73674 19.5901 2.6665 19.4133 2.6665H2.08C1.90319 2.6665 1.73362 2.73674 1.60859 2.86177C1.48357 2.98679 1.41333 3.15636 1.41333 3.33317V3.99984H20.08V3.33317Z" fill="url(#paint2_linear_226_3084)"/>
<path d="M7.21328 16.5266C7.39804 16.6464 7.61309 16.7112 7.83328 16.7133C7.99197 16.7129 8.14877 16.6788 8.29328 16.6133L14.8066 13.7066C15.008 13.6191 15.1794 13.4747 15.2998 13.2912C15.4201 13.1076 15.4843 12.8928 15.4843 12.6733C15.4843 12.4538 15.4201 12.239 15.2998 12.0554C15.1794 11.8719 15.008 11.7274 14.8066 11.64L8.29328 8.7333C8.12093 8.65675 7.93219 8.62442 7.74418 8.63925C7.55617 8.65408 7.37484 8.71559 7.21661 8.8182C7.05838 8.92082 6.92826 9.0613 6.83804 9.22692C6.74782 9.39253 6.70036 9.57804 6.69995 9.76663V15.58C6.70029 15.768 6.74739 15.9529 6.837 16.1182C6.92661 16.2834 7.05592 16.4238 7.21328 16.5266ZM7.63328 9.76663C7.63308 9.73314 7.64157 9.70018 7.65793 9.67096C7.67429 9.64175 7.69796 9.61728 7.72662 9.59996C7.76152 9.59031 7.79838 9.59031 7.83328 9.59996C7.85961 9.59396 7.88696 9.59396 7.91328 9.59996L14.4266 12.5C14.4634 12.515 14.4946 12.541 14.5161 12.5744C14.5375 12.6078 14.5482 12.647 14.5466 12.6866C14.5478 12.7254 14.5369 12.7635 14.5154 12.7958C14.4938 12.828 14.4628 12.8528 14.4266 12.8666L7.91328 15.7733C7.88491 15.7897 7.85272 15.7983 7.81995 15.7983C7.78718 15.7983 7.75499 15.7897 7.72662 15.7733C7.6988 15.7551 7.67579 15.7304 7.65954 15.7014C7.64329 15.6724 7.63428 15.6399 7.63328 15.6066V9.76663Z" fill="url(#paint3_linear_226_3084)"/>
<defs>
<linearGradient id="paint0_linear_226_3084" x1="-7.91687e-08" y1="12.7973" x2="21.5" y2="12.7973" gradientUnits="userSpaceOnUse">
<stop stop-color="#7624FE"/>
<stop offset="1" stop-color="#368BFF"/>
</linearGradient>
<linearGradient id="paint1_linear_226_3084" x1="2.76001" y1="0.678571" x2="18.885" y2="0.678568" gradientUnits="userSpaceOnUse">
<stop stop-color="#7624FE"/>
<stop offset="1" stop-color="#368BFF"/>
</linearGradient>
<linearGradient id="paint2_linear_226_3084" x1="1.41333" y1="3.34508" x2="20.2258" y2="3.34507" gradientUnits="userSpaceOnUse">
<stop stop-color="#7624FE"/>
<stop offset="1" stop-color="#368BFF"/>
</linearGradient>
<linearGradient id="paint3_linear_226_3084" x1="6.69995" y1="12.7466" x2="15.5529" y2="12.7466" gradientUnits="userSpaceOnUse">
<stop stop-color="#7624FE"/>
<stop offset="1" stop-color="#368BFF"/>
</linearGradient>
</defs>
</svg>
