<svg width="36" height="36" viewBox="0 0 36 36" fill="none" xmlns="http://www.w3.org/2000/svg">
<circle cx="18" cy="18" r="18" fill="#323B45"/>
<path d="M19.5941 11C18.3361 11 17.3998 12.0242 17.3998 13.1936V15.2186C15.7445 15.3056 14.2441 15.7436 13.0299 16.4372C12.5653 15.9896 11.9466 15.8 11.3416 15.8C10.6874 15.8 10.0218 16.013 9.56023 16.5314V16.55L9.54103 16.5686C9.09809 17.1218 8.91744 17.8604 9.03507 18.5936C9.09599 18.9592 9.23249 19.3081 9.43587 19.6181C9.63924 19.928 9.90502 20.1921 10.2162 20.3936C10.2114 20.462 10.1976 20.5298 10.1976 20.6C10.1976 22.163 11.1423 23.5322 12.5611 24.4814C13.9788 25.43 15.8922 26 18 26C20.1078 26 22.0212 25.43 23.4395 24.4814C24.8571 23.5322 25.8024 22.163 25.8024 20.6C25.8024 20.5298 25.7886 20.462 25.7838 20.3936C26.095 20.1921 26.3608 19.928 26.5641 19.6181C26.7675 19.3081 26.904 18.9592 26.9649 18.5936C27.0826 17.8604 26.9019 17.1218 26.459 16.5686L26.4398 16.55C25.9782 16.0322 25.3126 15.8 24.6584 15.8C24.0534 15.8 23.4341 15.9896 22.9701 16.4378C21.7559 15.7436 20.2555 15.3056 18.6002 15.2186V13.1936C18.6002 12.6056 18.9357 12.2 19.5941 12.2C19.9062 12.2 20.2927 12.3476 20.8887 12.5564C21.3946 12.7346 22.0512 12.9314 22.8951 12.9872C23.0991 13.574 23.6501 14 24.3019 14C25.1272 14 25.8024 13.325 25.8024 12.5C25.8024 11.675 25.1272 11 24.3019 11C23.7347 11 23.2444 11.321 22.9887 11.7878C22.2691 11.7458 21.7487 11.5958 21.2824 11.4314C20.7404 11.2412 20.2411 11 19.5941 11ZM18 16.4C19.8918 16.4 21.5801 16.9202 22.7642 17.7128C23.9478 18.5048 24.602 19.5218 24.602 20.6C24.602 21.6782 23.9478 22.6952 22.7636 23.4878C21.5801 24.2798 19.8918 24.8 18 24.8C16.1082 24.8 14.4199 24.2798 13.2358 23.4872C12.0522 22.6952 11.398 21.6782 11.398 20.6C11.398 19.5218 12.0522 18.5048 13.2364 17.7122C14.4193 16.9202 16.1082 16.4 18 16.4ZM11.3416 17C11.5696 17 11.7941 17.0564 11.9796 17.15C11.3278 17.696 10.8212 18.3452 10.5163 19.0628C10.3678 18.8717 10.2709 18.6457 10.2348 18.4064C10.1694 18.0032 10.2865 17.5862 10.4791 17.3372C10.4815 17.333 10.4767 17.3234 10.4791 17.3192C10.6616 17.1266 10.9857 17 11.3416 17ZM24.6584 17C25.0143 17 25.3384 17.126 25.5209 17.3186C25.5233 17.321 25.5185 17.3354 25.5209 17.3372C25.7129 17.5862 25.8306 18.0032 25.7652 18.4064C25.729 18.6456 25.6318 18.8714 25.4831 19.0622C25.1788 18.3452 24.6728 17.696 24.0204 17.15C24.2059 17.0564 24.431 17 24.6584 17ZM14.9991 18.2C14.6807 18.2 14.3754 18.3264 14.1503 18.5515C13.9252 18.7765 13.7987 19.0817 13.7987 19.4C13.7987 19.7183 13.9252 20.0235 14.1503 20.2485C14.3754 20.4736 14.6807 20.6 14.9991 20.6C15.3174 20.6 15.6228 20.4736 15.8479 20.2485C16.073 20.0235 16.1995 19.7183 16.1995 19.4C16.1995 19.0817 16.073 18.7765 15.8479 18.5515C15.6228 18.3264 15.3174 18.2 14.9991 18.2ZM21.0009 18.2C20.6826 18.2 20.3772 18.3264 20.1521 18.5515C19.927 18.7765 19.8005 19.0817 19.8005 19.4C19.8005 19.7183 19.927 20.0235 20.1521 20.2485C20.3772 20.4736 20.6826 20.6 21.0009 20.6C21.3193 20.6 21.6246 20.4736 21.8497 20.2485C22.0748 20.0235 22.2013 19.7183 22.2013 19.4C22.2013 19.0817 22.0748 18.7765 21.8497 18.5515C21.6246 18.3264 21.3193 18.2 21.0009 18.2ZM21.151 21.5186C20.4619 22.1588 19.3036 22.5686 18 22.5686C16.6964 22.5686 15.5381 22.154 14.849 21.5936C15.2332 22.6346 16.4665 23.6 18 23.6C19.5335 23.6 20.7668 22.6388 21.151 21.5186Z" fill="#C4C4C4"/>
</svg>
