<svg width="62" height="64" viewBox="0 0 62 64" fill="none" xmlns="http://www.w3.org/2000/svg">
<path d="M31.7362 16.501L28.8336 16.5394C21.6957 16.7236 14.57 15.8491 7.68848 13.9443V17.9619C14.6042 19.6725 21.71 20.4929 28.8336 20.4032H30.0062C30.1141 19.5769 30.3679 18.7763 30.7559 18.0388L31.7362 16.501Z" fill="url(#paint0_linear_1355_4535)"/>
<path d="M49.6525 28.63C42.8675 30.4502 35.8573 31.2917 28.8342 31.129C21.6952 31.3112 14.5688 30.4301 7.68913 28.5147V32.513C14.6032 34.2343 21.7096 35.0612 28.8342 34.9736C36.5234 34.9736 47.9225 34.0509 53.8239 31.129V41.0672C53.1895 42.7204 44.0972 45.7768 28.8342 45.7768C21.6914 45.934 14.5649 45.027 7.68913 43.0856V47.0839C14.6032 48.8052 21.7096 49.6321 28.8342 49.5445C36.5234 49.5445 47.9225 48.6218 53.8239 45.6999V55.5035C53.1511 57.1567 44.0587 60.2131 28.8342 60.2131C13.6098 60.2131 4.42125 57.0798 3.84456 55.4843V12.1369C4.42125 10.5606 13.456 7.40804 28.8342 7.40804C31.7177 7.40804 34.3896 7.52338 36.8117 7.71561L38.9262 4.06327C35.3508 3.71726 31.8138 3.56348 28.8342 3.56348C18.1271 3.56348 0 5.3512 0 12.0792V55.4843C0 62.1931 18.1271 64 28.8342 64C39.5413 64 57.6685 62.2123 57.6685 55.4843V28.5724L49.6525 28.63Z" fill="url(#paint1_linear_1355_4535)"/>
<path d="M45.8464 1.21864L34.8509 20.1723C34.5951 20.5478 34.4482 20.9868 34.4266 21.4406C34.405 21.8944 34.5094 22.3454 34.7284 22.7435C34.9474 23.1416 35.2723 23.4713 35.6671 23.6961C36.062 23.9208 36.5113 24.0319 36.9654 24.0169H58.9756C59.4296 24.0319 59.879 23.9208 60.2739 23.6961C60.6687 23.4713 60.9936 23.1416 61.2126 22.7435C61.4315 22.3454 61.536 21.8944 61.5144 21.4406C61.4927 20.9868 61.3459 20.5478 61.0901 20.1723L50.0946 1.21864C49.8778 0.847745 49.5676 0.540095 49.1949 0.326295C48.8223 0.112496 48.4001 0 47.9705 0C47.5409 0 47.1187 0.112496 46.746 0.326295C46.3734 0.540095 46.0632 0.847745 45.8464 1.21864Z" fill="url(#paint2_linear_1355_4535)"/>
<defs>
<linearGradient id="paint0_linear_1355_4535" x1="7.68848" y1="16.4644" x2="31.3643" y2="16.4644" gradientUnits="userSpaceOnUse">
<stop stop-color="#7624FE"/>
<stop offset="1" stop-color="#368BFF"/>
</linearGradient>
<linearGradient id="paint1_linear_1355_4535" x1="0" y1="27.1197" x2="56.7765" y2="27.1197" gradientUnits="userSpaceOnUse">
<stop stop-color="#7624FE"/>
<stop offset="1" stop-color="#368BFF"/>
</linearGradient>
<linearGradient id="paint2_linear_1355_4535" x1="34.4238" y1="9.36155" x2="61.0981" y2="9.36155" gradientUnits="userSpaceOnUse">
<stop stop-color="#7624FE"/>
<stop offset="1" stop-color="#368BFF"/>
</linearGradient>
</defs>
</svg>
