<svg width="36" height="36" viewBox="0 0 36 36" fill="none" xmlns="http://www.w3.org/2000/svg">
<circle cx="18" cy="18" r="18" fill="#323B45"/>
<path d="M17.9814 14.1558C18.4647 14.1558 18.8564 13.764 18.8564 13.2808C18.8564 12.7975 18.4647 12.4058 17.9814 12.4058C17.4982 12.4058 17.1064 12.7975 17.1064 13.2808C17.1064 13.764 17.4982 14.1558 17.9814 14.1558Z" fill="#C4C4C4"/>
<path d="M19.875 22.3745H18.625V15.562H16.75C16.5842 15.562 16.4253 15.6279 16.3081 15.7451C16.1908 15.8623 16.125 16.0213 16.125 16.187C16.125 16.3528 16.1908 16.5117 16.3081 16.629C16.4253 16.7462 16.5842 16.812 16.75 16.812H17.375V22.3745H16.125C15.9592 22.3745 15.8003 22.4404 15.6831 22.5576C15.5658 22.6748 15.5 22.8337 15.5 22.9995C15.5 23.1653 15.5658 23.3242 15.6831 23.4415C15.8003 23.5587 15.9592 23.6245 16.125 23.6245H19.875C20.0408 23.6245 20.1997 23.5587 20.3169 23.4415C20.4342 23.3242 20.5 23.1653 20.5 22.9995C20.5 22.8337 20.4342 22.6748 20.3169 22.5576C20.1997 22.4404 20.0408 22.3745 19.875 22.3745Z" fill="#C4C4C4"/>
<path d="M18 28C16.0222 28 14.0888 27.4135 12.4443 26.3147C10.7998 25.2159 9.51809 23.6541 8.76121 21.8268C8.00433 19.9996 7.8063 17.9889 8.19215 16.0491C8.578 14.1093 9.53041 12.3275 10.9289 10.9289C12.3275 9.53041 14.1093 8.578 16.0491 8.19215C17.9889 7.8063 19.9996 8.00433 21.8268 8.76121C23.6541 9.51809 25.2159 10.7998 26.3147 12.4443C27.4135 14.0888 28 16.0222 28 18C28 20.6522 26.9464 23.1957 25.0711 25.0711C23.1957 26.9464 20.6522 28 18 28ZM18 9.25C16.2694 9.25 14.5777 9.76318 13.1388 10.7246C11.6998 11.6861 10.5783 13.0527 9.91606 14.6515C9.25379 16.2504 9.08051 18.0097 9.41813 19.707C9.75575 21.4044 10.5891 22.9635 11.8128 24.1872C13.0365 25.4109 14.5956 26.2443 16.293 26.5819C17.9903 26.9195 19.7496 26.7462 21.3485 26.0839C22.9473 25.4217 24.3139 24.3002 25.2754 22.8612C26.2368 21.4223 26.75 19.7306 26.75 18C26.75 15.6794 25.8281 13.4538 24.1872 11.8128C22.5462 10.1719 20.3206 9.25 18 9.25Z" fill="#C4C4C4"/>
</svg>
