<svg width="36" height="36" viewBox="0 0 36 36" fill="none" xmlns="http://www.w3.org/2000/svg">
<circle cx="18" cy="18" r="18" fill="#C4C4C4"/>
<path d="M18 8C16.0222 8 14.0888 8.58649 12.4443 9.6853C10.7998 10.7841 9.51809 12.3459 8.76121 14.1732C8.00433 16.0004 7.8063 18.0111 8.19215 19.9509C8.578 21.8907 9.53041 23.6725 10.9289 25.0711C12.3275 26.4696 14.1093 27.422 16.0491 27.8078C17.9889 28.1937 19.9996 27.9957 21.8268 27.2388C23.6541 26.4819 25.2159 25.2002 26.3147 23.5557C27.4135 21.9112 28 19.9778 28 18C28 15.3478 26.9464 12.8043 25.0711 10.9289C23.1957 9.05357 20.6522 8 18 8ZM17.9375 11.3C18.1847 11.3 18.4264 11.3733 18.632 11.5107C18.8375 11.648 18.9977 11.8432 19.0924 12.0716C19.187 12.3001 19.2117 12.5514 19.1635 12.7939C19.1153 13.0363 18.9962 13.2591 18.8214 13.4339C18.6466 13.6087 18.4238 13.7277 18.1814 13.776C17.9389 13.8242 17.6876 13.7995 17.4591 13.7048C17.2307 13.6102 17.0355 13.45 16.8982 13.2445C16.7608 13.0389 16.6875 12.7972 16.6875 12.55C16.6875 12.2185 16.8192 11.9005 17.0536 11.6661C17.288 11.4317 17.606 11.3 17.9375 11.3ZM20.1875 24.5812H15.8125C15.5804 24.5812 15.3579 24.4891 15.1938 24.325C15.0297 24.1609 14.9375 23.9383 14.9375 23.7062C14.9375 23.4742 15.0297 23.2516 15.1938 23.0875C15.3579 22.9234 15.5804 22.8312 15.8125 22.8312H17.125V17.0812H16.125C15.8929 17.0812 15.6704 16.9891 15.5063 16.825C15.3422 16.6609 15.25 16.4383 15.25 16.2062C15.25 15.9742 15.3422 15.7516 15.5063 15.5875C15.6704 15.4234 15.8929 15.3312 16.125 15.3312H18.875V22.8312H20.1875C20.4196 22.8312 20.6421 22.9234 20.8062 23.0875C20.9703 23.2516 21.0625 23.4742 21.0625 23.7062C21.0625 23.9383 20.9703 24.1609 20.8062 24.325C20.6421 24.4891 20.4196 24.5812 20.1875 24.5812Z" fill="#161C24"/>
</svg>
