<svg width="36" height="36" viewBox="0 0 36 36" fill="none" xmlns="http://www.w3.org/2000/svg">
<circle cx="18" cy="18" r="18" fill="#323B45"/>
<path d="M26.75 9H9.25C8.91848 9 8.60054 9.13546 8.36612 9.37658C8.1317 9.6177 8 9.94472 8 10.2857V25.7143C8 26.0553 8.1317 26.3823 8.36612 26.6234C8.60054 26.8645 8.91848 27 9.25 27H26.75C27.0815 27 27.3995 26.8645 27.6339 26.6234C27.8683 26.3823 28 26.0553 28 25.7143V10.2857C28 9.94472 27.8683 9.6177 27.6339 9.37658C27.3995 9.13546 27.0815 9 26.75 9ZM9.25 25.7143V10.2857H26.75V25.7143H9.25Z" fill="#C4C4C4"/>
<path d="M12.3252 15.4289C12.696 15.4289 13.0585 15.3158 13.3669 15.1039C13.6752 14.892 13.9156 14.5908 14.0575 14.2384C14.1994 13.886 14.2365 13.4982 14.1642 13.1241C14.0918 12.75 13.9132 12.4064 13.651 12.1366C13.3888 11.8669 13.0547 11.6832 12.691 11.6088C12.3273 11.5344 11.9503 11.5726 11.6077 11.7186C11.2651 11.8646 10.9722 12.1117 10.7662 12.4289C10.5602 12.746 10.4502 13.1189 10.4502 13.5003C10.4502 14.0118 10.6477 14.5024 10.9994 14.8641C11.351 15.2257 11.8279 15.4289 12.3252 15.4289ZM12.3252 12.4718C12.5232 12.4705 12.7172 12.5297 12.8825 12.642C13.0477 12.7542 13.1769 12.9144 13.2535 13.1023C13.3302 13.2901 13.3509 13.4971 13.313 13.697C13.2751 13.897 13.1804 14.0809 13.0408 14.2254C12.9012 14.3698 12.723 14.4684 12.5288 14.5087C12.3347 14.5489 12.1333 14.5289 11.9502 14.4512C11.7671 14.3736 11.6106 14.2417 11.5004 14.0725C11.3903 13.9032 11.3314 13.7041 11.3314 13.5003C11.3331 13.2298 11.4383 12.9708 11.6243 12.7794C11.8103 12.5881 12.0621 12.4799 12.3252 12.4782V12.4718Z" fill="#C4C4C4"/>
<path d="M20.9877 16.3095L17.6127 19.7809L15.1127 17.2095C14.9956 17.0898 14.8372 17.0226 14.6721 17.0226C14.507 17.0226 14.3485 17.0898 14.2314 17.2095L10.4502 21.1502V22.9695L14.6939 18.6045L16.7502 20.6874L14.4064 23.0981H16.1252L21.4064 17.6659L25.5002 21.8574V20.0445L21.8689 16.3095C21.7518 16.1898 21.5934 16.1226 21.4283 16.1226C21.2632 16.1226 21.1048 16.1898 20.9877 16.3095Z" fill="#C4C4C4"/>
</svg>
