<svg width="36" height="36" viewBox="0 0 36 36" fill="none" xmlns="http://www.w3.org/2000/svg">
<circle cx="18" cy="18" r="18" fill="#FF453A"/>
<path d="M10.3333 11.667V26.3337C10.3271 26.5902 10.3715 26.8454 10.464 27.0848C10.5565 27.3242 10.6952 27.543 10.8723 27.7287C11.0494 27.9144 11.2613 28.0635 11.496 28.1673C11.7306 28.2711 11.9835 28.3276 12.24 28.3337H24.3933C24.6527 28.332 24.9091 28.2786 25.1477 28.1768C25.3862 28.0749 25.6021 27.9266 25.7826 27.7404C25.9632 27.5542 26.1049 27.3339 26.1995 27.0924C26.294 26.8509 26.3395 26.593 26.3333 26.3337V11.667H10.3333ZM16.3333 25.0003H15V15.0003H16.3333V25.0003ZM21.6667 25.0003H20.3333V15.0003H21.6667V25.0003Z" fill="#161C24"/>
<path d="M26.82 9H21.6667V8.33333C21.6667 7.97971 21.5262 7.64057 21.2761 7.39052C21.0261 7.14048 20.687 7 20.3333 7H16.2C15.87 7.03317 15.5641 7.18815 15.3423 7.4347C15.1204 7.68124 14.9983 8.00164 15 8.33333V9H9.66667C9.48986 9 9.32029 9.07024 9.19526 9.19526C9.07024 9.32029 9 9.48986 9 9.66667C9 9.84348 9.07024 10.013 9.19526 10.1381C9.32029 10.2631 9.48986 10.3333 9.66667 10.3333H26.82C26.9968 10.3333 27.1664 10.2631 27.2914 10.1381C27.4164 10.013 27.4867 9.84348 27.4867 9.66667C27.4867 9.48986 27.4164 9.32029 27.2914 9.19526C27.1664 9.07024 26.9968 9 26.82 9Z" fill="#161C24"/>
</svg>
