<svg width="22" height="20" viewBox="0 0 22 20" fill="none" xmlns="http://www.w3.org/2000/svg">
<path d="M20.665 2.71553C19.7716 0.882199 17.1983 -0.617801 14.205 0.255532C12.7746 0.668691 11.5266 1.55472 10.665 2.76887C9.80328 1.55472 8.55531 0.668691 7.12495 0.255532C4.12495 -0.604468 1.55828 0.882199 0.66495 2.71553C-0.588383 5.2822 -0.0683827 8.16887 2.21162 11.2955C3.99828 13.7422 6.55162 16.2222 10.2583 19.1022C10.3754 19.1936 10.5197 19.2432 10.6683 19.2432C10.8168 19.2432 10.9611 19.1936 11.0783 19.1022C14.7783 16.2289 17.3383 13.7689 19.125 11.2955C21.3983 8.16887 21.9183 5.2822 20.665 2.71553Z" fill="#C60404"/>
</svg>
