<svg width="14" height="14" viewBox="0 0 14 14" fill="none" xmlns="http://www.w3.org/2000/svg">
<path d="M7.64636 6.66939L13.173 1.14273C13.2822 1.01519 13.3393 0.851143 13.3328 0.683359C13.3264 0.515575 13.2568 0.356416 13.1381 0.237686C13.0193 0.118956 12.8602 0.0494009 12.6924 0.0429201C12.5246 0.0364393 12.3606 0.0935104 12.233 0.202728L6.70636 5.72939L1.1797 0.196061C1.05416 0.0705253 0.883897 0 0.706362 0C0.528828 0 0.358565 0.0705253 0.233029 0.196061C0.107493 0.321597 0.0369678 0.49186 0.0369678 0.669394C0.0369678 0.846929 0.107493 1.01719 0.233029 1.14273L5.76636 6.66939L0.233029 12.1961C0.163241 12.2558 0.106561 12.3294 0.0665454 12.4121C0.0265299 12.4948 0.00404312 12.5849 0.000496794 12.6767C-0.00304953 12.7685 0.0124208 12.8601 0.0459372 12.9456C0.0794535 13.0312 0.130292 13.1089 0.195262 13.1738C0.260232 13.2388 0.33793 13.2896 0.42348 13.3232C0.50903 13.3567 0.600585 13.3721 0.692398 13.3686C0.784211 13.365 0.874299 13.3426 0.957009 13.3025C1.03972 13.2625 1.11326 13.2058 1.17303 13.1361L6.70636 7.60939L12.233 13.1361C12.3606 13.2453 12.5246 13.3023 12.6924 13.2959C12.8602 13.2894 13.0193 13.2198 13.1381 13.1011C13.2568 12.9824 13.3264 12.8232 13.3328 12.6554C13.3393 12.4876 13.2822 12.3236 13.173 12.1961L7.64636 6.66939Z" fill="#ffffff"/>
</svg>
