<svg width="148" height="146" viewBox="0 0 148 146" fill="none" xmlns="http://www.w3.org/2000/svg">
<path d="M125.192 43.8561C137.303 43.8561 147.12 34.0385 147.12 21.928C147.12 9.81751 137.303 0 125.192 0C113.082 0 103.264 9.81751 103.264 21.928C103.264 34.0385 113.082 43.8561 125.192 43.8561Z" fill="url(#paint0_linear_294_3638)"/>
<path d="M84.599 62.4812L38.3028 34.2835C36.2472 33.1216 33.3425 35.9369 34.4597 38.0372L61.9425 85.2271L109.132 112.71C109.665 112.903 110.242 112.939 110.795 112.812C111.347 112.686 111.852 112.403 112.248 111.998C112.644 111.593 112.915 111.082 113.028 110.526C113.141 109.971 113.092 109.395 112.886 108.867L84.599 62.4812ZM66.724 80.3562L80.1303 66.95L100.463 100.197L66.724 80.3562Z" fill="url(#paint1_linear_294_3638)"/>
<path fill-rule="evenodd" clip-rule="evenodd" d="M95.4317 6.94848C87.9654 4.35846 80.0527 3 71.9999 3C57.8586 3 44.0348 7.1934 32.2767 15.0499C20.5186 22.9064 11.3543 34.0732 5.94264 47.1381C0.530983 60.203 -0.884954 74.5792 1.87389 88.4489C4.63273 102.318 11.4424 115.059 21.4419 125.058C31.4413 135.057 44.1814 141.867 58.051 144.626C71.9206 147.385 86.2969 145.969 99.3618 140.557C112.427 135.146 123.593 125.981 131.45 114.223C139.306 102.465 143.5 88.6413 143.5 74.4999C143.5 66.2169 142.063 58.0821 139.326 50.4289C136.678 51.7886 133.82 52.7955 130.812 53.3875C132.726 58.7094 133.923 64.3051 134.339 70.0312H123.525V78.9687H134.339C133.251 93.9568 126.805 108.053 116.179 118.679C105.553 129.305 91.4569 135.751 76.4687 136.839V126.025H67.5312V136.839C52.543 135.751 38.4471 129.305 27.821 118.679C17.1949 108.053 10.7486 93.9568 9.66096 78.9687H20.4753V70.0312H9.66096C10.7486 55.043 17.1949 40.9471 27.821 30.321C38.4471 19.6948 52.543 13.2486 67.5312 12.1609V22.9753H76.4687V12.1609C81.995 12.562 87.4 13.6915 92.5545 15.4904C93.1181 12.4759 94.0978 9.608 95.4317 6.94848Z" fill="url(#paint2_linear_294_3638)"/>
<defs>
<linearGradient id="paint0_linear_294_3638" x1="108.585" y1="20.1322" x2="138.788" y2="20.1322" gradientUnits="userSpaceOnUse">
<stop stop-color="#7624FE"/>
<stop offset="1" stop-color="#368BFF"/>
</linearGradient>
<linearGradient id="paint1_linear_294_3638" x1="43.7814" y1="70.2195" x2="98.1025" y2="70.2195" gradientUnits="userSpaceOnUse">
<stop stop-color="#7624FE"/>
<stop offset="1" stop-color="#368BFF"/>
</linearGradient>
<linearGradient id="paint2_linear_294_3638" x1="17.8494" y1="68.6444" x2="116.333" y2="68.6444" gradientUnits="userSpaceOnUse">
<stop stop-color="#7624FE"/>
<stop offset="1" stop-color="#368BFF"/>
</linearGradient>
</defs>
</svg>
