<svg width="19" height="17" viewBox="0 0 19 17" fill="none" xmlns="http://www.w3.org/2000/svg">
<path d="M5.02667 6.75621H4.44667C3.65517 6.72761 2.86624 6.86197 2.12884 7.15097C1.39143 7.43997 0.721291 7.87743 0.16 8.43621L0 8.62288V14.1429H2.72V11.0095L3.08667 10.5962L3.25333 10.4029C4.12128 9.51121 5.20185 8.85507 6.39333 8.49621C5.7968 8.0423 5.32632 7.44331 5.02667 6.75621Z" fill="#5558FE"/>
<path d="M17.92 8.41619C17.3587 7.85741 16.6886 7.41995 15.9512 7.13095C15.2138 6.84195 14.4248 6.70759 13.6333 6.73619C13.3906 6.73688 13.148 6.75023 12.9067 6.77619C12.6014 7.4208 12.1438 7.98138 11.5733 8.40953C12.8453 8.76143 13.9976 9.45279 14.9067 10.4095L15.0733 10.5962L15.4333 11.0095V14.1495H18.06V8.60286L17.92 8.41619Z" fill="#5558FE"/>
<path d="M4.42667 5.45621H4.63333C4.53731 4.6317 4.68198 3.79703 5.04989 3.05293C5.41779 2.30884 5.99321 1.68714 6.70667 1.26287C6.44804 0.867774 6.09124 0.546612 5.67121 0.330839C5.25117 0.115065 4.78229 0.0120771 4.31049 0.0319593C3.83869 0.0518415 3.38014 0.193912 2.97975 0.44426C2.57935 0.694607 2.25084 1.04465 2.02637 1.46011C1.8019 1.87557 1.68918 2.3422 1.69925 2.81431C1.70931 3.28642 1.84181 3.74783 2.08377 4.15334C2.32574 4.55886 2.66887 4.89459 3.07957 5.12765C3.49026 5.36071 3.95445 5.48311 4.42667 5.48287V5.45621Z" fill="#5558FE"/>
<path d="M13.3133 4.95613C13.3214 5.10936 13.3214 5.26291 13.3133 5.41613C13.4413 5.43641 13.5705 5.44755 13.7 5.44947H13.8267C14.2968 5.4244 14.7525 5.27802 15.1492 5.02459C15.546 4.77115 15.8704 4.4193 16.0908 4.00328C16.3113 3.58726 16.4202 3.12125 16.4071 2.65062C16.394 2.17999 16.2592 1.72078 16.0159 1.3177C15.7726 0.91462 15.4291 0.5814 15.0188 0.350484C14.6085 0.119568 14.1454 -0.00117574 13.6746 8.62987e-06C13.2038 0.001193 12.7413 0.124265 12.3322 0.357243C11.9231 0.59022 11.5813 0.925164 11.34 1.32947C11.9434 1.72342 12.4395 2.261 12.784 2.89398C13.1284 3.52695 13.3103 4.23553 13.3133 4.95613Z" fill="#5558FE"/>
<path d="M8.94 7.94267C10.5858 7.94267 11.92 6.60847 11.92 4.96267C11.92 3.31686 10.5858 1.98267 8.94 1.98267C7.2942 1.98267 5.96 3.31686 5.96 4.96267C5.96 6.60847 7.2942 7.94267 8.94 7.94267Z" fill="#5558FE"/>
<path d="M9.1 9.52941C8.22937 9.49426 7.36062 9.63561 6.54603 9.94494C5.73144 10.2543 4.98785 10.7252 4.36 11.3294L4.19334 11.5161V15.7361C4.19594 15.8735 4.22559 16.0091 4.28061 16.1351C4.33563 16.2611 4.41493 16.375 4.51399 16.4704C4.61304 16.5657 4.72991 16.6406 4.85791 16.6908C4.98591 16.7409 5.12255 16.7654 5.26 16.7627H12.92C13.0575 16.7654 13.1941 16.7409 13.3221 16.6908C13.4501 16.6406 13.567 16.5657 13.666 16.4704C13.7651 16.375 13.8444 16.2611 13.8994 16.1351C13.9544 16.0091 13.9841 15.8735 13.9867 15.7361V11.5294L13.8267 11.3294C13.2029 10.7234 12.4619 10.2511 11.6491 9.94158C10.8363 9.63206 9.96891 9.4918 9.1 9.52941Z" fill="#5558FE"/>
</svg>
