<svg width="36" height="36" viewBox="0 0 36 36" fill="none" xmlns="http://www.w3.org/2000/svg">
<circle cx="18" cy="18" r="18" fill="#FF453A"/>
<path d="M26.0733 22.0101C25.0021 20.8495 23.7021 19.9232 22.2553 19.2897C20.8085 18.6562 19.2461 18.3291 17.6667 18.3291C16.0872 18.3291 14.5249 18.6562 13.078 19.2897C11.6312 19.9232 10.3312 20.8495 9.26 22.0101C9.09461 22.193 9.00209 22.4302 9 22.6768V26.6768C9.00351 26.9397 9.11041 27.1906 9.29757 27.3753C9.48472 27.56 9.73708 27.6635 10 27.6635H25.3333C25.5986 27.6635 25.8529 27.5581 26.0404 27.3706C26.228 27.183 26.3333 26.9287 26.3333 26.6635V22.6635C26.328 22.4215 26.2357 22.1896 26.0733 22.0101Z" fill="#161C24"/>
<path d="M17.6667 16.9962C18.7494 16.9956 19.7981 16.6185 20.6333 15.9295H20.4867C20.0546 15.9339 19.629 15.8241 19.253 15.6112C18.8769 15.3983 18.5638 15.0898 18.3453 14.717C18.1267 14.3442 18.0106 13.9203 18.0085 13.4882C18.0064 13.0561 18.1184 12.6311 18.3333 12.2562L20.44 8.60954C19.8483 8.16144 19.1583 7.86093 18.4272 7.73297C17.6961 7.605 16.945 7.65327 16.2362 7.87377C15.5275 8.09427 14.8816 8.48063 14.3522 9.00079C13.8227 9.52095 13.4249 10.1599 13.1919 10.8646C12.9589 11.5693 12.8973 12.3194 13.0123 13.0527C13.1272 13.7859 13.4155 14.4812 13.853 15.0808C14.2906 15.6803 14.8648 16.1668 15.5281 16.5C16.1913 16.8331 16.9245 17.0032 17.6667 16.9962Z" fill="#161C24"/>
<path d="M23.5667 6.42264L19.7533 12.996C19.6646 13.1262 19.6137 13.2784 19.6062 13.4358C19.5987 13.5932 19.6349 13.7496 19.7109 13.8877C19.7868 14.0257 19.8995 14.1401 20.0364 14.218C20.1733 14.296 20.3292 14.3345 20.4867 14.3293H28.12C28.2775 14.3345 28.4333 14.296 28.5703 14.218C28.7072 14.1401 28.8199 14.0257 28.8958 13.8877C28.9718 13.7496 29.008 13.5932 29.0005 13.4358C28.993 13.2784 28.9421 13.1262 28.8533 12.996L25.04 6.42264C24.9648 6.29401 24.8572 6.18731 24.728 6.11316C24.5987 6.03901 24.4523 6 24.3033 6C24.1543 6 24.0079 6.03901 23.8787 6.11316C23.7495 6.18731 23.6419 6.29401 23.5667 6.42264Z" fill="#161C24"/>
</svg>
