<svg width="21" height="21" viewBox="0 0 21 21" fill="none" xmlns="http://www.w3.org/2000/svg">
<circle cx="10.5" cy="10.5" r="10.5" fill="#4AB4F0"/>
<g clip-path="url(#clip0_1719_4550)">
<path d="M15.847 6.12989C15.847 6.12989 14.8661 6.70933 14.3206 6.87364C14.0279 6.53701 13.6388 6.29842 13.206 6.19013C12.7732 6.08184 12.3176 6.10908 11.9008 6.26816C11.484 6.42725 11.1261 6.7105 10.8756 7.07961C10.625 7.44872 10.4938 7.88588 10.4998 8.33197V8.81808C9.64553 8.84023 8.79904 8.65077 8.03572 8.26656C7.27239 7.88236 6.61594 7.31534 6.12481 6.616C6.12481 6.616 4.18037 10.991 8.55537 12.9354C7.55423 13.615 6.36162 13.9558 5.15259 13.9077C9.52759 16.3382 14.8748 13.9077 14.8748 8.31739C14.8748 8.18225 14.8612 8.04711 14.8359 7.91392C15.3318 7.42489 15.847 6.12989 15.847 6.12989Z" stroke="white" stroke-width="0.583333" stroke-linecap="round" stroke-linejoin="round"/>
</g>
<defs>
<clipPath id="clip0_1719_4550">
<rect width="11.6667" height="11.6667" fill="white" transform="translate(4.66675 4.6665)"/>
</clipPath>
</defs>
</svg>
