<svg width="64" height="64" viewBox="0 0 64 64" fill="none" xmlns="http://www.w3.org/2000/svg">
<rect x="1.28" y="1.28" width="61.44" height="61.44" rx="30.72" fill="#161C24" stroke="url(#paint0_linear_2208_4581)" stroke-width="2.56"/>
<path d="M40.9598 30.7198H33.2798V23.0398C33.2798 22.7003 33.1449 22.3747 32.9049 22.1347C32.6648 21.8946 32.3392 21.7598 31.9998 21.7598C31.6603 21.7598 31.3347 21.8946 31.0947 22.1347C30.8546 22.3747 30.7198 22.7003 30.7198 23.0398V30.7198H23.0398C22.7003 30.7198 22.3747 30.8546 22.1347 31.0947C21.8946 31.3347 21.7598 31.6603 21.7598 31.9998C21.7598 32.3392 21.8946 32.6648 22.1347 32.9049C22.3747 33.1449 22.7003 33.2798 23.0398 33.2798H30.7198V40.9598C30.7198 41.2992 30.8546 41.6248 31.0947 41.8649C31.3347 42.1049 31.6603 42.2398 31.9998 42.2398C32.3392 42.2398 32.6648 42.1049 32.9049 41.8649C33.1449 41.6248 33.2798 41.2992 33.2798 40.9598V33.2798H40.9598C41.2992 33.2798 41.6248 33.1449 41.8649 32.9049C42.1049 32.6648 42.2398 32.3392 42.2398 31.9998C42.2398 31.6603 42.1049 31.3347 41.8649 31.0947C41.6248 30.8546 41.2992 30.7198 40.9598 30.7198Z" fill="url(#paint1_linear_2208_4581)"/>
<defs>
<linearGradient id="paint0_linear_2208_4581" x1="-2.84359e-07" y1="32.5246" x2="64" y2="32.5246" gradientUnits="userSpaceOnUse">
<stop stop-color="#7624FE"/>
<stop offset="1" stop-color="#368BFF"/>
</linearGradient>
<linearGradient id="paint1_linear_2208_4581" x1="22" y1="32" x2="43" y2="32" gradientUnits="userSpaceOnUse">
<stop stop-color="#7624FE"/>
<stop offset="1" stop-color="#368BFF"/>
</linearGradient>
</defs>
</svg>
