<svg width="16" height="15" viewBox="0 0 16 15" fill="none" xmlns="http://www.w3.org/2000/svg">
<path d="M7.50094 0C7.12598 0 6.75103 0.142482 6.44357 0.442445L3.96888 2.90964L7.50094 6.4342L11.033 2.90964L8.55831 0.442445C8.25084 0.142482 7.87589 0 7.50094 0ZM2.91151 3.967L0.444319 6.44169C-0.148106 7.02662 -0.148106 7.9715 0.444319 8.55643L2.91151 11.0311L6.43607 7.49906L2.91151 3.967ZM12.0904 3.967L8.5658 7.49906L12.0904 11.0311L14.5576 8.55643C15.15 7.9715 15.15 7.02662 14.5576 6.44169L12.0904 3.967ZM7.50094 8.56393L3.96888 12.0885L6.44357 14.5557C7.0285 15.1481 7.97338 15.1481 8.55831 14.5557L11.033 12.0885L7.50094 8.56393Z" fill="url(#paint0_linear_2258_4881)"/>
<defs>
<linearGradient id="paint0_linear_2258_4881" x1="-0.415337" y1="7.60606" x2="14.9521" y2="7.60606" gradientUnits="userSpaceOnUse">
<stop stop-color="#7624FE"/>
<stop offset="1" stop-color="#368BFF"/>
</linearGradient>
</defs>
</svg>
