<svg width="36" height="36" viewBox="0 0 36 36" fill="none" xmlns="http://www.w3.org/2000/svg">
<circle cx="18" cy="18" r="18" fill="#323B45"/>
<path d="M9.73366 8.6665C9.45076 8.6665 9.17945 8.77888 8.97941 8.97892C8.77937 9.17896 8.66699 9.45027 8.66699 9.73317V13.9998H14.0003V8.6665H9.73366ZM12.667 12.6665H10.0003V9.99984H12.667V12.6665Z" fill="#C4C4C4"/>
<path d="M8.66699 26.2667C8.66699 26.5496 8.77937 26.8209 8.97941 27.0209C9.17945 27.221 9.45076 27.3333 9.73366 27.3333H14.0003V22H8.66699V26.2667ZM10.0003 23.3333H12.667V26H10.0003V23.3333Z" fill="#C4C4C4"/>
<path d="M22 27.3333H26.2667C26.5496 27.3333 26.8209 27.221 27.0209 27.0209C27.221 26.8209 27.3333 26.5496 27.3333 26.2667V22H22V27.3333ZM23.3333 23.3333H26V26H23.3333V23.3333Z" fill="#C4C4C4"/>
<path d="M26.2667 8.6665H22V13.9998H27.3333V9.73317C27.3333 9.45027 27.221 9.17896 27.0209 8.97892C26.8209 8.77888 26.5496 8.6665 26.2667 8.6665ZM26 12.6665H23.3333V9.99984H26V12.6665Z" fill="#C4C4C4"/>
<path d="M19.3337 12.6668V11.3335H16.667V14.0002H18.0003V12.6668H19.3337Z" fill="#C4C4C4"/>
<path d="M14 14H15.3333V15.3333H14V14Z" fill="#C4C4C4"/>
<path d="M15.333 15.3335H17.9997V16.6668H15.333V15.3335Z" fill="#C4C4C4"/>
<path d="M19.333 9.99984V11.3332H20.6663V8.6665H15.333V11.3332H16.6663V9.99984H19.333Z" fill="#C4C4C4"/>
<path d="M8.66699 15.3335H10.0003V18.0002H8.66699V15.3335Z" fill="#C4C4C4"/>
<path d="M14.0003 16.6668V18.0002H12.667V15.3335H11.3337V18.0002H10.0003V19.3335H8.66699V20.6668H11.3337V19.3335H12.667V20.6668H14.0003V19.3335H15.3337V16.6668H14.0003Z" fill="#C4C4C4"/>
<path d="M19.3333 16.6665H20.6667V17.9998H22V16.6665H23.3333V15.3332H20.6667V12.6665H19.3333V13.9998H18V15.3332H19.3333V16.6665Z" fill="#C4C4C4"/>
<path d="M17.9997 25.9998H15.333V27.3332H20.6663V25.9998H19.333V24.6665H17.9997V25.9998Z" fill="#C4C4C4"/>
<path d="M20.667 19.3332V17.9998H19.3337V16.6665H18.0003V17.9998H16.667V19.3332H18.0003V20.6665H19.3337V19.3332H20.667Z" fill="#C4C4C4"/>
<path d="M26 19.3335H27.3333V20.6668H26V19.3335Z" fill="#C4C4C4"/>
<path d="M20.667 19.3335H24.667V20.6668H20.667V19.3335Z" fill="#C4C4C4"/>
<path d="M25.9997 15.3335H24.6663V16.6668H23.333V18.0002H24.6663V19.3335H25.9997V18.0002H27.333V16.6668H25.9997V15.3335Z" fill="#C4C4C4"/>
<path d="M19.333 20.6665H20.6663V24.6665H19.333V20.6665Z" fill="#C4C4C4"/>
<path d="M15.333 24.6668H16.6663V23.3335H17.9997V22.0002H16.6663V19.3335H15.333V24.6668Z" fill="#C4C4C4"/>
</svg>
