<svg width="24" height="24" viewBox="0 0 24 24" fill="none" xmlns="http://www.w3.org/2000/svg">
<rect width="24" height="24" rx="2" fill="white"/>
<path d="M3.73317 2.6665C3.45027 2.6665 3.17896 2.77888 2.97892 2.97892C2.77888 3.17896 2.6665 3.45027 2.6665 3.73317V7.99984H7.99984V2.6665H3.73317ZM6.6665 6.6665H3.99984V3.99984H6.6665V6.6665Z" fill="black"/>
<path d="M2.6665 20.2667C2.6665 20.5496 2.77888 20.8209 2.97892 21.0209C3.17896 21.221 3.45027 21.3333 3.73317 21.3333H7.99984V16H2.6665V20.2667ZM3.99984 17.3333H6.6665V20H3.99984V17.3333Z" fill="black"/>
<path d="M16 21.3333H20.2667C20.5496 21.3333 20.8209 21.221 21.0209 21.0209C21.221 20.8209 21.3333 20.5496 21.3333 20.2667V16H16V21.3333ZM17.3333 17.3333H20V20H17.3333V17.3333Z" fill="black"/>
<path d="M20.2667 2.6665H16V7.99984H21.3333V3.73317C21.3333 3.45027 21.221 3.17896 21.0209 2.97892C20.8209 2.77888 20.5496 2.6665 20.2667 2.6665ZM20 6.6665H17.3333V3.99984H20V6.6665Z" fill="black"/>
<path d="M13.3332 6.66683V5.3335H10.6665V8.00016H11.9998V6.66683H13.3332Z" fill="black"/>
<path d="M8 8H9.33333V9.33333H8V8Z" fill="black"/>
<path d="M9.3335 9.3335H12.0002V10.6668H9.3335V9.3335Z" fill="black"/>
<path d="M13.3335 3.99984V5.33317H14.6668V2.6665H9.3335V5.33317H10.6668V3.99984H13.3335Z" fill="black"/>
<path d="M2.6665 9.3335H3.99984V12.0002H2.6665V9.3335Z" fill="black"/>
<path d="M7.99984 10.6668V12.0002H6.6665V9.3335H5.33317V12.0002H3.99984V13.3335H2.6665V14.6668H5.33317V13.3335H6.6665V14.6668H7.99984V13.3335H9.33317V10.6668H7.99984Z" fill="black"/>
<path d="M13.3333 10.6665H14.6667V11.9998H16V10.6665H17.3333V9.33317H14.6667V6.6665H13.3333V7.99984H12V9.33317H13.3333V10.6665Z" fill="black"/>
<path d="M12.0002 19.9998H9.3335V21.3332H14.6668V19.9998H13.3335V18.6665H12.0002V19.9998Z" fill="black"/>
<path d="M14.6665 13.3332V11.9998H13.3332V10.6665H11.9998V11.9998H10.6665V13.3332H11.9998V14.6665H13.3332V13.3332H14.6665Z" fill="black"/>
<path d="M20 13.3335H21.3333V14.6668H20V13.3335Z" fill="black"/>
<path d="M14.6665 13.3335H18.6665V14.6668H14.6665V13.3335Z" fill="black"/>
<path d="M20.0002 9.3335H18.6668V10.6668H17.3335V12.0002H18.6668V13.3335H20.0002V12.0002H21.3335V10.6668H20.0002V9.3335Z" fill="black"/>
<path d="M13.3335 14.6665H14.6668V18.6665H13.3335V14.6665Z" fill="black"/>
<path d="M9.3335 18.6668H10.6668V17.3335H12.0002V16.0002H10.6668V13.3335H9.3335V18.6668Z" fill="black"/>
</svg>
