<svg width="36" height="36" viewBox="0 0 36 36" fill="none" xmlns="http://www.w3.org/2000/svg">
<circle cx="18" cy="18" r="18" fill="#FF453A"/>
<path d="M13.6667 10.0008C12.6951 9.98217 11.748 10.3059 10.9911 10.9153C10.2342 11.5247 9.71583 12.381 9.52667 13.3341H7V14.6674H9.55333C9.74408 15.6148 10.2592 16.466 11.01 17.0745C11.7608 17.6829 12.7003 18.0105 13.6667 18.0008H17V10.0008H13.6667Z" fill="#161C24"/>
<path d="M28.194 21.3342H25.7607C25.5667 20.3835 25.047 19.5302 24.2912 18.9217C23.5354 18.3132 22.5909 17.9875 21.6207 18.0009H18.334V19.3342H15.0007C14.8238 19.3342 14.6543 19.4045 14.5292 19.5295C14.4042 19.6545 14.334 19.8241 14.334 20.0009C14.334 20.1777 14.4042 20.3473 14.5292 20.4723C14.6543 20.5973 14.8238 20.6676 15.0007 20.6676H18.334V23.3342H15.0007C14.8238 23.3342 14.6543 23.4045 14.5292 23.5295C14.4042 23.6545 14.334 23.8241 14.334 24.0009C14.334 24.1777 14.4042 24.3473 14.5292 24.4723C14.6543 24.5973 14.8238 24.6676 15.0007 24.6676H18.334V26.0009H21.6273C22.5993 26.0184 23.5467 25.6944 24.3044 25.0853C25.0622 24.4762 25.5822 23.6206 25.774 22.6676H28.2007L28.194 21.3342Z" fill="#161C24"/>
</svg>
