<svg width="20" height="22" viewBox="0 0 20 22" fill="none" xmlns="http://www.w3.org/2000/svg">
<path d="M1.48341 8.07383C1.48716 7.4796 1.72584 6.911 2.14736 6.49214C2.56888 6.07328 3.13899 5.8382 3.73322 5.83821H17.3812L14.3436 9.06034C14.2797 9.12838 14.2299 9.20832 14.1969 9.29562C14.164 9.38291 14.1486 9.47583 14.1515 9.56908C14.1545 9.66234 14.1758 9.75409 14.2142 9.83912C14.2527 9.92414 14.3075 10.0008 14.3755 10.0646C14.4435 10.1284 14.5235 10.1783 14.6108 10.2112C14.6981 10.2442 14.791 10.2596 14.8842 10.2566C14.9775 10.2536 15.0692 10.2323 15.1543 10.1939C15.2393 10.1555 15.3159 10.1007 15.3797 10.0327L20 5.12849L15.3797 0.224316C15.3159 0.156278 15.2393 0.101482 15.1543 0.0630556C15.0692 0.0246291 14.9775 0.00332469 14.8842 0.000359027C14.791 -0.00260664 14.6981 0.0128244 14.6108 0.0457711C14.5235 0.0787178 14.4435 0.128535 14.3755 0.192378C14.3075 0.256222 14.2527 0.332841 14.2142 0.417861C14.1758 0.502881 14.1545 0.594638 14.1515 0.687892C14.1486 0.781145 14.164 0.87407 14.1969 0.96136C14.2299 1.04865 14.2797 1.1286 14.3436 1.19663L17.3812 4.41877H3.73322C2.76253 4.41876 1.83138 4.80339 1.14367 5.48844C0.455958 6.1735 0.0677199 7.10314 0.0639648 8.07383V12.4031L1.48341 10.8985V8.07383Z" fill="url(#paint0_linear_1957_5275)"/>
<path d="M18.5166 13.5388C18.5129 14.133 18.2742 14.7016 17.8527 15.1205C17.4312 15.5393 16.861 15.7744 16.2668 15.7744H2.61887L5.65648 12.5523C5.72032 12.4842 5.77014 12.4043 5.80308 12.317C5.83603 12.2297 5.85146 12.1368 5.8485 12.0435C5.84553 11.9503 5.82423 11.8585 5.7858 11.7735C5.74737 11.6885 5.69258 11.6118 5.62454 11.548C5.5565 11.4842 5.47656 11.4343 5.38927 11.4014C5.30198 11.3684 5.20905 11.353 5.1158 11.356C5.02254 11.359 4.93079 11.3803 4.84577 11.4187C4.76075 11.4571 4.68413 11.5119 4.62028 11.5799L0 16.4841L4.62028 21.3883C4.68413 21.4563 4.76075 21.5111 4.84577 21.5495C4.93079 21.588 5.02254 21.6093 5.1158 21.6122C5.20905 21.6152 5.30198 21.5998 5.38927 21.5668C5.47656 21.5339 5.5565 21.4841 5.62454 21.4202C5.69258 21.3564 5.74737 21.2798 5.7858 21.1947C5.82423 21.1097 5.84553 21.018 5.8485 20.9247C5.85146 20.8315 5.83603 20.7385 5.80308 20.6512C5.77014 20.564 5.72032 20.484 5.65648 20.416L2.61887 17.1938H16.2668C17.2375 17.1938 18.1686 16.8092 18.8564 16.1242C19.5441 15.4391 19.9323 14.5095 19.9361 13.5388V9.20947L18.5166 10.7141V13.5388Z" fill="url(#paint1_linear_1957_5275)"/>
<defs>
<linearGradient id="paint0_linear_1957_5275" x1="0.0639647" y1="5.40165" x2="20.1871" y2="5.40165" gradientUnits="userSpaceOnUse">
<stop stop-color="#7624FE"/>
<stop offset="1" stop-color="#368BFF"/>
</linearGradient>
<linearGradient id="paint1_linear_1957_5275" x1="-1.36598e-07" y1="14.6111" x2="20.1231" y2="14.6111" gradientUnits="userSpaceOnUse">
<stop stop-color="#7624FE"/>
<stop offset="1" stop-color="#368BFF"/>
</linearGradient>
</defs>
</svg>
