<svg width="36" height="36" viewBox="0 0 36 36" fill="none" xmlns="http://www.w3.org/2000/svg">
<circle cx="18" cy="18" r="18" fill="#C4C4C4"/>
<path d="M23.0738 21.8029C22.6248 21.8046 22.1808 21.897 21.7684 22.0746C21.356 22.2522 20.9837 22.5112 20.6738 22.8362L12.5472 18.7696C12.7471 18.1634 12.7471 17.5091 12.5472 16.9029L20.6872 12.7629C21.2702 13.3773 22.0609 13.753 22.9055 13.8169C23.7501 13.8809 24.5883 13.6285 25.2572 13.1088C25.9261 12.5892 26.3779 11.8394 26.5248 11.0052C26.6716 10.171 26.5031 9.31197 26.0519 8.59512C25.6007 7.87826 24.8991 7.35478 24.0834 7.12641C23.2678 6.89803 22.3963 6.98109 21.6385 7.35944C20.8807 7.73778 20.2906 8.38439 19.9829 9.17357C19.6753 9.96275 19.672 10.8381 19.9738 11.6296L11.9138 15.7296C11.4785 15.1972 10.8892 14.8125 10.2267 14.6282C9.56419 14.4439 8.86088 14.469 8.21319 14.7001C7.5655 14.9312 7.00514 15.3569 6.60892 15.919C6.21269 16.481 6 17.1519 6 17.8396C6 18.5272 6.21269 19.1981 6.60892 19.7602C7.00514 20.3222 7.5655 20.748 8.21319 20.9791C8.86088 21.2101 9.56419 21.2353 10.2267 21.0509C10.8892 20.8666 11.4785 20.4819 11.9138 19.9496L19.9538 23.9962C19.818 24.361 19.748 24.747 19.7472 25.1362C19.7472 25.7955 19.9427 26.44 20.3089 26.9881C20.6752 27.5363 21.1958 27.9635 21.8049 28.2158C22.414 28.4681 23.0842 28.5341 23.7308 28.4055C24.3774 28.2769 24.9714 27.9594 25.4375 27.4933C25.9037 27.0271 26.2212 26.4331 26.3498 25.7865C26.4784 25.1399 26.4124 24.4697 26.1601 23.8606C25.9078 23.2515 25.4806 22.7309 24.9324 22.3647C24.3842 21.9984 23.7398 21.8029 23.0805 21.8029H23.0738Z" fill="#161C24"/>
</svg>
