<svg width="67" height="64" viewBox="0 0 67 64" fill="none" xmlns="http://www.w3.org/2000/svg">
<path d="M4.56159 4.56159H41.0543V26.9134H45.6159V4.56159C45.6159 3.35178 45.1353 2.19152 44.2799 1.33606C43.4244 0.480595 42.2642 0 41.0543 0H4.56159C3.35178 0 2.19152 0.480595 1.33606 1.33606C0.480595 2.19152 0 3.35178 0 4.56159V59.3007C0 60.5105 0.480595 61.6708 1.33606 62.5263C2.19152 63.3817 3.35178 63.8623 4.56159 63.8623H41.0543C42.2642 63.8623 43.4244 63.3817 44.2799 62.5263C45.1353 61.6708 45.6159 60.5105 45.6159 59.3007H4.56159V4.56159Z" fill="url(#paint0_linear_633_5217)"/>
<path d="M52.823 30.2901C52.3867 29.9165 51.8255 29.7212 51.2515 29.7434C50.6774 29.7656 50.1329 30.0035 49.7267 30.4097C49.3205 30.8159 49.0826 31.3604 49.0604 31.9345C49.0382 32.5085 49.2335 33.0697 49.6071 33.5061L57.3162 41.0555H24.2447C23.6398 41.0555 23.0596 41.2958 22.6319 41.7235C22.2042 42.1513 21.9639 42.7314 21.9639 43.3363C21.9639 43.9412 22.2042 44.5213 22.6319 44.9491C23.0596 45.3768 23.6398 45.6171 24.2447 45.6171H57.3162L49.6071 53.5086C49.3684 53.7131 49.1745 53.9647 49.0376 54.2477C48.9007 54.5307 48.8237 54.8389 48.8116 55.153C48.7995 55.4671 48.8524 55.7803 48.967 56.073C49.0817 56.3657 49.2556 56.6315 49.4779 56.8538C49.7002 57.0761 49.966 57.25 50.2587 57.3646C50.5514 57.4793 50.8646 57.5322 51.1787 57.5201C51.4928 57.508 51.801 57.431 52.084 57.2941C52.367 57.1572 52.6186 56.9633 52.823 56.7246L66.1429 43.4959L52.823 30.2901Z" fill="url(#paint1_linear_633_5217)"/>
<defs>
<linearGradient id="paint0_linear_633_5217" x1="0" y1="24.8915" x2="44.9104" y2="24.8915" gradientUnits="userSpaceOnUse">
<stop stop-color="#7624FE"/>
<stop offset="1" stop-color="#368BFF"/>
</linearGradient>
<linearGradient id="paint1_linear_633_5217" x1="21.9639" y1="40.5695" x2="65.4596" y2="40.5695" gradientUnits="userSpaceOnUse">
<stop stop-color="#7624FE"/>
<stop offset="1" stop-color="#368BFF"/>
</linearGradient>
</defs>
</svg>
