<svg width="23" height="21" viewBox="0 0 23 21" fill="none" xmlns="http://www.w3.org/2000/svg">
<path d="M11.1154 0C6.73751 0 3.17582 3.56169 3.17582 7.93956C3.17582 12.3174 6.73751 15.8791 11.1154 15.8791C15.4933 15.8791 19.0549 12.3174 19.0549 7.93956C19.0549 3.56169 15.4933 0 11.1154 0ZM11.1154 1.58791C14.6175 1.58791 17.467 4.43742 17.467 7.93956C17.467 11.4417 14.6175 14.2912 11.1154 14.2912C7.61325 14.2912 4.76374 11.4417 4.76374 7.93956C4.76374 4.43742 7.61325 1.58791 11.1154 1.58791ZM10.3214 3.17582V4.12063C9.74895 4.32877 9.27491 4.74334 8.99235 5.28298C8.74625 5.75808 8.67219 6.30372 8.78274 6.82723C8.88044 7.2827 9.10697 7.70049 9.43537 8.03086C9.65212 8.24761 9.91016 8.42308 10.1944 8.54455C10.4786 8.66603 10.7899 8.73352 11.1154 8.73352C11.2281 8.73352 11.3345 8.75495 11.4298 8.79386C11.5241 8.83223 11.6098 8.88908 11.6818 8.96108C11.7538 9.03308 11.8106 9.11875 11.849 9.21307C11.8879 9.30834 11.9093 9.41473 11.9093 9.52747C11.9128 9.68387 11.8688 9.83765 11.7832 9.96859C11.6977 10.0995 11.5744 10.2015 11.4298 10.2611C11.3345 10.3 11.2281 10.3214 11.1154 10.3214C11.0018 10.3214 10.8963 10.3 10.801 10.2611C10.7067 10.2226 10.6212 10.1656 10.5493 10.0936C10.4757 10.019 10.4177 9.93056 10.3786 9.83338C10.3394 9.7362 10.32 9.63222 10.3214 9.52747H8.73352C8.73361 10.1452 8.97824 10.7378 9.41394 11.1757C9.66891 11.4358 9.97904 11.6352 10.3214 11.7593V12.7033H11.9093V11.7585C12.3097 11.615 12.6647 11.3677 12.9381 11.042C13.2115 10.7163 13.3935 10.3237 13.4655 9.9046C13.5636 9.30922 13.4276 8.69898 13.086 8.20157C12.9137 7.94792 12.6949 7.72918 12.4413 7.55687C12.1842 7.38241 11.8957 7.25946 11.5918 7.19483C11.4351 7.16213 11.2754 7.14564 11.1154 7.1456C11.0018 7.1456 10.8963 7.12417 10.801 7.08526C10.7067 7.04689 10.621 6.99004 10.549 6.91804C10.477 6.84604 10.4201 6.76037 10.3818 6.66605C10.3414 6.56617 10.3209 6.45938 10.3214 6.35165C10.3214 6.23811 10.3429 6.13252 10.3818 6.03724C10.4201 5.94293 10.477 5.85725 10.549 5.78526C10.621 5.71326 10.7067 5.6564 10.801 5.61803C10.8963 5.57913 11.0026 5.55769 11.1154 5.55769C11.5679 5.55769 11.9093 5.89909 11.9093 6.35165H13.4973C13.4974 6.10241 13.4578 5.85474 13.3797 5.61803C13.2629 5.27402 13.07 4.96076 12.8154 4.70152C12.5609 4.44229 12.2512 4.24374 11.9093 4.12063V3.17582H10.3214ZM0 14.2912V20.6429H1.58791V15.8791H5.8594C5.18616 15.429 4.57259 14.8954 4.0333 14.2912H0ZM18.1975 14.2912C17.6582 14.8954 17.0446 15.429 16.3714 15.8791H20.6429V20.6429H22.2308V14.2912H18.1975ZM3.17582 17.467V19.0549H19.0549V17.467H3.17582Z" fill="url(#paint0_linear_2118_4382)"/>
<defs>
<linearGradient id="paint0_linear_2118_4382" x1="-1.52321e-07" y1="8.99011" x2="22.4393" y2="8.99011" gradientUnits="userSpaceOnUse">
<stop stop-color="#7624FE"/>
<stop offset="1" stop-color="#368BFF"/>
</linearGradient>
</defs>
</svg>
