<svg width="20" height="20" viewBox="0 0 20 20" fill="none" xmlns="http://www.w3.org/2000/svg">
<path d="M10 0C4.47768 0 0 4.47768 0 10C0 15.5223 4.47768 20 10 20C15.5223 20 20 15.5223 20 10C20 4.47768 15.5223 0 10 0ZM10 18.3036C5.41518 18.3036 1.69643 14.5848 1.69643 10C1.69643 5.41518 5.41518 1.69643 10 1.69643C14.5848 1.69643 18.3036 5.41518 18.3036 10C18.3036 14.5848 14.5848 18.3036 10 18.3036Z" fill="white"/>
<path d="M8.92871 6.07143C8.92871 6.35559 9.04159 6.62811 9.24252 6.82904C9.44346 7.02997 9.71598 7.14286 10.0001 7.14286C10.2843 7.14286 10.5568 7.02997 10.7578 6.82904C10.9587 6.62811 11.0716 6.35559 11.0716 6.07143C11.0716 5.78727 10.9587 5.51475 10.7578 5.31381C10.5568 5.11288 10.2843 5 10.0001 5C9.71598 5 9.44346 5.11288 9.24252 5.31381C9.04159 5.51475 8.92871 5.78727 8.92871 6.07143ZM10.5359 8.57143H9.46443C9.36621 8.57143 9.28585 8.65179 9.28585 8.75V14.8214C9.28585 14.9196 9.36621 15 9.46443 15H10.5359C10.6341 15 10.7144 14.9196 10.7144 14.8214V8.75C10.7144 8.65179 10.6341 8.57143 10.5359 8.57143Z" fill="white"/>
</svg>
