<svg width="56" height="64" viewBox="0 0 56 64" fill="none" xmlns="http://www.w3.org/2000/svg">
<path d="M46.28 64H9.72001C8.95039 63.9818 8.1919 63.8122 7.48787 63.5008C6.78383 63.1894 6.14806 62.7423 5.61686 62.1851C5.08567 61.6279 4.66947 60.9715 4.39204 60.2534C4.11461 59.5353 3.9814 58.7696 4 58V18.46H8.00001V58C7.98091 58.2444 8.01032 58.4902 8.08654 58.7231C8.16276 58.9561 8.28429 59.1718 8.44413 59.3576C8.60398 59.5435 8.79899 59.6959 9.01795 59.8062C9.23691 59.9164 9.4755 59.9823 9.72001 60H46.28C46.5245 59.9823 46.7631 59.9164 46.9821 59.8062C47.201 59.6959 47.3961 59.5435 47.5559 59.3576C47.7157 59.1718 47.8373 58.9561 47.9135 58.7231C47.9897 58.4902 48.0191 58.2444 48 58V18.46H52V58C52.0186 58.7696 51.8854 59.5353 51.608 60.2534C51.3306 60.9715 50.9144 61.6279 50.3832 62.1851C49.852 62.7423 49.2162 63.1894 48.5122 63.5008C47.8081 63.8122 47.0496 63.9818 46.28 64Z" fill="url(#paint0_linear_687_5405)"/>
<path d="M53.56 13.999H2C1.46957 13.999 0.96086 13.7883 0.585787 13.4132C0.210714 13.0382 0 12.5295 0 11.999C0 11.4686 0.210714 10.9599 0.585787 10.5848C0.96086 10.2097 1.46957 9.99902 2 9.99902H53.56C54.0905 9.99902 54.5992 10.2097 54.9742 10.5848C55.3493 10.9599 55.56 11.4686 55.56 11.999C55.56 12.5295 55.3493 13.0382 54.9742 13.4132C54.5992 13.7883 54.0905 13.999 53.56 13.999Z" fill="url(#paint1_linear_687_5405)"/>
<path d="M34.0001 21.999H38.0001V51.999H34.0001V21.999Z" fill="url(#paint2_linear_687_5405)"/>
<path d="M18 21.999H22V51.999H18V21.999Z" fill="url(#paint3_linear_687_5405)"/>
<path d="M38 7.72001H34.2V4H21.8V7.72001H18V4C17.9987 2.9729 18.3926 1.98465 19.1 1.24C19.8074 0.495347 20.7742 0.0513546 21.8 0H34.2C35.2258 0.0513546 36.1926 0.495347 36.9 1.24C37.6074 1.98465 38.0013 2.9729 38 4V7.72001Z" fill="url(#paint4_linear_687_5405)"/>
<defs>
<linearGradient id="paint0_linear_687_5405" x1="3.99829" y1="36.21" x2="51.2593" y2="36.21" gradientUnits="userSpaceOnUse">
<stop stop-color="#7624FE"/>
<stop offset="1" stop-color="#368BFF"/>
</linearGradient>
<linearGradient id="paint1_linear_687_5405" x1="0" y1="11.5581" x2="54.7007" y2="11.5581" gradientUnits="userSpaceOnUse">
<stop stop-color="#7624FE"/>
<stop offset="1" stop-color="#368BFF"/>
</linearGradient>
<linearGradient id="paint2_linear_687_5405" x1="34.0001" y1="33.6921" x2="37.9383" y2="33.6921" gradientUnits="userSpaceOnUse">
<stop stop-color="#7624FE"/>
<stop offset="1" stop-color="#368BFF"/>
</linearGradient>
<linearGradient id="paint3_linear_687_5405" x1="18" y1="33.6921" x2="21.9381" y2="33.6921" gradientUnits="userSpaceOnUse">
<stop stop-color="#7624FE"/>
<stop offset="1" stop-color="#368BFF"/>
</linearGradient>
<linearGradient id="paint4_linear_687_5405" x1="18" y1="3.00901" x2="37.6907" y2="3.00901" gradientUnits="userSpaceOnUse">
<stop stop-color="#7624FE"/>
<stop offset="1" stop-color="#368BFF"/>
</linearGradient>
</defs>
</svg>
