<svg width="60" height="64" viewBox="0 0 60 64" fill="none" xmlns="http://www.w3.org/2000/svg">
<path d="M50.1657 47.0027C47.007 43.6643 43.2007 41.0051 38.9794 39.1878C34.7581 37.3704 30.2105 36.4331 25.6146 36.4331C21.0187 36.4331 16.4711 37.3704 12.2498 39.1878C8.02853 41.0051 4.22222 43.6643 1.06359 47.0027C0.378783 47.7342 -0.0015499 48.6991 4.74733e-06 49.7011V60.0612C4.74733e-06 61.1059 0.415026 62.1079 1.15377 62.8466C1.89251 63.5853 2.89446 64.0004 3.9392 64.0004H47.2704C48.3151 64.0004 49.317 63.5853 50.0558 62.8466C50.7945 62.1079 51.2095 61.1059 51.2095 60.0612V49.7011C51.2164 48.7018 50.8433 47.7372 50.1657 47.0027ZM47.2704 60.0612H3.9392V49.6814C6.73057 46.7421 10.0908 44.4015 13.8155 42.8021C17.5401 41.2027 21.5513 40.3779 25.6048 40.3779C29.6583 40.3779 33.6694 41.2027 37.3941 42.8021C41.1187 44.4015 44.479 46.7421 47.2704 49.6814V60.0612Z" fill="url(#paint0_linear_2444_4572)"/>
<path d="M25.6049 32.4865C28.8035 32.4845 31.902 31.3705 34.3696 29.3351H33.9363C32.3385 29.3084 30.7944 28.7544 29.5441 27.7594C27.9339 28.4526 26.1679 28.7035 24.4284 28.486C22.6889 28.2686 21.039 27.5908 19.649 26.5226C18.259 25.4544 17.1794 24.0345 16.5215 22.4096C15.8637 20.7847 15.6516 19.0136 15.907 17.2793C16.1624 15.5449 16.8761 13.9102 17.9744 12.5439C19.0728 11.1776 20.5159 10.1293 22.1548 9.50714C23.7938 8.885 25.569 8.71161 27.2974 9.00488C29.0257 9.29815 30.6444 10.0475 31.9864 11.1754L33.956 7.70891C32.2132 6.38888 30.1815 5.50222 28.0286 5.1221C25.8756 4.74199 23.6631 4.87931 21.5737 5.52274C19.4843 6.16618 17.5779 7.29727 16.0117 8.82268C14.4456 10.3481 13.2646 12.2241 12.5664 14.2958C11.8681 16.3675 11.6725 18.5756 11.9958 20.7379C12.319 22.9001 13.1519 24.9544 14.4255 26.7314C15.6992 28.5083 17.3771 29.9569 19.3209 30.9575C21.2647 31.9582 23.4186 32.4822 25.6049 32.4865Z" fill="url(#paint1_linear_2444_4572)"/>
<path d="M43.0357 1.24864L31.7696 20.6689C31.5075 21.0536 31.357 21.5034 31.3349 21.9684C31.3127 22.4334 31.4198 22.8954 31.6441 23.3033C31.8684 23.7112 32.2013 24.049 32.6059 24.2793C33.0105 24.5096 33.4709 24.6234 33.9362 24.6081H56.4881C56.9533 24.6234 57.4138 24.5096 57.8183 24.2793C58.2229 24.049 58.5558 23.7112 58.7802 23.3033C59.0045 22.8954 59.1115 22.4334 59.0894 21.9684C59.0672 21.5034 58.9167 21.0536 58.6546 20.6689L47.3885 1.24864C47.1664 0.868612 46.8485 0.553389 46.4667 0.334327C46.0849 0.115265 45.6523 0 45.2121 0C44.7719 0 44.3394 0.115265 43.9576 0.334327C43.5757 0.553389 43.2579 0.868612 43.0357 1.24864Z" fill="url(#paint2_linear_2444_4572)"/>
<defs>
<linearGradient id="paint0_linear_2444_4572" x1="0" y1="47.1779" x2="50.4176" y2="47.1779" gradientUnits="userSpaceOnUse">
<stop stop-color="#7624FE"/>
<stop offset="1" stop-color="#368BFF"/>
</linearGradient>
<linearGradient id="paint1_linear_2444_4572" x1="11.8442" y1="15.6597" x2="34.0212" y2="15.6597" gradientUnits="userSpaceOnUse">
<stop stop-color="#7624FE"/>
<stop offset="1" stop-color="#368BFF"/>
</linearGradient>
<linearGradient id="paint2_linear_2444_4572" x1="31.332" y1="9.59198" x2="58.6629" y2="9.59198" gradientUnits="userSpaceOnUse">
<stop stop-color="#7624FE"/>
<stop offset="1" stop-color="#368BFF"/>
</linearGradient>
</defs>
</svg>
