<svg width="22" height="16" viewBox="0 0 22 16" fill="none" xmlns="http://www.w3.org/2000/svg">
<path d="M21.3333 2.89333C21.3353 2.6311 21.264 2.37354 21.1273 2.14972C20.9907 1.9259 20.7942 1.74473 20.56 1.62667C20.338 1.50748 20.0869 1.45361 19.8355 1.47131C19.5842 1.48901 19.3431 1.57754 19.14 1.72667L16 3.73333V1.33333C16 0.979711 15.8595 0.640573 15.6095 0.390524C15.3594 0.140476 15.0203 0 14.6667 0H2.66667C1.95942 0 1.28115 0.280951 0.781049 0.781048C0.280952 1.28115 0 1.95942 0 2.66667V13.3333C0 14.0406 0.280952 14.7189 0.781049 15.219C1.28115 15.719 1.95942 16 2.66667 16H14.6667C15.0203 16 15.3594 15.8595 15.6095 15.6095C15.8595 15.3594 16 15.0203 16 14.6667V12.2667L19.0933 14.2667C19.3003 14.4251 19.5478 14.5217 19.8074 14.5453C20.067 14.5689 20.3279 14.5185 20.56 14.4C20.7983 14.28 20.9975 14.0946 21.1345 13.8656C21.2714 13.6366 21.3404 13.3734 21.3333 13.1067V2.89333ZM19.9533 13.18C19.9133 13.18 19.88 13.18 19.8267 13.14L14.6667 9.84667V14.6667H2.66667C2.31304 14.6667 1.97391 14.5262 1.72386 14.2761C1.47381 14.0261 1.33333 13.687 1.33333 13.3333V2.66667C1.33333 2.31304 1.47381 1.97391 1.72386 1.72386C1.97391 1.47381 2.31304 1.33333 2.66667 1.33333H14.6667V6.15333L19.8667 2.82C19.8792 2.81079 19.8944 2.80583 19.91 2.80583C19.9256 2.80583 19.9408 2.81079 19.9533 2.82C19.9679 2.82565 19.9803 2.83581 19.9887 2.84901C19.9971 2.8622 20.0011 2.87773 20 2.89333V13.1067C20.0011 13.1223 19.9971 13.1378 19.9887 13.151C19.9803 13.1642 19.9679 13.1743 19.9533 13.18Z" fill="url(#paint0_linear_226_3089)"/>
<defs>
<linearGradient id="paint0_linear_226_3089" x1="-7.91706e-08" y1="8.14286" x2="21.5005" y2="8.14286" gradientUnits="userSpaceOnUse">
<stop stop-color="#7624FE"/>
<stop offset="1" stop-color="#368BFF"/>
</linearGradient>
</defs>
</svg>
