<svg width="16" height="14" viewBox="0 0 16 14" fill="none" xmlns="http://www.w3.org/2000/svg">
<path d="M6.40667 0.197071L0 6.63707L6.40667 13.0771C6.46453 13.1531 6.53804 13.2157 6.62222 13.2608C6.70641 13.3059 6.7993 13.3324 6.89461 13.3385C6.98992 13.3446 7.08542 13.3301 7.17466 13.2961C7.26389 13.262 7.34477 13.2092 7.41182 13.1412C7.47887 13.0732 7.53052 12.9916 7.56328 12.9019C7.59604 12.8121 7.60914 12.7164 7.6017 12.6212C7.59426 12.526 7.56644 12.4335 7.52014 12.35C7.47384 12.2664 7.41013 12.1938 7.33333 12.1371L2.54 7.30374L15.2933 7.30374C15.4701 7.30374 15.6397 7.2335 15.7647 7.10848C15.8898 6.98345 15.96 6.81388 15.96 6.63707C15.96 6.46026 15.8898 6.29069 15.7647 6.16567C15.6397 6.04064 15.4701 5.9704 15.2933 5.9704L2.54 5.9704L7.33333 1.13707C7.45799 1.01153 7.52766 0.841622 7.52704 0.664713C7.52641 0.487803 7.45554 0.318388 7.33 0.193737C7.20446 0.0690851 7.03455 -0.000592232 6.85764 3.24249e-05C6.68073 0.000658035 6.51132 0.0715351 6.38667 0.197071H6.40667Z" fill="white"/>
</svg>
