<svg width="36" height="36" viewBox="0 0 36 36" fill="none" xmlns="http://www.w3.org/2000/svg">
<circle cx="18" cy="18" r="18" fill="#323B45"/>
<path d="M15.085 23.18C14.215 23.18 13.44 22.965 12.76 22.535C12.08 22.105 11.545 21.485 11.155 20.675C10.775 19.855 10.585 18.88 10.585 17.75C10.585 16.62 10.775 15.65 11.155 14.84C11.545 14.02 12.08 13.395 12.76 12.965C13.44 12.535 14.215 12.32 15.085 12.32C15.955 12.32 16.73 12.535 17.41 12.965C18.09 13.395 18.62 14.02 19 14.84C19.39 15.65 19.585 16.62 19.585 17.75C19.585 18.88 19.39 19.855 19 20.675C18.62 21.485 18.09 22.105 17.41 22.535C16.73 22.965 15.955 23.18 15.085 23.18ZM15.085 21.125C15.725 21.125 16.225 20.85 16.585 20.3C16.955 19.75 17.14 18.9 17.14 17.75C17.14 16.6 16.955 15.75 16.585 15.2C16.225 14.65 15.725 14.375 15.085 14.375C14.455 14.375 13.955 14.65 13.585 15.2C13.225 15.75 13.045 16.6 13.045 17.75C13.045 18.9 13.225 19.75 13.585 20.3C13.955 20.85 14.455 21.125 15.085 21.125ZM24.7278 12.5V23H22.2978V14.45H20.1978V12.5H24.7278Z" fill="#C4C4C4"/>
</svg>
