<svg width="36" height="36" viewBox="0 0 36 36" fill="none" xmlns="http://www.w3.org/2000/svg">
<circle cx="18" cy="18" r="18" fill="#323B45"/>
<path d="M14.085 23.18C13.215 23.18 12.44 22.965 11.76 22.535C11.08 22.105 10.545 21.485 10.155 20.675C9.775 19.855 9.585 18.88 9.585 17.75C9.585 16.62 9.775 15.65 10.155 14.84C10.545 14.02 11.08 13.395 11.76 12.965C12.44 12.535 13.215 12.32 14.085 12.32C14.955 12.32 15.73 12.535 16.41 12.965C17.09 13.395 17.62 14.02 18 14.84C18.39 15.65 18.585 16.62 18.585 17.75C18.585 18.88 18.39 19.855 18 20.675C17.62 21.485 17.09 22.105 16.41 22.535C15.73 22.965 14.955 23.18 14.085 23.18ZM14.085 21.125C14.725 21.125 15.225 20.85 15.585 20.3C15.955 19.75 16.14 18.9 16.14 17.75C16.14 16.6 15.955 15.75 15.585 15.2C15.225 14.65 14.725 14.375 14.085 14.375C13.455 14.375 12.955 14.65 12.585 15.2C12.225 15.75 12.045 16.6 12.045 17.75C12.045 18.9 12.225 19.75 12.585 20.3C12.955 20.85 13.455 21.125 14.085 21.125ZM27.5228 21.02V23H19.5878V21.425L23.6378 17.6C24.0678 17.19 24.3578 16.84 24.5078 16.55C24.6578 16.25 24.7328 15.955 24.7328 15.665C24.7328 15.245 24.5878 14.925 24.2978 14.705C24.0178 14.475 23.6028 14.36 23.0528 14.36C22.5928 14.36 22.1778 14.45 21.8078 14.63C21.4378 14.8 21.1278 15.06 20.8778 15.41L19.1078 14.27C19.5178 13.66 20.0828 13.185 20.8028 12.845C21.5228 12.495 22.3478 12.32 23.2778 12.32C24.0578 12.32 24.7378 12.45 25.3178 12.71C25.9078 12.96 26.3628 13.32 26.6828 13.79C27.0128 14.25 27.1778 14.795 27.1778 15.425C27.1778 15.995 27.0578 16.53 26.8178 17.03C26.5778 17.53 26.1128 18.1 25.4228 18.74L23.0078 21.02H27.5228Z" fill="#C4C4C4"/>
</svg>
