<svg width="36" height="36" viewBox="0 0 36 36" fill="none" xmlns="http://www.w3.org/2000/svg">
<circle cx="18" cy="18" r="18" fill="#323B45"/>
<path d="M14.085 23.18C13.215 23.18 12.44 22.965 11.76 22.535C11.08 22.105 10.545 21.485 10.155 20.675C9.775 19.855 9.585 18.88 9.585 17.75C9.585 16.62 9.775 15.65 10.155 14.84C10.545 14.02 11.08 13.395 11.76 12.965C12.44 12.535 13.215 12.32 14.085 12.32C14.955 12.32 15.73 12.535 16.41 12.965C17.09 13.395 17.62 14.02 18 14.84C18.39 15.65 18.585 16.62 18.585 17.75C18.585 18.88 18.39 19.855 18 20.675C17.62 21.485 17.09 22.105 16.41 22.535C15.73 22.965 14.955 23.18 14.085 23.18ZM14.085 21.125C14.725 21.125 15.225 20.85 15.585 20.3C15.955 19.75 16.14 18.9 16.14 17.75C16.14 16.6 15.955 15.75 15.585 15.2C15.225 14.65 14.725 14.375 14.085 14.375C13.455 14.375 12.955 14.65 12.585 15.2C12.225 15.75 12.045 16.6 12.045 17.75C12.045 18.9 12.225 19.75 12.585 20.3C12.955 20.85 13.455 21.125 14.085 21.125ZM24.5242 16.775C25.4442 16.925 26.1492 17.27 26.6392 17.81C27.1292 18.34 27.3742 19 27.3742 19.79C27.3742 20.4 27.2142 20.965 26.8942 21.485C26.5742 21.995 26.0842 22.405 25.4242 22.715C24.7742 23.025 23.9742 23.18 23.0242 23.18C22.2842 23.18 21.5542 23.085 20.8342 22.895C20.1242 22.695 19.5192 22.415 19.0192 22.055L19.9642 20.195C20.3642 20.495 20.8242 20.73 21.3442 20.9C21.8742 21.06 22.4142 21.14 22.9642 21.14C23.5742 21.14 24.0542 21.025 24.4042 20.795C24.7542 20.555 24.9292 20.22 24.9292 19.79C24.9292 18.93 24.2742 18.5 22.9642 18.5H21.8542V16.895L24.0142 14.45H19.5442V12.5H26.8942V14.075L24.5242 16.775Z" fill="#C4C4C4"/>
</svg>
