<svg width="36" height="36" viewBox="0 0 36 36" fill="none" xmlns="http://www.w3.org/2000/svg">
<circle cx="18" cy="18" r="18" fill="#C4C4C4"/>
<path d="M15.34 17.585H17.56V21.845C16.99 22.275 16.33 22.605 15.58 22.835C14.83 23.065 14.075 23.18 13.315 23.18C12.225 23.18 11.245 22.95 10.375 22.49C9.505 22.02 8.82 21.375 8.32 20.555C7.83 19.725 7.585 18.79 7.585 17.75C7.585 16.71 7.83 15.78 8.32 14.96C8.82 14.13 9.51 13.485 10.39 13.025C11.27 12.555 12.26 12.32 13.36 12.32C14.28 12.32 15.115 12.475 15.865 12.785C16.615 13.095 17.245 13.545 17.755 14.135L16.195 15.575C15.445 14.785 14.54 14.39 13.48 14.39C12.81 14.39 12.215 14.53 11.695 14.81C11.175 15.09 10.77 15.485 10.48 15.995C10.19 16.505 10.045 17.09 10.045 17.75C10.045 18.4 10.19 18.98 10.48 19.49C10.77 20 11.17 20.4 11.68 20.69C12.2 20.97 12.79 21.11 13.45 21.11C14.15 21.11 14.78 20.96 15.34 20.66V17.585ZM27.9473 21.05V23H19.8173V12.5H27.7523V14.45H22.2323V16.73H27.1073V18.62H22.2323V21.05H27.9473Z" fill="#161C24"/>
</svg>
