<svg width="164" height="146" viewBox="0 0 164 146" fill="none" xmlns="http://www.w3.org/2000/svg">
<path d="M159.497 90.9614L159.506 90.9666L159.515 90.9717C159.907 91.192 160.234 91.5125 160.461 91.9004C160.689 92.2883 160.809 92.7297 160.81 93.1793V124.983C160.806 125.424 160.687 125.856 160.466 126.237C160.244 126.619 159.926 126.936 159.544 127.157C159.543 127.158 159.542 127.159 159.541 127.159L131.76 143.063L131.742 143.074L131.724 143.084C131.359 143.301 130.945 143.423 130.52 143.438C130.088 143.427 129.664 143.305 129.292 143.084L129.274 143.073L129.255 143.063L104.016 128.633L102.744 127.906L101.473 128.633L76.2332 143.063L76.2238 143.068C75.838 143.291 75.4004 143.408 74.955 143.408C74.5096 143.408 74.072 143.291 73.6862 143.068L73.6781 143.063L45.8968 127.159C45.8958 127.159 45.8947 127.158 45.8936 127.157C45.5115 126.936 45.1938 126.619 44.9718 126.237C44.7503 125.856 44.6319 125.424 44.6281 124.983L44.6281 93.1749L44.6281 93.1648C44.6263 92.7176 44.7427 92.2779 44.9655 91.8903C45.1879 91.5033 45.5083 91.1819 45.8945 90.9584C45.8953 90.958 45.8961 90.9575 45.8969 90.9571L71.0783 76.5313L72.3664 75.7933V74.3088V45.4512C72.3675 45.0022 72.4878 44.5615 72.7148 44.1741C72.9422 43.7862 73.2686 43.4657 73.6606 43.2454L73.6702 43.24L73.6798 43.2345L101.418 27.3257L101.425 27.322C101.81 27.0993 102.248 26.9821 102.693 26.9821C103.139 26.9821 103.576 27.0993 103.962 27.322L103.968 27.3257L131.707 43.2345L131.716 43.24L131.726 43.2454C132.118 43.4657 132.444 43.7862 132.672 44.1741C132.899 44.562 133.019 45.0034 133.02 45.4531V74.3088V75.7933L134.308 76.5313L159.497 90.9614ZM103.967 33.1813L102.693 32.4515L101.42 33.1813L78.7295 46.1837L77.4416 46.9217V48.406V75.3795V76.8479L78.7086 77.5899L101.348 90.8472L102.63 91.5976L103.917 90.8583L126.659 77.805L127.945 77.0666V75.5835V48.406V46.9217L126.657 46.1837L103.967 33.1813ZM73.6321 137.21L74.903 137.937L76.1743 137.211L99.8335 123.698L101.125 122.961V121.474V95.4185V93.9482L99.8551 93.2067L77.4196 80.1024L76.1404 79.3552L74.8549 80.0914L50.9918 93.7566L49.7032 94.4945V95.9794V122.035V123.521L50.9927 124.258L73.6321 137.21ZM154.241 124.258L155.531 123.521V122.035V95.9794V94.4945L154.242 93.7566L130.736 80.2954L129.459 79.5642L128.184 80.2988L105.443 93.4031L104.16 94.1422V95.6224V121.474V122.959L105.449 123.697L129.057 137.209L130.329 137.938L131.602 137.21L154.241 124.258Z" stroke="url(#paint0_linear_1508_4039)" stroke-width="5.12281"/>
<path d="M22.9571 80.1735V80.1304L22.9557 80.0873C22.9402 79.6274 23.0501 79.1719 23.2736 78.7696C23.4964 78.3684 23.8238 78.0353 24.221 77.8055C24.2221 77.8048 24.2233 77.8042 24.2244 77.8035L49.4563 63.378L50.7465 62.6404V61.1544L50.7465 32.4472L50.7464 32.437C50.7447 31.9899 50.8611 31.5502 51.0839 31.1625L48.8631 29.8862L51.0839 31.1625C51.3064 30.7754 51.6271 30.4538 52.0136 30.2303C52.0141 30.23 52.0147 30.2297 52.0152 30.2294L78.5783 14.9339L78.5841 14.9306C78.8737 14.7628 79.1937 14.654 79.5255 14.6104C79.8574 14.5668 80.1946 14.5892 80.5177 14.6765C80.8408 14.7638 81.1435 14.9141 81.4083 15.1189C81.6731 15.3236 81.8948 15.5787 82.0605 15.8695L82.0631 15.8739C82.2298 16.165 82.3372 16.4863 82.3789 16.8193C82.4207 17.1522 82.396 17.49 82.3063 17.8133L84.7746 18.4979L82.3063 17.8133C82.2167 18.1367 82.0638 18.439 81.8565 18.7028C81.6492 18.9666 81.3917 19.1867 81.0988 19.3504L81.089 19.3558L81.0793 19.3613L57.1142 33.0266L55.8216 33.7636V35.2516V64.1073C55.8208 64.557 55.7006 64.9984 55.4732 65.3863C55.2458 65.7742 54.9194 66.0947 54.5274 66.315L54.5132 66.323L54.4991 66.3312L29.3103 80.9142L28.0322 81.6541V83.1309V113.47C28.0322 114.143 27.7649 114.788 27.289 115.264C26.8131 115.74 26.1677 116.007 25.4947 116.007C24.8217 116.007 24.1762 115.74 23.7003 115.264C23.2245 114.788 22.9571 114.143 22.9571 113.47V80.1735Z" stroke="url(#paint1_linear_1508_4039)" stroke-width="5.12281"/>
<path d="M29.3093 51.4498L30.6057 50.7134V49.2226V20.3716C30.6094 19.9309 30.7279 19.4988 30.9494 19.1178C31.1712 18.7363 31.4887 18.4192 31.8705 18.1979C31.8718 18.1971 31.8731 18.1964 31.8744 18.1956L58.6341 2.90437L58.6396 2.90121C59.2272 2.56354 59.9248 2.47311 60.579 2.64979C61.2332 2.82648 61.7905 3.25582 62.1281 3.84336C62.4658 4.4309 62.5562 5.12851 62.3796 5.78273L64.8524 6.45057L62.3795 5.78274C62.2037 6.43379 61.7777 6.98881 61.1945 7.32695L36.7315 21.0874L35.4259 21.8218V23.3198V52.1755C35.4251 52.6252 35.3049 53.0666 35.0775 53.4545C34.8501 53.8424 34.5237 54.1629 34.1317 54.3832L34.1226 54.3883L34.1136 54.3935L8.92469 68.8236L7.63652 69.5615V71.0461V101.334C7.63652 102.007 7.36917 102.652 6.89329 103.128L8.70447 104.939L6.89328 103.128C6.41741 103.604 5.77198 103.871 5.09896 103.871C4.42595 103.871 3.78052 103.604 3.30464 103.128L1.49345 104.939L3.30463 103.128C2.82875 102.652 2.5614 102.007 2.5614 101.334V68.0978C2.56517 67.6571 2.68362 67.2251 2.90513 66.8441C3.12643 66.4634 3.44295 66.1469 3.82351 65.9257C3.82572 65.9244 3.82792 65.9231 3.83013 65.9219L29.3093 51.4498Z" stroke="url(#paint2_linear_1508_4039)" stroke-width="5.12281"/>
<defs>
<linearGradient id="paint0_linear_1508_4039" x1="1.74041" y1="103.246" x2="151.599" y2="102.898" gradientUnits="userSpaceOnUse">
<stop stop-color="#7624FE"/>
<stop offset="1" stop-color="#368BFF"/>
</linearGradient>
<linearGradient id="paint1_linear_1508_4039" x1="-1.07182" y1="81.1026" x2="78.6943" y2="80.9903" gradientUnits="userSpaceOnUse">
<stop stop-color="#7624FE"/>
<stop offset="1" stop-color="#368BFF"/>
</linearGradient>
<linearGradient id="paint2_linear_1508_4039" x1="-21.6183" y1="69.005" x2="58.7187" y2="68.8909" gradientUnits="userSpaceOnUse">
<stop stop-color="#7624FE"/>
<stop offset="1" stop-color="#368BFF"/>
</linearGradient>
</defs>
</svg>
