<svg width="131" height="155" viewBox="0 0 131 155" fill="none" xmlns="http://www.w3.org/2000/svg">
<path d="M126.831 30.0784L126.846 30.0825L126.862 30.0865L128.439 30.4859V67.5118C128.439 97.8876 113.146 118.816 97.6157 132.244C89.8463 138.961 82.0478 143.77 76.1525 146.897C73.2073 148.46 70.7466 149.597 69.0155 150.34C68.1492 150.711 67.4715 150.981 67.0123 151.154C66.8887 151.201 66.7842 151.239 66.6984 151.27H66.652L66.2382 151.416L65.5 151.677L64.7861 151.425C63.855 151.073 48.5873 145.241 33.3998 132.137C17.8628 118.731 2.5614 97.8616 2.5614 67.5118V30.4859L4.13795 30.0865L4.15137 30.0831L4.16476 30.0796C14.9096 27.2336 25.4083 23.5285 35.5594 19.0002C45.5259 14.6761 55.1472 9.59605 64.339 3.80462L64.3529 3.79585L64.3667 3.78691L65.5324 3.03135L66.7078 3.75783C66.7109 3.75977 66.7139 3.76172 66.717 3.76366C75.9054 9.55227 85.5229 14.63 95.4853 18.9526C105.619 23.4942 116.101 27.2148 126.831 30.0784ZM64.5283 146.751L65.5 147.149L66.4717 146.751C71.2931 144.774 85.6577 138.275 98.8507 125.658C112.084 113.002 124.204 94.114 124.204 67.5118V35.7443V33.8155L122.351 33.2826C112.595 30.478 103.045 27.0012 93.7699 22.877L93.7578 22.8716L93.7456 22.8664C84.4682 18.8561 75.4741 14.2199 66.8254 8.98997L65.5 8.18848L64.1746 8.98997C55.5259 14.2199 46.5318 18.8561 37.2544 22.8664L37.2422 22.8716L37.23 22.877C27.9548 27.0012 18.4051 30.478 8.64945 33.2826L6.79574 33.8155V35.7443V67.5118C6.79574 94.091 18.9168 112.979 32.1489 125.64C45.3412 138.263 59.7053 144.773 64.5283 146.751Z" stroke="url(#paint0_linear_1508_4044)" stroke-width="5.12281"/>
<path d="M100.034 52.5076L100.035 52.506C100.442 52.1109 100.988 51.8935 101.555 51.9015C102.122 51.9094 102.662 52.1422 103.057 52.5485C103.452 52.9549 103.669 53.5015 103.661 54.0681C103.653 54.6329 103.422 55.1714 103.018 55.5661C103.017 55.5674 103.016 55.5688 103.014 55.5701L53.6981 102.991L27.4864 76.7794C27.1726 76.3839 27.01 75.8883 27.0295 75.382C27.0501 74.8492 27.271 74.3437 27.6481 73.9667C28.0251 73.5896 28.5306 73.3687 29.0634 73.3482C29.5697 73.3286 30.0653 73.4912 30.4608 73.805L52.1325 95.4767L53.9167 97.2609L55.7275 95.5037L100.034 52.5076Z" stroke="url(#paint1_linear_1508_4044)" stroke-width="5.12281"/>
<defs>
<linearGradient id="paint0_linear_1508_4044" x1="-43.5494" y1="100.099" x2="118.287" y2="99.7802" gradientUnits="userSpaceOnUse">
<stop stop-color="#7624FE"/>
<stop offset="1" stop-color="#368BFF"/>
</linearGradient>
<linearGradient id="paint1_linear_1508_4044" x1="-2.71242" y1="86.45" x2="98.2882" y2="86.1146" gradientUnits="userSpaceOnUse">
<stop stop-color="#7624FE"/>
<stop offset="1" stop-color="#368BFF"/>
</linearGradient>
</defs>
</svg>
