<svg width="146" height="146" viewBox="0 0 146 146" fill="none" xmlns="http://www.w3.org/2000/svg">
<path d="M27.6171 59.8456L51.3816 36.0811C52.0836 35.3791 53.2218 35.3791 53.9238 36.0811L55.6807 37.8381C56.3827 38.5401 56.3827 39.6782 55.6807 40.3803L31.9162 64.1447C31.2142 64.8467 30.076 64.8467 29.374 64.1447L27.6171 62.3878C26.9151 61.6858 26.9151 60.5476 27.6171 59.8456Z" stroke="url(#paint0_linear_1508_3976)" stroke-width="5.12281"/>
<path d="M91.0726 71.025L92.8838 69.2138L94.6138 67.4838H89.5991L85.9942 71.0379L134.212 119.255L134.962 120.006V121.067V137.282V139.843H132.4H118.713H117.656L116.907 139.098L109.192 131.426L108.436 130.675V129.61V119.966H94.9565H92.3951V117.405V106.889H74.8614H73.8005L73.0502 106.139L61.8193 94.9081L55.7836 101.179L55.7661 101.197L55.7482 101.215C52.816 104.143 48.8412 105.788 44.697 105.788C40.5528 105.788 36.5781 104.143 33.6459 101.215L33.6362 101.205L10.7152 78.0659C10.7139 78.0646 10.7126 78.0633 10.7113 78.062C7.78519 75.1302 6.14168 71.1571 6.14168 67.0147C6.14168 62.8705 7.78663 58.8958 10.7152 55.9636L10.7163 55.9624L48.0295 18.6493L48.0306 18.6481C50.9628 15.7196 54.9376 14.0746 59.0818 14.0746C63.226 14.0746 67.2007 15.7196 70.133 18.6481L70.1431 18.6583L70.1532 18.6686L79.9624 28.688L81.7146 25.5517L72.6582 16.3436C72.6558 16.3413 72.6534 16.3389 72.6511 16.3365C69.0449 12.7352 64.1567 10.7123 59.06 10.7123C53.9599 10.7123 49.0686 12.7379 45.4618 16.3436L8.19276 53.6127C4.587 57.2195 2.5614 62.1108 2.5614 67.2109C2.5614 72.3108 4.5869 77.202 8.19249 80.8088L91.0726 71.025ZM91.0726 71.025L92.8838 72.8362L138.557 118.509V143.439H116.031L105.015 132.347V126.297V123.736H102.454H88.9306V113.22V110.659H86.3692H72.4283L63.6744 101.985L61.8632 100.191L60.0604 101.994L58.317 103.737C54.7102 107.343 49.8189 109.368 44.7188 109.368C39.6189 109.368 34.7277 107.343 31.1209 103.737C31.1208 103.737 31.1207 103.737 31.1206 103.737L8.19276 80.8091L91.0726 71.025Z" stroke="url(#paint1_linear_1508_3976)" stroke-width="5.12281"/>
<path d="M109.951 2.76342L85.0178 45.7433C84.4377 46.5947 84.1047 47.5902 84.0556 48.6193C84.0066 49.6484 84.2435 50.671 84.74 51.5737C85.2365 52.4765 85.9732 53.2241 86.8686 53.7338C87.764 54.2435 88.783 54.4953 89.8127 54.4613H139.723C140.753 54.4953 141.772 54.2435 142.667 53.7338C143.563 53.2241 144.3 52.4765 144.796 51.5737C145.293 50.671 145.529 49.6484 145.48 48.6193C145.431 47.5902 145.098 46.5947 144.518 45.7433L119.585 2.76342C119.093 1.92237 118.39 1.22473 117.545 0.739915C116.7 0.255098 115.742 0 114.768 0C113.794 0 112.837 0.255098 111.991 0.739915C111.146 1.22473 110.443 1.92237 109.951 2.76342Z" fill="url(#paint2_linear_1508_3976)"/>
<defs>
<linearGradient id="paint0_linear_1508_3976" x1="17.9099" y1="76.2021" x2="54.5566" y2="38.9059" gradientUnits="userSpaceOnUse">
<stop stop-color="#7624FE"/>
<stop offset="1" stop-color="#368BFF"/>
</linearGradient>
<linearGradient id="paint1_linear_1508_3976" x1="-46.9132" y1="97.5244" x2="127.423" y2="97.1095" gradientUnits="userSpaceOnUse">
<stop stop-color="#7624FE"/>
<stop offset="1" stop-color="#368BFF"/>
</linearGradient>
<linearGradient id="paint2_linear_1508_3976" x1="87.7281" y1="34.2588" x2="138.956" y2="34.2588" gradientUnits="userSpaceOnUse">
<stop stop-color="#7624FE"/>
<stop offset="1" stop-color="#368BFF"/>
</linearGradient>
</defs>
</svg>
