<svg width="36" height="36" viewBox="0 0 36 36" fill="none" xmlns="http://www.w3.org/2000/svg">
<circle cx="18" cy="18" r="18" fill="#323B45"/>
<path d="M27.1667 11.9333C25.656 11.5301 24.1801 11.0062 22.7533 10.3667C21.3496 9.75774 19.9946 9.04232 18.7 8.22667L18.3333 8L17.9733 8.23333C16.6788 9.04899 15.3237 9.76441 13.92 10.3733C12.4909 11.011 11.0128 11.5326 9.5 11.9333L9 12.06V17.62C9 26.5467 18.02 29.8867 18.1067 29.92L18.3333 30L18.56 29.92C18.6533 29.92 27.6667 26.5533 27.6667 17.62V12.06L27.1667 11.9333ZM26.3333 17.62C26.3333 24.9533 19.6667 28.0267 18.3333 28.5733C17 28.0267 10.3333 24.9467 10.3333 17.62V13.0933C11.7396 12.689 13.1163 12.1878 14.4533 11.5933C15.7905 11.0153 17.0868 10.3471 18.3333 9.59333C19.5799 10.3471 20.8762 11.0153 22.2133 11.5933C23.5504 12.1878 24.927 12.689 26.3333 13.0933V17.62Z" fill="#C4C4C4"/>
<path d="M13.5866 18.2466C13.4591 18.1374 13.295 18.0804 13.1273 18.0868C12.9595 18.0933 12.8003 18.1629 12.6816 18.2816C12.5629 18.4003 12.4933 18.5595 12.4868 18.7273C12.4803 18.8951 12.5374 19.0591 12.6466 19.1866L16.6466 23.1866L23.9333 16.18C24.0606 16.0562 24.1335 15.8869 24.136 15.7094C24.1385 15.5319 24.0704 15.3606 23.9466 15.2333C23.8229 15.106 23.6536 15.0331 23.4761 15.0306C23.2985 15.0281 23.1273 15.0962 23 15.22L16.6866 21.3466L13.5866 18.2466Z" fill="#C4C4C4"/>
</svg>
