<svg width="36" height="36" viewBox="0 0 36 36" fill="none" xmlns="http://www.w3.org/2000/svg">
<circle cx="18" cy="18" r="18" fill="#323B45"/>
<path d="M12.9999 12.1333H23.6666V13.2H12.9999V12.1333ZM12.9999 17.4666H18.3906V18.5333H12.9999V17.4666ZM23.2519 14.8H12.9999V15.8666H22.1859L23.2519 14.8ZM16.1952 26.048C16.3745 26.2536 16.6021 26.4114 16.8576 26.5073C17.113 26.6032 17.3882 26.6341 17.6586 26.5973H22.8606C22.9843 26.5973 23.103 26.5481 23.1906 26.4606C23.2781 26.3731 23.3272 26.2544 23.3272 26.1306C23.3272 26.0069 23.2781 25.8882 23.1906 25.8007C23.103 25.7131 22.9843 25.664 22.8606 25.664H17.6586C17.0512 25.6533 17.1592 25.126 17.2446 24.9626C17.3558 24.7709 17.4425 24.566 17.5026 24.3526C17.5424 24.181 17.5236 24.0009 17.4492 23.8412C17.3748 23.6814 17.249 23.5512 17.0919 23.4713C16.8395 23.3576 16.5569 23.3297 16.2872 23.392C16.0174 23.4542 15.7756 23.6032 15.5986 23.816C15.3692 24.0526 15.0506 24.4146 14.7452 24.7666C14.9339 24.0273 15.1786 23.0786 15.4186 22.1533C15.4873 21.9425 15.4736 21.7134 15.3803 21.5122C15.2869 21.3111 15.1207 21.1528 14.9152 21.0693C14.6877 20.9912 14.439 21.0024 14.2194 21.1005C13.9998 21.1986 13.8256 21.3764 13.7319 21.598C13.4439 22.152 11.1639 25.9726 11.1412 26.0113C11.1098 26.0639 11.089 26.1222 11.0801 26.1828C11.0712 26.2435 11.0744 26.3053 11.0894 26.3647C11.1043 26.4241 11.1309 26.48 11.1675 26.5292C11.204 26.5784 11.25 26.6199 11.3026 26.6513C11.4088 26.7148 11.536 26.7334 11.656 26.7032C11.776 26.6729 11.8791 26.5962 11.9426 26.49C12.0279 26.3466 13.8479 23.298 14.4219 22.28C13.9899 23.9466 13.5139 25.8013 13.4859 25.968C13.4544 26.0905 13.4638 26.22 13.5128 26.3366C13.5618 26.4533 13.6477 26.5507 13.7572 26.614C13.8793 26.6745 14.018 26.6927 14.1515 26.6656C14.285 26.6386 14.4057 26.5679 14.4946 26.4646C14.5786 26.3886 14.7359 26.208 15.1326 25.7473C15.5021 25.3126 15.8807 24.8857 16.2679 24.4666C16.4132 24.3133 16.5012 24.3813 16.4159 24.532C16.249 24.7429 16.1407 24.9942 16.1021 25.2604C16.0635 25.5266 16.0958 25.7983 16.1959 26.048H16.1952Z" fill="#C4C4C4"/>
<path d="M26.3333 21.13V28H10.3333V9.33333H26.3333V12.662L27.22 11.7753C27.3565 11.6407 27.5061 11.5201 27.6667 11.4153V8.66667C27.6667 8.48986 27.5964 8.32029 27.4714 8.19526C27.3464 8.07024 27.1768 8 27 8H9.66667C9.48986 8 9.32029 8.07024 9.19526 8.19526C9.07024 8.32029 9 8.48986 9 8.66667V28.6667C9 28.8435 9.07024 29.013 9.19526 29.1381C9.32029 29.2631 9.48986 29.3333 9.66667 29.3333H27C27.1768 29.3333 27.3464 29.2631 27.4714 29.1381C27.5964 29.013 27.6667 28.8435 27.6667 28.6667V20.9513C27.2578 21.168 26.7849 21.2314 26.3333 21.13Z" fill="#C4C4C4"/>
<path d="M30.4184 14.5742L30.0697 14.2255C30.2479 13.99 30.3382 13.6996 30.3248 13.4046C30.3114 13.1096 30.1952 12.8285 29.9964 12.6102C29.7384 12.3827 29.4009 12.2665 29.0575 12.2867C28.7141 12.3069 28.3926 12.462 28.1631 12.7182L19.8131 21.0668L19.2551 23.1615C19.2462 23.1889 19.2452 23.2182 19.252 23.2462C19.2588 23.2742 19.2732 23.2997 19.2936 23.32C19.3141 23.3403 19.3397 23.3546 19.3677 23.3612C19.3958 23.3678 19.4251 23.3665 19.4524 23.3575L21.5397 22.7928L29.3344 14.9982L29.6637 15.3282C29.6867 15.3511 29.705 15.3784 29.7174 15.4084C29.7299 15.4385 29.7363 15.4707 29.7363 15.5032C29.7363 15.5357 29.7299 15.5679 29.7174 15.5979C29.705 15.6279 29.6867 15.6552 29.6637 15.6782L26.3857 18.9562C26.2858 19.0562 26.2296 19.1919 26.2297 19.3334C26.2297 19.4749 26.286 19.6105 26.3861 19.7105C26.4862 19.8105 26.6218 19.8666 26.7633 19.8666C26.9048 19.8665 27.0404 19.8102 27.1404 19.7102L30.4184 16.4322C30.6648 16.1856 30.8032 15.8514 30.8032 15.5028C30.8032 15.1543 30.6648 14.82 30.4184 14.5735V14.5742Z" fill="#C4C4C4"/>
</svg>
