<svg width="36" height="36" viewBox="0 0 36 36" fill="none" xmlns="http://www.w3.org/2000/svg">
<circle cx="18" cy="18" r="18" fill="#323B45"/>
<path d="M8.33333 19.8226V12.936C8.33333 12.5026 9.72667 11.7093 12 11.7093C14.2733 11.7093 15.6667 12.5093 15.6667 12.936V14.1293C16.1084 14.0611 16.5535 14.0166 17 13.996V12.936C17 11.256 14.4867 10.376 12 10.376C9.51333 10.376 7 11.2626 7 12.936V19.8226C7 21.2626 8.84667 22.1093 10.9333 22.3293V20.996C9.30667 20.7826 8.33333 20.1826 8.33333 19.8226Z" fill="#C4C4C4"/>
<path d="M22.1006 20.0093C21.5339 20.676 19.8206 21.3427 17.6672 21.3427C16.7665 21.352 15.8689 21.2353 15.0006 20.996V21.9693C15.8731 22.1834 16.7688 22.2887 17.6672 22.2827C19.2121 22.3453 20.7448 21.9858 22.1006 21.2427V23.3227C21.5339 23.9893 19.8206 24.656 17.6672 24.656C16.7662 24.6632 15.8686 24.5442 15.0006 24.3027V25.276C15.8731 25.4901 16.7688 25.5953 17.6672 25.5893C19.2121 25.652 20.7448 25.2924 22.1006 24.5493V26.076C22.1006 26.7093 20.3339 27.6627 17.6672 27.6627C15.0006 27.6627 13.2339 26.7093 13.2339 26.076V17.816C13.2339 17.1827 15.0006 16.2293 17.6672 16.2293H18.1672C18.0269 15.7983 18.0085 15.3369 18.1139 14.896H17.6739C14.3872 14.896 11.9072 16.1493 11.9072 17.816V26.0227C11.9072 27.6893 14.3872 28.9427 17.6739 28.9427C20.9606 28.9427 23.4406 27.6893 23.4406 26.0227V17.9293H22.1072L22.1006 20.0093Z" fill="#C4C4C4"/>
<path d="M20.334 10.8625C19.1673 11.2825 18.334 11.9825 18.334 12.9425V13.9959H18.5007L20.334 10.8625Z" fill="#C4C4C4"/>
<path d="M28.1204 17.9293H27.0004V19.8227C27.0004 20.1827 26.0271 20.7827 24.4004 20.976V22.3093C26.4871 22.096 28.3337 21.2427 28.3337 19.8093V17.916L28.1204 17.9293Z" fill="#C4C4C4"/>
<path d="M23.5669 8.42264L19.7536 14.996C19.6649 15.1262 19.6139 15.2784 19.6064 15.4358C19.5989 15.5932 19.6352 15.7496 19.7111 15.8877C19.787 16.0257 19.8997 16.1401 20.0367 16.218C20.1736 16.296 20.3294 16.3345 20.4869 16.3293H28.1203C28.2777 16.3345 28.4336 16.296 28.5705 16.218C28.7075 16.1401 28.8201 16.0257 28.8961 15.8877C28.972 15.7496 29.0082 15.5932 29.0007 15.4358C28.9932 15.2784 28.9423 15.1262 28.8536 14.996L25.0403 8.42264C24.965 8.29401 24.8575 8.18731 24.7282 8.11316C24.599 8.03901 24.4526 8 24.3036 8C24.1546 8 24.0082 8.03901 23.8789 8.11316C23.7497 8.18731 23.6421 8.29401 23.5669 8.42264Z" fill="#C4C4C4"/>
</svg>
