<svg width="36" height="36" viewBox="0 0 36 36" fill="none" xmlns="http://www.w3.org/2000/svg">
<circle cx="18" cy="18" r="18" fill="#323B45"/>
<path d="M8 23.5999V25.5265C8 25.9173 8.16113 26.292 8.44795 26.5683C8.73477 26.8446 9.12379 26.9999 9.52941 26.9999H26.4353C26.8409 26.9999 27.2299 26.8446 27.5168 26.5683C27.8036 26.292 27.9647 25.9173 27.9647 25.5265V23.5999H8ZM26.8235 25.5265C26.8235 25.6167 26.7863 25.7032 26.7202 25.7669C26.654 25.8307 26.5642 25.8665 26.4706 25.8665H9.50588C9.41228 25.8665 9.3225 25.8307 9.25632 25.7669C9.19013 25.7032 9.15294 25.6167 9.15294 25.5265V24.4669H15.0059C15.0794 24.634 15.2022 24.7768 15.359 24.8775C15.5158 24.9782 15.6998 25.0324 15.8882 25.0335H20.0824C20.2708 25.0324 20.4548 24.9782 20.6116 24.8775C20.7684 24.7768 20.8912 24.634 20.9647 24.4669H26.8235V25.5265Z" fill="#C4C4C4"/>
<path d="M20.647 12.8333C20.6476 12.6437 20.6614 12.4544 20.6882 12.2666H10.647C10.413 12.2666 10.1886 12.3562 10.0231 12.5156C9.85761 12.675 9.76465 12.8912 9.76465 13.1166V22.4666H10.9411V13.3999H20.6882C20.6614 13.2121 20.6476 13.0228 20.647 12.8333Z" fill="#C4C4C4"/>
<path d="M25.0586 17.0832V22.4666H26.2351V16.9246C25.8521 17.0284 25.4564 17.0817 25.0586 17.0832Z" fill="#C4C4C4"/>
<path d="M21.0172 14.5332H12.1172V22.3985H13.0584V15.4399H21.576C21.3513 15.1612 21.1636 14.8566 21.0172 14.5332Z" fill="#C4C4C4"/>
<path d="M25.0584 15.6667C26.6827 15.6667 27.9995 14.3981 27.9995 12.8333C27.9995 11.2685 26.6827 10 25.0584 10C23.434 10 22.1172 11.2685 22.1172 12.8333C22.1172 14.3981 23.434 15.6667 25.0584 15.6667Z" fill="#C4C4C4"/>
</svg>
