<svg width="36" height="36" viewBox="0 0 36 36" fill="none" xmlns="http://www.w3.org/2000/svg">
<circle cx="18" cy="18" r="18" fill="#C4C4C4"/>
<path d="M22.2067 24.6667C21.9733 25.2667 21.58 25.6667 21.1333 25.6667H15.4933C15.04 25.6667 14.6533 25.2667 14.42 24.6667H7V25.8334C7.03412 26.2609 7.23503 26.6579 7.55934 26.9385C7.88365 27.2192 8.30534 27.361 8.73333 27.3334H27.9333C28.3613 27.361 28.783 27.2192 29.1073 26.9385C29.4316 26.6579 29.6325 26.2609 29.6667 25.8334V24.6667H22.2067Z" fill="#161C24"/>
<path d="M10.9992 13.9999H22.1059C21.6002 13.2025 21.332 12.2775 21.3326 11.3333H9.99923C9.72809 11.3402 9.47073 11.4542 9.28337 11.6504C9.096 11.8465 8.99385 12.1087 8.99923 12.3799V23.3333H10.9992V13.9999Z" fill="#161C24"/>
<path d="M27.666 16.1467C27.0164 16.3326 26.3346 16.3781 25.666 16.2801V23.3334H27.666V16.1467Z" fill="#161C24"/>
<path d="M26.3333 14.6667C28.1743 14.6667 29.6667 13.1743 29.6667 11.3333C29.6667 9.49238 28.1743 8 26.3333 8C24.4924 8 23 9.49238 23 11.3333C23 13.1743 24.4924 14.6667 26.3333 14.6667Z" fill="#161C24"/>
</svg>
