<svg width="36" height="36" viewBox="0 0 36 36" fill="none" xmlns="http://www.w3.org/2000/svg">
<circle cx="18" cy="18" r="18" fill="#323B45"/>
<path d="M26.3369 20.1697C26.763 20.2205 27.1734 20.3575 27.5416 20.5717H27.574C27.9565 18.8179 27.8195 16.9949 27.1789 15.3133C27.1191 15.1579 26.9984 15.0317 26.8431 14.9622C26.6878 14.8928 26.5105 14.8858 26.3498 14.9427C26.1896 15.0006 26.0594 15.1177 25.9878 15.2683C25.9162 15.419 25.909 15.591 25.9677 15.7468C26.503 17.1611 26.6306 18.6902 26.3369 20.1697ZM23.4027 24.9695C22.274 25.8827 20.9186 26.4935 19.4711 26.7411C19.386 26.7481 19.3032 26.7713 19.2274 26.8094C19.1516 26.8474 19.0842 26.8996 19.0292 26.9629C18.9742 27.0262 18.9325 27.0994 18.9066 27.1783C18.8808 27.2572 18.8712 27.3403 18.8784 27.4228C18.8856 27.5053 18.9096 27.5856 18.9488 27.6591C18.988 27.7327 19.0418 27.798 19.1071 27.8514C19.1723 27.9047 19.2478 27.9451 19.3291 27.9702C19.4105 27.9953 19.4961 28.0046 19.5812 27.9976H19.6978C21.423 27.7024 23.0354 26.9649 24.3678 25.8616V25.8176C23.9864 25.6062 23.6571 25.3168 23.4027 24.9695ZM16.4657 26.7034C15.4857 26.5261 14.5453 26.1838 13.687 25.692C13.3201 25.4816 12.9674 25.2486 12.6312 24.9946C12.3842 25.3465 12.0616 25.6422 11.6855 25.8616C12.1061 26.2058 12.5545 26.5167 13.0263 26.7914C14.0156 27.3566 15.0981 27.7519 16.226 27.9599H16.3491C16.5209 27.9749 16.6918 27.9231 16.8242 27.8159C16.9566 27.7087 17.0396 27.5548 17.0551 27.3882C17.0706 27.2216 17.0171 27.0558 16.9066 26.9274C16.7961 26.799 16.6375 26.7184 16.4657 26.7034ZM9.30194 20.3016C9.43274 20.292 9.56263 20.2731 9.69057 20.2451C9.38181 18.7637 9.50289 17.2282 10.0403 15.8096C10.0996 15.653 10.0923 15.48 10.02 15.3286C9.94775 15.1772 9.81643 15.0598 9.65495 15.0023C9.49347 14.9449 9.31506 14.9519 9.15898 15.022C9.00289 15.0921 8.8819 15.2195 8.82264 15.3761C8.18107 17.0713 8.05517 18.9096 8.45991 20.6723C8.71983 20.5084 9.00369 20.3835 9.30194 20.3016Z" fill="#C4C4C4"/>
<path d="M27.0101 21.464C26.7787 21.3213 26.5205 21.2244 26.2504 21.1791C25.9802 21.1338 25.7034 21.141 25.4361 21.2002C25.0973 21.2862 24.7857 21.4524 24.5293 21.6839L22.0227 20.2767C22.4174 19.3306 22.4538 18.2795 22.1254 17.3099C21.7969 16.3404 21.1248 15.5151 20.2285 14.9805L20.1572 14.9366C19.6739 14.6696 19.1414 14.4968 18.5898 14.4277V12.0403C19.1059 11.8906 19.5423 11.5528 19.8075 11.098C20.0936 10.6281 20.1772 10.0678 20.0402 9.53859C19.9032 9.00934 19.5566 8.55383 19.0756 8.27086C18.8412 8.13788 18.5819 8.0516 18.3127 8.01708C18.0436 7.98256 17.77 8.00049 17.5081 8.06982C17.238 8.13659 16.9844 8.25487 16.762 8.41775C16.5396 8.58062 16.3528 8.78484 16.2127 9.01847C15.9346 9.48603 15.8555 10.0403 15.9922 10.5636C16.1288 11.0868 16.4705 11.5377 16.9446 11.8205C17.0927 11.9157 17.2541 11.9897 17.4239 12.0403V14.4277C16.7716 14.5145 16.1485 14.7455 15.6027 15.1027C15.057 15.46 14.6031 15.934 14.276 16.4883C13.938 17.0552 13.7378 17.6893 13.6906 18.3426C13.6435 18.9958 13.7506 19.6508 14.004 20.2578L11.4131 21.6965C11.3215 21.6184 11.2241 21.547 11.1216 21.4829C10.8856 21.3512 10.6251 21.266 10.3551 21.232C10.0851 21.198 9.81087 21.2159 9.54802 21.2848C9.28516 21.3536 9.03887 21.472 8.8232 21.6332C8.60754 21.7944 8.42673 21.9952 8.2911 22.2242C8.0113 22.6895 7.92921 23.2422 8.06219 23.7652C8.19518 24.2882 8.53281 24.7404 9.00359 25.0262C9.32627 25.2146 9.69567 25.3145 10.0723 25.3152C10.2429 25.3164 10.4128 25.2952 10.5775 25.2524C10.8539 25.184 11.1129 25.0616 11.3389 24.8929C11.5649 24.7241 11.753 24.5124 11.8918 24.2708C12.0306 24.0292 12.1172 23.7626 12.1463 23.4874C12.1753 23.2122 12.1462 22.9342 12.0608 22.6703L14.5739 21.263C14.9114 21.6902 15.3262 22.0542 15.7981 22.3373C16.7037 22.8911 17.7929 23.0889 18.8437 22.8905C19.8944 22.692 20.8276 22.1122 21.4527 21.2693L23.9334 22.6577C23.8165 23.0862 23.8447 23.5398 24.0138 23.9515C24.1829 24.3633 24.484 24.7114 24.8726 24.9445C25.1926 25.1336 25.5601 25.2336 25.9349 25.2335C26.2972 25.2348 26.6535 25.1431 26.9675 24.9677C27.2814 24.7922 27.542 24.5393 27.7226 24.2346C27.9925 23.7722 28.069 23.2269 27.9365 22.7114C27.8039 22.1958 27.4723 21.7493 27.0101 21.464ZM10.882 23.7383C10.8173 23.8408 10.7316 23.9294 10.6302 23.9986C10.5288 24.0677 10.4139 24.116 10.2925 24.1404C10.1746 24.1732 10.0509 24.1818 9.92928 24.1656C9.8077 24.1494 9.69095 24.1087 9.58653 24.0461C9.37471 23.9186 9.22242 23.7161 9.16196 23.4816C9.1015 23.247 9.13763 22.9988 9.26268 22.7896C9.3239 22.6868 9.40597 22.597 9.50393 22.5257C9.60189 22.4545 9.71372 22.4032 9.83267 22.375C9.90436 22.3553 9.97839 22.3448 10.0529 22.3436C10.2251 22.344 10.3936 22.3919 10.5387 22.4818C10.7538 22.6062 10.9101 22.8074 10.9743 23.0422C11.0385 23.277 11.0053 23.5269 10.882 23.7383ZM17.2166 9.58389C17.2778 9.48103 17.3599 9.39126 17.4579 9.32C17.5558 9.24874 17.6677 9.19745 17.7866 9.16925C17.8583 9.14959 17.9323 9.13903 18.0068 9.13784C18.1711 9.13858 18.3321 9.18197 18.4732 9.26349C18.685 9.39097 18.8373 9.59347 18.8978 9.82805C18.9582 10.0626 18.9221 10.3108 18.797 10.52C18.7358 10.6228 18.6538 10.7126 18.5558 10.7839C18.4578 10.8551 18.346 10.9064 18.2271 10.9346C18.112 10.9648 17.9918 10.972 17.8738 10.9558C17.7558 10.9396 17.6424 10.9003 17.5405 10.8404C17.3287 10.7129 17.1764 10.5104 17.1159 10.2758C17.0554 10.0413 17.0916 9.79306 17.2166 9.58389ZM18.7776 21.7216C18.3771 21.8221 17.9598 21.8438 17.5505 21.7856C17.1411 21.7273 16.7479 21.5902 16.394 21.3824C15.6633 20.9472 15.137 20.2522 14.9276 19.4457C14.7182 18.6392 14.8423 17.7852 15.2735 17.0663C15.5514 16.602 15.9501 16.2166 16.4298 15.9487C16.9095 15.6808 17.4533 15.5397 18.0068 15.5397C18.5673 15.5384 19.1178 15.6838 19.6002 15.9606C20.3309 16.3957 20.8573 17.0908 21.0666 17.8973C21.276 18.7038 21.1519 19.5577 20.7208 20.2767C20.5128 20.6312 20.2337 20.9417 19.9 21.1899C19.5662 21.4381 19.1846 21.6189 18.7776 21.7216ZM26.7121 23.6566C26.5869 23.8645 26.382 24.0158 26.1421 24.0775C26.0266 24.1068 25.9062 24.1129 25.7882 24.0957C25.6702 24.0784 25.557 24.038 25.4556 23.977C25.2437 23.8495 25.0914 23.647 25.031 23.4125C24.9705 23.1779 25.0066 22.9297 25.1317 22.7205C25.1899 22.6091 25.272 22.511 25.3726 22.433C25.4731 22.355 25.5898 22.2988 25.7146 22.2682C25.7879 22.2619 25.8616 22.2619 25.9349 22.2682C26.0924 22.267 26.2471 22.3083 26.3818 22.3876C26.5982 22.5141 26.7543 22.7185 26.8162 22.9562C26.878 23.1938 26.8406 23.4456 26.7121 23.6566ZM11.5621 13.2968C12.49 12.2336 13.6829 11.4183 15.0273 10.9283C14.8972 10.5071 14.8597 10.0641 14.9172 9.62787C13.233 10.174 11.7331 11.1533 10.5775 12.4613C10.4633 12.5879 10.4056 12.7534 10.4171 12.9212C10.4287 13.0891 10.5085 13.2457 10.6391 13.3565C10.7696 13.4673 10.9402 13.5233 11.1133 13.5121C11.2864 13.5009 11.4478 13.4235 11.5621 13.2968Z" fill="#C4C4C4"/>
<path d="M22.3271 11.5567C23.1244 12.0207 23.8378 12.6087 24.4386 13.297C24.4939 13.3597 24.5614 13.4112 24.6372 13.4486C24.7131 13.486 24.7957 13.5086 24.8805 13.515C24.9653 13.5214 25.0506 13.5115 25.1315 13.486C25.2124 13.4604 25.2873 13.4197 25.3519 13.3661C25.4166 13.3124 25.4697 13.247 25.5083 13.1734C25.5468 13.0999 25.5701 13.0197 25.5767 12.9375C25.5833 12.8552 25.5732 12.7725 25.5468 12.694C25.5205 12.6156 25.4785 12.5429 25.4232 12.4802C24.7314 11.6842 23.9085 11.0049 22.9878 10.4698C22.3839 10.1293 21.7459 9.84932 21.0835 9.63428C21.1485 10.0674 21.1154 10.5091 20.9863 10.9285C21.4501 11.1021 21.8985 11.3122 22.3271 11.5567Z" fill="#C4C4C4"/>
</svg>
