<svg width="36" height="36" viewBox="0 0 36 36" fill="none" xmlns="http://www.w3.org/2000/svg">
<circle cx="18" cy="18" r="18" fill="#C4C4C4"/>
<path d="M12.6719 9.1333H24.6719V10.1666H12.6719V9.1333Z" fill="#161C24"/>
<path d="M25.3382 11H12.5782C12.408 10.9976 12.2402 10.9607 12.0847 10.8917C11.9291 10.8226 11.7892 10.7228 11.6734 10.5982C11.5575 10.4736 11.4681 10.3268 11.4104 10.1667C11.3528 10.0066 11.3283 9.83653 11.3382 9.66667C11.3373 9.32864 11.4649 9.00291 11.6951 8.75538C11.9253 8.50785 12.241 8.35699 12.5782 8.33333H25.3382C25.515 8.33333 25.6846 8.2631 25.8096 8.13807C25.9346 8.01305 26.0048 7.84348 26.0048 7.66667C26.0048 7.48986 25.9346 7.32029 25.8096 7.19526C25.6846 7.07024 25.515 7 25.3382 7H12.5782C11.8872 7.0242 11.2327 7.3158 10.7526 7.81329C10.2725 8.31079 10.0044 8.9753 10.0048 9.66667C9.99839 9.77546 9.99839 9.88454 10.0048 9.99333C9.99841 10.0465 9.99841 10.1002 10.0048 10.1533V25.6667C10.0044 26.358 10.2725 27.0225 10.7526 27.52C11.2327 28.0175 11.8872 28.3091 12.5782 28.3333H25.3382C25.515 28.3333 25.6846 28.2631 25.8096 28.1381C25.9346 28.013 26.0048 27.8435 26.0048 27.6667V11.7133C26.0052 11.532 25.9365 11.3572 25.8127 11.2247C25.6888 11.0922 25.5192 11.0119 25.3382 11Z" fill="#161C24"/>
</svg>
