<svg width="36" height="36" viewBox="0 0 36 36" fill="none" xmlns="http://www.w3.org/2000/svg">
<circle cx="18" cy="18" r="18" fill="#323B45"/>
<path d="M24.2204 27H12.2204C12.0436 27 11.874 27.0702 11.749 27.1953C11.6239 27.3203 11.5537 27.4899 11.5537 27.6667C11.5537 27.8435 11.6239 28.013 11.749 28.1381C11.874 28.2631 12.0436 28.3333 12.2204 28.3333H24.2204C24.3972 28.3333 24.5668 28.2631 24.6918 28.1381C24.8168 28.013 24.887 27.8435 24.887 27.6667C24.887 27.4899 24.8168 27.3203 24.6918 27.1953C24.5668 27.0702 24.3972 27 24.2204 27Z" fill="#C4C4C4"/>
<path d="M18.3333 7C15.858 7 13.484 7.98333 11.7337 9.73367C9.98333 11.484 9 13.858 9 16.3333C9 16.6333 9 16.9267 9.04667 17.22C9.21846 19.0202 9.90951 20.7317 11.0358 22.1464C12.1621 23.5612 13.6752 24.6183 15.391 25.1893C17.1069 25.7602 18.9516 25.8204 20.701 25.3625C22.4505 24.9046 24.0292 23.9484 25.2453 22.61C26.4614 21.2717 27.2626 19.6089 27.5514 17.8237C27.8401 16.0386 27.6041 14.208 26.8719 12.5545C26.1398 10.901 24.943 9.49579 23.4272 8.50971C21.9113 7.52363 20.1417 6.99914 18.3333 7ZM18.3333 8.33333C20.4413 8.33517 22.4633 9.1689 23.96 10.6533V11.32C21.3251 10.4132 18.4608 10.425 15.8333 11.3533C15.6234 11.1488 15.36 11.0078 15.0733 10.9467H14.9067C14.8267 10.6667 14.7533 10.3867 14.6933 10.1C14.6333 9.81333 14.6 9.56 14.5667 9.28667C15.724 8.66211 17.0182 8.33454 18.3333 8.33333ZM16.3333 12.2467C18.7545 11.4359 21.3784 11.4664 23.78 12.3333C23.4552 14.0271 22.7458 15.6236 21.7067 17C21.416 16.8769 21.0942 16.8474 20.786 16.9155C20.4778 16.9835 20.1984 17.1459 19.9867 17.38C19.7533 17.2467 19.52 17.1133 19.32 16.96C17.9742 16.0621 16.8503 14.8698 16.0333 13.4733C16.1654 13.3096 16.2615 13.1199 16.3155 12.9167C16.3695 12.7134 16.3801 12.501 16.3467 12.2933L16.3333 12.2467ZM13.6667 9.84667C13.6667 9.98667 13.7067 10.1333 13.7333 10.2733C13.7933 10.5667 13.8733 10.8533 13.9533 11.14C13.698 11.2912 13.4926 11.5138 13.3623 11.7803C13.232 12.0468 13.1825 12.3457 13.22 12.64C12.1677 13.3272 11.2277 14.1727 10.4333 15.1467C10.5927 14.0918 10.9615 13.0795 11.5179 12.1694C12.0743 11.2592 12.8072 10.4694 13.6733 9.84667H13.6667ZM13.6667 20.32C13.4064 20.4074 13.1738 20.5619 12.9924 20.7679C12.811 20.9739 12.6871 21.2241 12.6333 21.4933H12.2067C11.13 20.2092 10.4861 18.6181 10.3667 16.9467L10.44 16.82C11.2748 15.5256 12.3662 14.416 13.6467 13.56C13.8387 13.7605 14.0813 13.9054 14.3488 13.9793C14.6164 14.0533 14.899 14.0535 15.1667 13.98C16.0584 15.4869 17.2773 16.7742 18.7333 17.7467C19.0067 17.9267 19.2867 18.0933 19.5667 18.2533C19.5443 18.5083 19.5855 18.7649 19.6867 19C18.4666 19.9688 17.0594 20.6747 15.5533 21.0733C15.3787 20.747 15.0937 20.4934 14.7493 20.3579C14.4049 20.2223 14.0235 20.2136 13.6733 20.3333L13.6667 20.32ZM18.3333 24.32C16.9775 24.3204 15.6441 23.9738 14.46 23.3133L14.6467 23.2733C14.912 23.1863 15.149 23.0296 15.3331 22.8197C15.5172 22.6098 15.6416 22.3544 15.6933 22.08C17.398 21.6453 18.9894 20.8496 20.36 19.7467C20.6856 19.9369 21.07 20 21.4393 19.9237C21.8086 19.8473 22.1365 19.6371 22.36 19.3333C23.3006 19.5779 24.2682 19.7033 25.24 19.7067H25.5933C24.9502 21.0897 23.925 22.2601 22.6387 23.0798C21.3524 23.8996 19.8586 24.3345 18.3333 24.3333V24.32ZM22.6733 18.3867C22.6727 18.1073 22.5967 17.8332 22.4533 17.5933C23.5628 16.1441 24.3349 14.4655 24.7133 12.68C25.0467 12.8356 25.3756 13.0089 25.7 13.2C26.4332 14.9326 26.5324 16.8682 25.98 18.6667C24.8732 18.7523 23.7598 18.6645 22.68 18.4067L22.6733 18.3867Z" fill="#C4C4C4"/>
</svg>
