<svg width="36" height="36" viewBox="0 0 36 36" fill="none" xmlns="http://www.w3.org/2000/svg">
<circle cx="18" cy="18" r="18" fill="#C4C4C4"/>
<path d="M24.2194 27H12.2194C12.0426 27 11.873 27.0702 11.748 27.1953C11.623 27.3203 11.5527 27.4899 11.5527 27.6667C11.5527 27.8435 11.623 28.013 11.748 28.1381C11.873 28.2631 12.0426 28.3333 12.2194 28.3333H24.2194C24.3962 28.3333 24.5658 28.2631 24.6908 28.1381C24.8158 28.013 24.8861 27.8435 24.8861 27.6667C24.8861 27.4899 24.8158 27.3203 24.6908 27.1953C24.5658 27.0702 24.3962 27 24.2194 27Z" fill="#161C24"/>
<path d="M18.3333 7C15.858 7 13.484 7.98333 11.7337 9.73367C9.98333 11.484 9 13.858 9 16.3333C9 16.6333 9 16.9267 9.04667 17.22C9.21846 19.0202 9.90951 20.7317 11.0358 22.1464C12.1621 23.5612 13.6752 24.6183 15.391 25.1893C17.1069 25.7602 18.9516 25.8204 20.701 25.3625C22.4505 24.9046 24.0292 23.9484 25.2453 22.61C26.4614 21.2717 27.2626 19.6089 27.5514 17.8237C27.8401 16.0386 27.6041 14.208 26.8719 12.5545C26.1398 10.901 24.943 9.49579 23.4272 8.50971C21.9113 7.52363 20.1417 6.99914 18.3333 7ZM25.2333 19.7267C24.2615 19.7233 23.2939 19.5979 22.3533 19.3533C22.1299 19.6571 21.8019 19.8673 21.4326 19.9437C21.0633 20.02 20.6789 19.9569 20.3533 19.7667C18.9828 20.8696 17.3913 21.6653 15.6867 22.1C15.635 22.3744 15.5106 22.6298 15.3265 22.8397C15.1424 23.0496 14.9053 23.2063 14.64 23.2933L14.4467 23.3333C13.5842 22.8565 12.8178 22.2235 12.1867 21.4667H12.6267C12.6904 21.1492 12.8518 20.8596 13.0882 20.6384C13.3246 20.4171 13.6242 20.2753 13.9452 20.2327C14.2662 20.1901 14.5925 20.2489 14.8784 20.4008C15.1643 20.5527 15.3956 20.7902 15.54 21.08C17.0513 20.6811 18.4633 19.9728 19.6867 19C19.5799 18.7548 19.5385 18.486 19.5667 18.22C19.2867 18.06 19.0067 17.8933 18.7333 17.7133C17.281 16.7504 16.0623 15.4748 15.1667 13.98C14.899 14.0535 14.6164 14.0533 14.3488 13.9793C14.0813 13.9054 13.8387 13.7605 13.6467 13.56C12.4066 14.4684 11.2866 15.5302 10.3133 16.72V16.34C10.3166 15.9538 10.3478 15.5684 10.4067 15.1867C11.2063 14.2053 12.1504 13.3511 13.2067 12.6533C13.1692 12.359 13.2186 12.0602 13.3489 11.7936C13.4792 11.5271 13.6847 11.3045 13.94 11.1533C13.86 10.8667 13.78 10.58 13.72 10.2867C13.72 10.1933 13.72 10.0933 13.6467 9.86C13.9377 9.64628 14.2428 9.4525 14.56 9.28C14.6267 9.67333 14.6533 9.88 14.7 10.0867C14.7467 10.2933 14.8333 10.6533 14.9133 10.9333H15.08C15.3657 10.9994 15.6269 11.145 15.8333 11.3533C18.4431 10.433 21.2864 10.4165 23.9067 11.3067V10.64C24.6509 11.3733 25.2443 12.2453 25.6533 13.2067C25.3289 13.0156 25 12.8422 24.6667 12.6867C24.2882 14.4722 23.5162 16.1508 22.4067 17.6C22.55 17.8398 22.626 18.1139 22.6267 18.3933C23.7227 18.6202 24.8411 18.7209 25.96 18.6933C25.8482 19.0423 25.7123 19.3832 25.5533 19.7133L25.2333 19.7267Z" fill="#161C24"/>
<path d="M16.3133 12.2466C16.3468 12.4542 16.3361 12.6666 16.2822 12.8699C16.2282 13.0732 16.132 13.2629 16 13.4266C16.817 14.823 17.9409 16.0153 19.2867 16.9132C19.5133 17.0666 19.7467 17.1999 19.9533 17.3332C20.1651 17.0992 20.4445 16.9368 20.7527 16.8687C21.0609 16.8006 21.3827 16.8301 21.6733 16.9532C22.7125 15.5769 23.4218 13.9803 23.7467 12.2866C21.3439 11.4379 18.7251 11.4238 16.3133 12.2466Z" fill="#161C24"/>
</svg>
