<svg width="36" height="36" viewBox="0 0 36 36" fill="none" xmlns="http://www.w3.org/2000/svg">
<circle cx="18" cy="18" r="18" fill="#323B45"/>
<path d="M27.0176 15.1942C26.6556 15.3814 26.2703 15.5181 25.8722 15.6004C26.0733 16.2264 26.1776 16.8804 26.1813 17.5389C26.1675 18.4836 25.9605 19.4151 25.5734 20.2743C25.1864 21.1335 24.6277 21.9016 23.9329 22.5299C23.8719 22.5873 23.8233 22.6568 23.7899 22.7341C23.7565 22.8114 23.7392 22.8948 23.7389 22.9792V26.2655L21.0845 24.5485C21.0104 24.501 20.9271 24.4703 20.8403 24.4586C20.7534 24.4469 20.6651 24.4545 20.5814 24.4808C19.6474 24.7754 18.6748 24.9248 17.6967 24.9239C13.018 24.9239 9.21209 21.613 9.21209 17.5389C9.21209 13.4649 13.018 10.1539 17.6967 10.1539C18.6303 10.1538 19.5591 10.2906 20.4542 10.5601C20.492 10.1515 20.5837 9.74996 20.7269 9.3662C19.7424 9.07459 18.7222 8.92542 17.6967 8.9231C12.3514 8.9231 8 12.7879 8 17.5389C8 22.2899 12.3514 26.1547 17.6967 26.1547C18.6967 26.1536 19.6919 26.0128 20.6542 25.7363L24.0056 27.9025C24.0971 27.9621 24.2027 27.9957 24.3113 27.9996C24.4199 28.0035 24.5276 27.9777 24.6231 27.9248C24.7185 27.872 24.7982 27.794 24.8537 27.6991C24.9093 27.6043 24.9387 27.496 24.9389 27.3856V23.2438C25.6972 22.5051 26.3023 21.6199 26.7186 20.6401C27.135 19.6604 27.3541 18.6059 27.3631 17.5389C27.3697 16.7438 27.2531 15.9525 27.0176 15.1942Z" fill="#C4C4C4"/>
<path d="M13.4547 16.9233C13.2939 16.9233 13.1398 16.9882 13.0261 17.1036C12.9125 17.219 12.8486 17.3755 12.8486 17.5388C12.8486 17.702 12.9125 17.8585 13.0261 17.9739C13.1398 18.0893 13.2939 18.1542 13.4547 18.1542H21.9393C22.1 18.1542 22.2542 18.0893 22.3678 17.9739C22.4815 17.8585 22.5453 17.702 22.5453 17.5388C22.5453 17.3755 22.4815 17.219 22.3678 17.1036C22.2542 16.9882 22.1 16.9233 21.9393 16.9233H13.4547Z" fill="#C4C4C4"/>
<path d="M15.4244 20.0007C15.2637 20.0007 15.1095 20.0656 14.9959 20.181C14.8822 20.2964 14.8184 20.4529 14.8184 20.6161C14.8184 20.7794 14.8822 20.9359 14.9959 21.0513C15.1095 21.1667 15.2637 21.2316 15.4244 21.2316H19.9697C20.1305 21.2316 20.2846 21.1667 20.3983 21.0513C20.5119 20.9359 20.5758 20.7794 20.5758 20.6161C20.5758 20.4529 20.5119 20.2964 20.3983 20.181C20.2846 20.0656 20.1305 20.0007 19.9697 20.0007H15.4244Z" fill="#C4C4C4"/>
<path d="M13.0186 14.4619C13.0186 14.6251 13.0824 14.7816 13.1961 14.897C13.3097 15.0124 13.4639 15.0773 13.6246 15.0773H21.7698C21.8707 15.0754 21.9696 15.048 22.0575 14.9975C22.1453 14.947 22.2193 14.875 22.2728 14.788C21.9164 14.522 21.6 14.2049 21.3335 13.8464H13.6246C13.4639 13.8464 13.3097 13.9113 13.1961 14.0267C13.0824 14.1421 13.0186 14.2986 13.0186 14.4619Z" fill="#C4C4C4"/>
<path d="M24.9697 14.1542C26.6432 14.1542 27.9999 12.7765 27.9999 11.0771C27.9999 9.37766 26.6432 8 24.9697 8C23.2961 8 21.9395 9.37766 21.9395 11.0771C21.9395 12.7765 23.2961 14.1542 24.9697 14.1542Z" fill="#C4C4C4"/>
</svg>
