<svg width="36" height="36" viewBox="0 0 36 36" fill="none" xmlns="http://www.w3.org/2000/svg">
<circle cx="18" cy="18" r="18" fill="#C4C4C4"/>
<path d="M25.6667 15.3334C24.6262 15.3333 23.6119 15.0069 22.7667 14.4001C22.7194 14.5266 22.6348 14.6358 22.5241 14.7132C22.4134 14.7906 22.2817 14.8325 22.1467 14.8334H13.1867C13.0099 14.8334 12.8403 14.7632 12.7153 14.6382C12.5902 14.5131 12.52 14.3436 12.52 14.1668C12.52 13.99 12.5902 13.8204 12.7153 13.6954C12.8403 13.5703 13.0099 13.5001 13.1867 13.5001H21.8C21.255 12.8285 20.8945 12.0264 20.7542 11.1729C20.6139 10.3195 20.6987 9.44415 21 8.63343C19.9163 8.32205 18.7942 8.16495 17.6667 8.16676C11.7867 8.16676 7 12.3534 7 17.5001C7 22.6468 11.7867 26.8334 17.6667 26.8334C18.7668 26.8322 19.8615 26.6796 20.92 26.3801L24.6067 28.7268C24.7073 28.7913 24.8235 28.8277 24.943 28.8319C25.0625 28.8361 25.1809 28.8082 25.2859 28.7509C25.3909 28.6937 25.4785 28.6092 25.5396 28.5064C25.6008 28.4037 25.6331 28.2863 25.6333 28.1668V23.6801C26.4675 22.8799 27.1332 21.9209 27.5911 20.8595C28.0491 19.7982 28.2901 18.656 28.3 17.5001C28.2971 16.5923 28.1439 15.6912 27.8467 14.8334C27.1674 15.1635 26.4219 15.3344 25.6667 15.3334ZM20.1667 21.5001H15.1667C14.9899 21.5001 14.8203 21.4299 14.6953 21.3048C14.5702 21.1798 14.5 21.0102 14.5 20.8334C14.5 20.6566 14.5702 20.487 14.6953 20.362C14.8203 20.237 14.9899 20.1668 15.1667 20.1668H20.1667C20.3435 20.1668 20.513 20.237 20.6381 20.362C20.7631 20.487 20.8333 20.6566 20.8333 20.8334C20.8333 21.0102 20.7631 21.1798 20.6381 21.3048C20.513 21.4299 20.3435 21.5001 20.1667 21.5001ZM22.3333 18.1668H13C12.8232 18.1668 12.6536 18.0965 12.5286 17.9715C12.4036 17.8465 12.3333 17.6769 12.3333 17.5001C12.3333 17.3233 12.4036 17.1537 12.5286 17.0287C12.6536 16.9037 12.8232 16.8334 13 16.8334H22.3333C22.5101 16.8334 22.6797 16.9037 22.8047 17.0287C22.9298 17.1537 23 17.3233 23 17.5001C23 17.6769 22.9298 17.8465 22.8047 17.9715C22.6797 18.0965 22.5101 18.1668 22.3333 18.1668Z" fill="#161C24"/>
<path d="M25.6673 13.6667C27.5083 13.6667 29.0007 12.1743 29.0007 10.3333C29.0007 8.49238 27.5083 7 25.6673 7C23.8264 7 22.334 8.49238 22.334 10.3333C22.334 12.1743 23.8264 13.6667 25.6673 13.6667Z" fill="#161C24"/>
</svg>
