<svg width="36" height="36" viewBox="0 0 36 36" fill="none" xmlns="http://www.w3.org/2000/svg">
<circle cx="18" cy="18" r="18" fill="#323B45"/>
<path d="M16 12.25H22V13.3333H16V12.25Z" fill="#C4C4C4"/>
<path d="M16 14.4167H22V15.5001H16V14.4167Z" fill="#C4C4C4"/>
<path d="M16 16.5835H22V17.6668H16V16.5835Z" fill="#C4C4C4"/>
<path d="M16 18.75H22V19.8333H16V18.75Z" fill="#C4C4C4"/>
<path d="M16 20.9167H22V22.0001H16V20.9167Z" fill="#C4C4C4"/>
<path d="M13.333 12.25H14.6663V13.3333H13.333V12.25Z" fill="#C4C4C4"/>
<path d="M13.333 14.4167H14.6663V15.5001H13.333V14.4167Z" fill="#C4C4C4"/>
<path d="M13.333 16.5835H14.6663V17.6668H13.333V16.5835Z" fill="#C4C4C4"/>
<path d="M13.333 18.75H14.6663V19.8333H13.333V18.75Z" fill="#C4C4C4"/>
<path d="M13.333 20.9167H14.6663V22.0001H13.333V20.9167Z" fill="#C4C4C4"/>
<path d="M24.6667 9H11.3333C10.9797 9 10.6406 9.11414 10.3905 9.3173C10.1405 9.52047 10 9.79602 10 10.0833V25.25C10 25.5373 10.1405 25.8129 10.3905 26.016C10.6406 26.2192 10.9797 26.3333 11.3333 26.3333H24.6667C25.0203 26.3333 25.3594 26.2192 25.6095 26.016C25.8595 25.8129 26 25.5373 26 25.25V10.0833C26 9.79602 25.8595 9.52047 25.6095 9.3173C25.3594 9.11414 25.0203 9 24.6667 9ZM24.6667 25.25H11.3333V10.0833H24.6667V25.25Z" fill="#C4C4C4"/>
</svg>
