<svg width="36" height="36" viewBox="0 0 36 36" fill="none" xmlns="http://www.w3.org/2000/svg">
<circle cx="18" cy="18" r="18" fill="#C4C4C4"/>
<path d="M24.6667 7H11.3333C10.9797 7 10.6406 7.14048 10.3905 7.39052C10.1405 7.64057 10 7.97971 10 8.33333V27C10 27.3536 10.1405 27.6928 10.3905 27.9428C10.6406 28.1929 10.9797 28.3333 11.3333 28.3333H24.6667C25.0203 28.3333 25.3594 28.1929 25.6095 27.9428C25.8595 27.6928 26 27.3536 26 27V8.33333C26 7.97971 25.8595 7.64057 25.6095 7.39052C25.3594 7.14048 25.0203 7 24.6667 7ZM14.6667 23H13.3333V21.6667H14.6667V23ZM14.6667 20.3333H13.3333V19H14.6667V20.3333ZM14.6667 17.6667H13.3333V16.3333H14.6667V17.6667ZM14.6667 15H13.3333V13.6667H14.6667V15ZM14.6667 12.3333H13.3333V11H14.6667V12.3333ZM22.6667 23H16V21.6667H22.6667V23ZM22.6667 20.3333H16V19H22.6667V20.3333ZM22.6667 17.6667H16V16.3333H22.6667V17.6667ZM22.6667 15H16V13.6667H22.6667V15ZM22.6667 12.3333H16V11H22.6667V12.3333Z" fill="#161C24"/>
</svg>
