<svg width="36" height="36" viewBox="0 0 36 36" fill="none" xmlns="http://www.w3.org/2000/svg">
<circle cx="18" cy="18" r="18" fill="#C4C4C4"/>
<path d="M11 18.9998V13.6665H9C8.46957 13.6665 7.96086 13.8772 7.58579 14.2523C7.21071 14.6274 7 15.1361 7 15.6665V27.6665C7.00099 27.7903 7.03644 27.9114 7.10238 28.0162C7.16832 28.121 7.26214 28.2054 7.37333 28.2598C7.48045 28.3086 7.59856 28.328 7.71565 28.3163C7.83274 28.3046 7.94465 28.2621 8.04 28.1932L11.4733 25.6665H20.4333C20.686 25.674 20.9375 25.6295 21.1723 25.5358C21.4071 25.4421 21.6201 25.3012 21.7982 25.1219C21.9764 24.9425 22.1158 24.7285 22.2078 24.493C22.2998 24.2576 22.3426 24.0058 22.3333 23.7532V22.9998H15C13.9391 22.9998 12.9217 22.5784 12.1716 21.8283C11.4214 21.0781 11 20.0607 11 18.9998Z" fill="#161C24"/>
<path d="M25.6667 15.3333C24.8959 15.3352 24.1351 15.1583 23.4442 14.8166C22.7532 14.4749 22.1509 13.9777 21.6845 13.364C21.2181 12.7503 20.9003 12.0369 20.7561 11.2797C20.6119 10.5225 20.6452 9.74217 20.8533 9H15C14.4696 9 13.9609 9.21071 13.5858 9.58579C13.2107 9.96086 13 10.4696 13 11V19C13 19.5304 13.2107 20.0391 13.5858 20.4142C13.9609 20.7893 14.4696 21 15 21H24.0333L27.22 23.4733C27.3147 23.5434 27.4263 23.5871 27.5434 23.5999C27.6605 23.6128 27.779 23.5944 27.8867 23.5467C28.0001 23.4926 28.096 23.4076 28.1632 23.3015C28.2304 23.1953 28.2663 23.0723 28.2667 22.9467V14.58C27.4865 15.067 26.5864 15.3278 25.6667 15.3333Z" fill="#161C24"/>
<path d="M25.6673 13.6667C27.5083 13.6667 29.0007 12.1743 29.0007 10.3333C29.0007 8.49238 27.5083 7 25.6673 7C23.8264 7 22.334 8.49238 22.334 10.3333C22.334 12.1743 23.8264 13.6667 25.6673 13.6667Z" fill="#161C24"/>
</svg>
