<svg width="36" height="36" viewBox="0 0 36 36" fill="none" xmlns="http://www.w3.org/2000/svg">
<circle cx="18" cy="18" r="18" fill="#323B45"/>
<path d="M20.4542 23.0713C20.4542 23.2206 20.3967 23.3638 20.2945 23.4693C20.1922 23.5749 20.0534 23.6342 19.9088 23.6342H12.2726C12.1526 23.6342 12.0381 23.7468 11.9399 23.8199L10.0909 25.3228V16.317C10.0909 16.1677 10.1483 16.0246 10.2506 15.919C10.3529 15.8134 10.4917 15.7541 10.6363 15.7541H12.7417V14.6284H10.6363C10.2023 14.6284 9.78613 14.8063 9.47927 15.123C9.1724 15.4397 9 15.8692 9 16.317V26.4485C9.00081 26.553 9.02982 26.6553 9.08377 26.7437C9.13772 26.8322 9.21448 26.9035 9.30545 26.9494C9.39309 26.9906 9.48971 27.007 9.58551 26.9971C9.68131 26.9873 9.77287 26.9514 9.85088 26.8932L12.6599 24.7599H19.9906C20.1973 24.7662 20.4031 24.7287 20.5952 24.6496C20.7873 24.5705 20.9616 24.4515 21.1073 24.3001C21.253 24.1486 21.3671 23.9679 21.4424 23.7692C21.5177 23.5704 21.5526 23.3578 21.5451 23.1445V22.5085H20.4542V23.0713Z" fill="#C4C4C4"/>
<path d="M25.3624 15.8781V21.3491L23.4534 19.8125C23.3582 19.7362 23.2412 19.6946 23.1207 19.6943H15.5445C15.3999 19.6943 15.2611 19.635 15.1588 19.5294C15.0565 19.4238 14.9991 19.2807 14.9991 19.1314V12.3771C14.9991 12.2278 15.0565 12.0846 15.1588 11.9791C15.2611 11.8735 15.3999 11.8142 15.5445 11.8142H20.1807C20.1822 11.4336 20.2335 11.0549 20.3335 10.6885H15.5445C15.1105 10.6885 14.6943 10.8664 14.3875 11.1831C14.0806 11.4997 13.9082 11.9292 13.9082 12.3771V19.1314C13.9082 19.5792 14.0806 20.0087 14.3875 20.3254C14.6943 20.6421 15.1105 20.82 15.5445 20.82H22.9352L25.5424 22.9082C25.6199 22.9673 25.7112 23.0042 25.807 23.0151C25.9028 23.026 25.9997 23.0104 26.0878 22.9701C26.1807 22.9245 26.2591 22.8527 26.3141 22.7631C26.3691 22.6735 26.3985 22.5696 26.3987 22.4635V15.3996C26.0767 15.6084 25.7278 15.7694 25.3624 15.8781Z" fill="#C4C4C4"/>
<path d="M24.2731 14.6286C25.7793 14.6286 27.0003 13.3686 27.0003 11.8143C27.0003 10.26 25.7793 9 24.2731 9C22.7669 9 21.5459 10.26 21.5459 11.8143C21.5459 13.3686 22.7669 14.6286 24.2731 14.6286Z" fill="#C4C4C4"/>
</svg>
