<svg width="36" height="36" viewBox="0 0 36 36" fill="none" xmlns="http://www.w3.org/2000/svg">
<circle cx="18" cy="18" r="18" fill="#C4C4C4"/>
<path d="M23.6667 15.4267V12.5733C23.6953 11.1279 23.1502 9.73003 22.1507 8.68552C21.1512 7.64102 19.7786 7.03498 18.3333 7C16.8881 7.03498 15.5155 7.64102 14.516 8.68552C13.5165 9.73003 12.9714 11.1279 13 12.5733V15.4267H11V26.76C11 27.1136 11.1405 27.4528 11.3905 27.7028C11.6406 27.9529 11.9797 28.0933 12.3333 28.0933H24.3333C24.687 28.0933 25.0261 27.9529 25.2761 27.7028C25.5262 27.4528 25.6667 27.1136 25.6667 26.76V15.4267H23.6667ZM19 22.2467V24.0933H17.6667V22.1867C17.3421 22.0197 17.0844 21.7467 16.9363 21.4131C16.7882 21.0795 16.7586 20.7052 16.8525 20.3525C16.9464 19.9997 17.158 19.6897 17.4524 19.4738C17.7467 19.2579 18.106 19.1492 18.4706 19.1656C18.8353 19.182 19.1834 19.3226 19.4571 19.564C19.7308 19.8055 19.9138 20.1333 19.9756 20.493C20.0374 20.8528 19.9744 21.2228 19.7969 21.5418C19.6194 21.8608 19.3383 22.1095 19 22.2467ZM22.3333 15.4267H14.3333V12.5733C14.3046 11.4815 14.7092 10.4227 15.4587 9.62818C16.2082 8.83371 17.2417 8.36819 18.3333 8.33333C19.425 8.36819 20.4585 8.83371 21.208 9.62818C21.9575 10.4227 22.3621 11.4815 22.3333 12.5733V15.4267Z" fill="#161C24"/>
</svg>
