<svg width="36" height="36" viewBox="0 0 36 36" fill="none" xmlns="http://www.w3.org/2000/svg">
<circle cx="18" cy="18" r="18" fill="#323B45"/>
<path d="M18.0572 19.3711C17.7146 19.3734 17.3827 19.4782 17.1145 19.6688C16.8463 19.8594 16.6572 20.1248 16.5774 20.4227C16.4975 20.7206 16.5316 21.0338 16.6741 21.3123C16.8166 21.5909 17.0593 21.8187 17.3635 21.9596V23.5866H18.6363V22.0108C18.9649 21.8904 19.2365 21.6718 19.4049 21.3923C19.5733 21.1129 19.628 20.7898 19.5597 20.4783C19.4913 20.1668 19.3042 19.8861 19.0302 19.6842C18.7562 19.4823 18.4123 19.3716 18.0572 19.3711Z" fill="#C4C4C4"/>
<path d="M23.0909 16.1909V13.756C23.1182 12.5226 22.5979 11.3297 21.6438 10.4383C20.6898 9.54702 19.3796 9.02985 18 9C16.6204 9.02985 15.3102 9.54702 14.3562 10.4383C13.4021 11.3297 12.8818 12.5226 12.9091 13.756V16.1909H11V25.8622C11 26.164 11.1341 26.4534 11.3728 26.6667C11.6115 26.8801 11.9352 27 12.2727 27H23.7273C24.0648 27 24.3885 26.8801 24.6272 26.6667C24.8659 26.4534 25 26.164 25 25.8622V16.1909H23.0909ZM14.1818 13.756C14.1544 12.8243 14.5406 11.9207 15.256 11.2428C15.9714 10.5648 16.958 10.1675 18 10.1378C19.042 10.1675 20.0286 10.5648 20.744 11.2428C21.4594 11.9207 21.8456 12.8243 21.8182 13.756V16.1909H14.1818V13.756ZM12.2727 25.8622V17.3287H23.7273V25.8622H12.2727Z" fill="#C4C4C4"/>
</svg>
