<svg width="36" height="36" viewBox="0 0 36 36" fill="none" xmlns="http://www.w3.org/2000/svg">
<circle cx="18" cy="18" r="18" fill="#323B45"/>
<path d="M18.5588 17.1211C19.4611 17.1223 20.3434 16.8559 21.0942 16.3555C21.845 15.8551 22.4305 15.1433 22.7766 14.31C23.1227 13.4768 23.2139 12.5597 23.0386 11.6746C22.8633 10.7895 22.4295 9.97634 21.7919 9.33792C21.1544 8.69951 20.3418 8.26455 19.4569 8.08808C18.5721 7.91161 17.6548 8.00157 16.8211 8.34657C15.9874 8.69157 15.2748 9.2761 14.7734 10.0262C14.272 10.7763 14.0044 11.6583 14.0044 12.5606C14.0044 13.769 14.484 14.9281 15.338 15.7832C16.1919 16.6383 17.3504 17.1195 18.5588 17.1211ZM18.5588 9.21655C19.2195 9.21535 19.8657 9.41024 20.4156 9.77654C20.9654 10.1428 21.3942 10.6641 21.6476 11.2743C21.901 11.8844 21.9676 12.5561 21.839 13.2041C21.7104 13.8522 21.3924 14.4475 20.9252 14.9147C20.458 15.3819 19.8627 15.6999 19.2146 15.8285C18.5666 15.9571 17.8949 15.8905 17.2848 15.6371C16.6746 15.3837 16.1534 14.9549 15.7871 14.4051C15.4207 13.8552 15.2259 13.209 15.2271 12.5483C15.2287 11.6652 15.5802 10.8187 16.2047 10.1942C16.8292 9.56972 17.6757 9.21817 18.5588 9.21655Z" fill="#C4C4C4"/>
<path d="M11.2231 26.224V22.4826C12.1669 21.492 13.3065 20.7087 14.5695 20.1825C15.8325 19.6562 17.1911 19.3986 18.5591 19.4259C20.4314 19.4007 22.2742 19.8937 23.8838 20.8503L24.7091 19.9272C22.8689 18.7681 20.7338 18.1633 18.5591 18.1849C16.9679 18.1444 15.3874 18.4554 13.9302 19.0957C12.473 19.7361 11.175 20.6901 10.1288 21.8896C10.0472 21.9946 10.0021 22.1234 10.0004 22.2564V26.224C9.99216 26.557 10.1162 26.8797 10.3453 27.1214C10.5745 27.3632 10.8901 27.5043 11.2231 27.5139H18.7975L17.636 26.2912L11.2231 26.224Z" fill="#C4C4C4"/>
<path d="M25.8957 26.2239V26.2911H23.97L22.8696 27.5138H25.8957C26.2244 27.5042 26.5363 27.3665 26.7648 27.13C26.9932 26.8935 27.1201 26.5771 27.1184 26.2483V22.7454L25.8957 24.1086V26.2239Z" fill="#C4C4C4"/>
<path d="M28.8057 18.1115C28.6848 18.0039 28.5262 17.9486 28.3646 17.9578C28.203 17.9669 28.0516 18.0398 27.9437 18.1604L20.84 26.1078L17.661 22.6904C17.6089 22.6294 17.5452 22.5792 17.4736 22.5428C17.4021 22.5064 17.324 22.4845 17.244 22.4782C17.1639 22.472 17.0835 22.4816 17.0071 22.5064C16.9308 22.5313 16.8601 22.571 16.7991 22.6231C16.7393 22.6775 16.6909 22.7432 16.6567 22.8164C16.6225 22.8896 16.6031 22.9688 16.5997 23.0495C16.5963 23.1303 16.6089 23.2109 16.6368 23.2867C16.6647 23.3625 16.7074 23.432 16.7624 23.4912L20.8522 27.8929L28.8546 18.9551C28.9566 18.8353 29.0085 18.6807 28.9994 18.5235C28.9903 18.3663 28.9209 18.2188 28.8057 18.1115Z" fill="#C4C4C4"/>
</svg>
