<svg width="36" height="36" viewBox="0 0 36 36" fill="none" xmlns="http://www.w3.org/2000/svg">
<circle cx="18" cy="18" r="18" fill="#323B45"/>
<path d="M18.0625 13.625C15.625 13.625 13.6875 15.5625 13.6875 18C13.6875 20.4375 15.625 22.375 18.0625 22.375C20.5 22.375 22.4375 20.4375 22.4375 18C22.4375 15.5625 20.5 13.625 18.0625 13.625ZM18.0625 21.125C16.3125 21.125 14.9375 19.75 14.9375 18C14.9375 16.25 16.3125 14.875 18.0625 14.875C19.8125 14.875 21.1875 16.25 21.1875 18C21.1875 19.75 19.8125 21.125 18.0625 21.125Z" fill="#C4C4C4"/>
<path d="M27.25 15.9375L25.5 15.375L25.125 14.4375L26 12.8125C26.1875 12.4375 26.125 11.9375 25.8125 11.625L24.3125 10.125C24 9.8125 23.5 9.75 23.125 9.9375L21.5 10.8125L20.5625 10.4375L20 8.6875C19.875 8.3125 19.5 8 19.0625 8H16.9375C16.5 8 16.125 8.3125 16.0625 8.75L15.5 10.5C15.125 10.5625 14.8125 10.6875 14.5 10.875L12.875 10C12.5 9.8125 12 9.875 11.6875 10.1875L10.1875 11.6875C9.875 12 9.8125 12.5 10 12.875L10.8125 14.4375C10.6875 14.75 10.5625 15.125 10.4375 15.4375L8.6875 16C8.3125 16.125 8 16.5 8 16.9375V19.0625C8 19.5 8.3125 19.875 8.75 20L10.5 20.5625L10.875 21.5L10 23.125C9.8125 23.5 9.875 24 10.1875 24.3125L11.6875 25.8125C12 26.125 12.5 26.1875 12.875 26L14.5 25.125L15.4375 25.5L16 27.3125C16.125 27.6875 16.5 28 16.9375 28H19.0625C19.5 28 19.875 27.6875 20 27.3125L20.5625 25.5L21.5 25.125L23.125 26C23.5 26.1875 24 26.125 24.3125 25.8125L25.8125 24.3125C26.125 24 26.1875 23.5 26 23.125L25.125 21.5L25.5 20.5625L27.3125 20C27.6875 19.875 28 19.5 28 19.0625V16.9375C28 16.5 27.6875 16.0625 27.25 15.9375ZM26.75 18.875L24.5 19.5625L24.4375 19.875L23.875 21.1875L23.6875 21.5L24.8125 23.5625L23.5625 24.8125L21.5 23.6875L21.1875 23.875C20.75 24.125 20.3125 24.3125 19.875 24.4375L19.5625 24.5L18.875 26.75H17.125L16.4375 24.5L16.125 24.4375L14.8125 23.875L14.5 23.6875L12.4375 24.8125L11.1875 23.5625L12.3125 21.5L12.125 21.1875C11.875 20.75 11.6875 20.3125 11.5625 19.875L11.5 19.5625L9.25 18.875V17.125L11.375 16.5L11.5 16.1875C11.625 15.6875 11.8125 15.25 12.0625 14.8125L12.25 14.5L11.1875 12.4375L12.4375 11.1875L14.4375 12.3125L14.75 12.125C15.1875 11.875 15.625 11.6875 16.125 11.5625L16.4375 11.4375L17.125 9.25H18.875L19.5625 11.4375L19.875 11.5625C20.3125 11.6875 20.75 11.875 21.1875 12.125L21.5 12.3125L23.5625 11.1875L24.8125 12.4375L23.6875 14.5L23.875 14.8125C24.125 15.25 24.3125 15.6875 24.4375 16.125L24.5 16.4375L26.75 17.125V18.875Z" fill="#C4C4C4"/>
</svg>
