<svg width="36" height="36" viewBox="0 0 36 36" fill="none" xmlns="http://www.w3.org/2000/svg">
<circle cx="18" cy="18" r="18" fill="#C4C4C4"/>
<path d="M27.7333 16.4801L25.5 15.8134C25.3456 15.2743 25.1332 14.7535 24.8667 14.2601L25.96 12.2134C26.001 12.1362 26.016 12.0478 26.0028 11.9613C25.9896 11.8748 25.9489 11.7949 25.8867 11.7334L24.2933 10.1334C24.2319 10.0712 24.1519 10.0305 24.0655 10.0173C23.979 10.0041 23.8906 10.0191 23.8133 10.0601L21.78 11.1468C21.2817 10.8672 20.7541 10.6436 20.2067 10.4801L19.54 8.27344C19.5118 8.19211 19.4585 8.12183 19.3878 8.07272C19.3172 8.0236 19.2327 7.99817 19.1467 8.0001H16.8933C16.8068 8.00051 16.7226 8.02853 16.653 8.08008C16.5835 8.13164 16.5322 8.20405 16.5067 8.28677L15.84 10.4868C15.288 10.6494 14.7558 10.873 14.2533 11.1534L12.2533 10.0734C12.1761 10.0324 12.0877 10.0174 12.0012 10.0306C11.9147 10.0438 11.8348 10.0845 11.7733 10.1468L10.1533 11.7268C10.0911 11.7882 10.0504 11.8682 10.0372 11.9546C10.024 12.0411 10.039 12.1295 10.08 12.2068L11.16 14.2068C10.88 14.7072 10.6564 15.2371 10.4933 15.7868L8.28667 16.4534C8.20395 16.479 8.13154 16.5303 8.07998 16.5998C8.02842 16.6693 8.0004 16.7535 8 16.8401V19.0934C8.0004 19.18 8.02842 19.2642 8.07998 19.3337C8.13154 19.4033 8.20395 19.4546 8.28667 19.4801L10.5067 20.1468C10.6716 20.6873 10.8951 21.2082 11.1733 21.7001L10.08 23.7934C10.039 23.8707 10.024 23.9591 10.0372 24.0456C10.0504 24.1321 10.0911 24.212 10.1533 24.2734L11.7467 25.8668C11.8081 25.929 11.8881 25.9697 11.9745 25.9829C12.061 25.9961 12.1494 25.9811 12.2267 25.9401L14.2867 24.8401C14.774 25.1031 15.288 25.3131 15.82 25.4668L16.4867 27.7134C16.5122 27.7962 16.5635 27.8686 16.633 27.9201C16.7026 27.9717 16.7868 27.9997 16.8733 28.0001H19.1267C19.2132 27.9997 19.2974 27.9717 19.367 27.9201C19.4365 27.8686 19.4878 27.7962 19.5133 27.7134L20.18 25.4601C20.7074 25.3057 21.217 25.0956 21.7 24.8334L23.7733 25.9401C23.8506 25.9811 23.939 25.9961 24.0255 25.9829C24.1119 25.9697 24.1919 25.929 24.2533 25.8668L25.8467 24.2734C25.9089 24.212 25.9496 24.1321 25.9628 24.0456C25.976 23.9591 25.961 23.8707 25.92 23.7934L24.8133 21.7268C25.0782 21.2419 25.2906 20.7301 25.4467 20.2001L27.6933 19.5334C27.7761 19.5079 27.8485 19.4566 27.9 19.3871C27.9516 19.3175 27.9796 19.2333 27.98 19.1468V16.8734C27.9839 16.7905 27.9624 16.7084 27.9183 16.6381C27.8742 16.5678 27.8097 16.5127 27.7333 16.4801ZM18.02 21.6668C17.2948 21.6668 16.5859 21.4517 15.9829 21.0488C15.3799 20.6459 14.91 20.0733 14.6324 19.4033C14.3549 18.7333 14.2823 17.996 14.4238 17.2848C14.5653 16.5735 14.9145 15.9202 15.4273 15.4074C15.9401 14.8946 16.5934 14.5454 17.3047 14.4039C18.0159 14.2624 18.7532 14.335 19.4232 14.6125C20.0932 14.8901 20.6658 15.36 21.0687 15.963C21.4716 16.566 21.6867 17.2749 21.6867 18.0001C21.6867 18.9726 21.3004 19.9052 20.6127 20.5928C19.9251 21.2805 18.9925 21.6668 18.02 21.6668Z" fill="#161C24"/>
</svg>
