<svg width="36" height="36" viewBox="0 0 36 36" fill="none" xmlns="http://www.w3.org/2000/svg">
<circle cx="18" cy="18" r="18" fill="#323B45"/>
<path d="M11.3333 10.3333H22V16.8667H23.3333V10.3333C23.3333 9.97971 23.1929 9.64057 22.9428 9.39052C22.6928 9.14048 22.3536 9 22 9H11.3333C10.9797 9 10.6406 9.14048 10.3905 9.39052C10.1405 9.64057 10 9.97971 10 10.3333V26.3333C10 26.687 10.1405 27.0261 10.3905 27.2761C10.6406 27.5262 10.9797 27.6667 11.3333 27.6667H22C22.3536 27.6667 22.6928 27.5262 22.9428 27.2761C23.1929 27.0261 23.3333 26.687 23.3333 26.3333H11.3333V10.3333Z" fill="#C4C4C4"/>
<path d="M25.4399 17.8532C25.3124 17.744 25.1483 17.6869 24.9806 17.6934C24.8128 17.6998 24.6536 17.7694 24.5349 17.8881C24.4162 18.0069 24.3466 18.166 24.3401 18.3338C24.3336 18.5016 24.3907 18.6656 24.4999 18.7932L26.7533 20.9998H17.0866C16.9098 20.9998 16.7402 21.0701 16.6152 21.1951C16.4902 21.3201 16.4199 21.4897 16.4199 21.6665C16.4199 21.8433 16.4902 22.0129 16.6152 22.1379C16.7402 22.2629 16.9098 22.3332 17.0866 22.3332H26.7533L24.4999 24.6398C24.4301 24.6996 24.3735 24.7732 24.3334 24.8559C24.2934 24.9386 24.2709 25.0287 24.2674 25.1205C24.2638 25.2123 24.2793 25.3038 24.3128 25.3894C24.3463 25.4749 24.3972 25.5526 24.4622 25.6176C24.5271 25.6826 24.6048 25.7334 24.6904 25.7669C24.7759 25.8005 24.8675 25.8159 24.9593 25.8124C25.0511 25.8088 25.1412 25.7863 25.2239 25.7463C25.3066 25.7063 25.3802 25.6496 25.4399 25.5798L29.3333 21.7132L25.4399 17.8532Z" fill="#C4C4C4"/>
</svg>
