<svg width="36" height="36" viewBox="0 0 36 36" fill="none" xmlns="http://www.w3.org/2000/svg">
<circle cx="18" cy="18" r="18" fill="#C4C4C4"/>
<path d="M23 9H12.3333C11.9797 9 11.6406 9.14048 11.3905 9.39052C11.1405 9.64057 11 9.97971 11 10.3333V26.3333C11 26.687 11.1405 27.0261 11.3905 27.2761C11.6406 27.5262 11.9797 27.6667 12.3333 27.6667H23C23.3536 27.6667 23.6928 27.5262 23.9428 27.2761C24.1929 27.0261 24.3333 26.687 24.3333 26.3333V22.3333H18.0867C17.9099 22.3333 17.7403 22.2631 17.6153 22.1381C17.4902 22.013 17.42 21.8435 17.42 21.6667C17.42 21.4899 17.4902 21.3203 17.6153 21.1953C17.7403 21.0702 17.9099 21 18.0867 21H24.3333V10.3333C24.3333 9.97971 24.1929 9.64057 23.9428 9.39052C23.6928 9.14048 23.3536 9 23 9Z" fill="#161C24"/>
<path d="M26.4397 17.8537C26.3121 17.7444 26.1481 17.6874 25.9803 17.6939C25.8125 17.7003 25.6534 17.7699 25.5346 17.8886C25.4159 18.0074 25.3463 18.1665 25.3399 18.3343C25.3334 18.5021 25.3905 18.6661 25.4997 18.7937L27.753 21.0003H24.333V22.3337H27.753L25.4997 24.6403C25.4299 24.7001 25.3732 24.7736 25.3332 24.8563C25.2932 24.9391 25.2707 25.0291 25.2671 25.121C25.2636 25.2128 25.2791 25.3043 25.3126 25.3899C25.3461 25.4754 25.3969 25.5531 25.4619 25.6181C25.5269 25.6831 25.6046 25.7339 25.6901 25.7674C25.7757 25.8009 25.8672 25.8164 25.959 25.8129C26.0509 25.8093 26.1409 25.7868 26.2237 25.7468C26.3064 25.7068 26.3799 25.6501 26.4397 25.5803L30.333 21.7137L26.4397 17.8537Z" fill="#161C24"/>
</svg>
