<svg width="36" height="36" viewBox="0 0 36 36" fill="none" xmlns="http://www.w3.org/2000/svg">
<circle cx="18" cy="18" r="18" fill="#323B45"/>
<path d="M26.75 11.5714H22.1875L21.525 9.82286C21.4344 9.58123 21.2749 9.37339 21.0674 9.22656C20.86 9.07973 20.6143 9.00077 20.3625 9H15.6375C15.3846 8.99947 15.1376 9.07783 14.9289 9.22474C14.7202 9.37166 14.5598 9.58021 14.4688 9.82286L13.8125 11.5714H9.25C8.91848 11.5714 8.60054 11.7069 8.36612 11.948C8.1317 12.1891 8 12.5162 8 12.8571V25.7143C8 26.0553 8.1317 26.3823 8.36612 26.6234C8.60054 26.8645 8.91848 27 9.25 27H26.75C27.0815 27 27.3995 26.8645 27.6339 26.6234C27.8683 26.3823 28 26.0553 28 25.7143V12.8571C28 12.5162 27.8683 12.1891 27.6339 11.948C27.3995 11.7069 27.0815 11.5714 26.75 11.5714ZM26.75 25.7143H9.25V12.8571H14.6687L15.6375 10.2857H20.3625L21.3313 12.8571H26.75V25.7143Z" fill="#C4C4C4"/>
<path d="M12.375 18.6426C12.375 19.787 12.7049 20.9056 13.323 21.857C13.9411 22.8085 14.8196 23.55 15.8474 23.9879C16.8752 24.4259 18.0062 24.5404 19.0974 24.3172C20.1885 24.0939 21.1908 23.5429 21.9775 22.7338C22.7641 21.9246 23.2999 20.8937 23.5169 19.7714C23.734 18.6491 23.6226 17.4858 23.1968 16.4286C22.7711 15.3713 22.0501 14.4677 21.1251 13.832C20.2001 13.1963 19.1125 12.8569 18 12.8569C16.5082 12.8569 15.0774 13.4665 14.0225 14.5515C12.9676 15.6366 12.375 17.1082 12.375 18.6426ZM22.625 18.6426C22.625 19.5835 22.3537 20.5033 21.8455 21.2856C21.3373 22.0679 20.615 22.6776 19.7699 23.0377C18.9248 23.3977 17.9949 23.4919 17.0977 23.3084C16.2005 23.1248 15.3764 22.6718 14.7296 22.0065C14.0828 21.3412 13.6423 20.4935 13.4639 19.5707C13.2854 18.6479 13.377 17.6914 13.7271 16.8222C14.0771 15.9529 14.6699 15.2099 15.4305 14.6872C16.1911 14.1645 17.0853 13.8855 18 13.8855C19.2261 13.8872 20.4015 14.3889 21.2685 15.2807C22.1355 16.1725 22.6233 17.3815 22.625 18.6426Z" fill="#C4C4C4"/>
<path d="M12.6064 14.6764C12.6064 14.54 12.5538 14.4092 12.46 14.3127C12.3662 14.2163 12.2391 14.1621 12.1064 14.1621H10.6064C10.4738 14.1621 10.3467 14.2163 10.2529 14.3127C10.1591 14.4092 10.1064 14.54 10.1064 14.6764C10.1064 14.8128 10.1591 14.9436 10.2529 15.04C10.3467 15.1365 10.4738 15.1907 10.6064 15.1907H12.1064C12.2391 15.1907 12.3662 15.1365 12.46 15.04C12.5538 14.9436 12.6064 14.8128 12.6064 14.6764Z" fill="#C4C4C4"/>
<path d="M14.463 18.643C14.47 19.321 14.6641 19.983 15.0225 20.552C15.381 21.121 15.8892 21.5736 16.488 21.8572L17.0192 20.9765C16.6613 20.8532 16.3352 20.6482 16.0654 20.3768C15.7955 20.1054 15.5889 19.7747 15.461 19.4095C15.3331 19.0443 15.2873 18.654 15.327 18.2679C15.3666 17.8819 15.4908 17.5101 15.6901 17.1804C15.8894 16.8507 16.1586 16.5717 16.4777 16.3644C16.7968 16.157 17.1573 16.0266 17.5324 15.983C17.9074 15.9394 18.2871 15.9837 18.6432 16.1126C18.9992 16.2415 19.3222 16.4516 19.588 16.7272L20.1255 15.8401C19.6138 15.4137 18.9949 15.1456 18.3408 15.0671C17.6867 14.9885 17.0244 15.1028 16.431 15.3965C15.8376 15.6902 15.3376 16.1513 14.9891 16.7261C14.6407 17.3009 14.4582 17.9656 14.463 18.643Z" fill="#C4C4C4"/>
</svg>
