<svg width="36" height="36" viewBox="0 0 36 36" fill="none" xmlns="http://www.w3.org/2000/svg">
<circle cx="18" cy="18" r="18" fill="#323B45"/>
<path d="M22.9359 21.4107C22.5431 21.4121 22.1547 21.4896 21.7939 21.6385C21.4332 21.7874 21.1075 22.0045 20.8365 22.277L13.7274 18.8676C13.9022 18.3593 13.9022 17.8108 13.7274 17.3025L20.8481 13.8316C21.3582 14.3467 22.0498 14.6617 22.7887 14.7153C23.5275 14.7689 24.2608 14.5573 24.8459 14.1216C25.4311 13.6859 25.8263 13.0573 25.9548 12.3579C26.0832 11.6585 25.9358 10.9383 25.5411 10.3373C25.1464 9.73633 24.5326 9.29744 23.8191 9.10598C23.1056 8.91451 22.3433 8.98415 21.6803 9.30135C21.0174 9.61855 20.5012 10.1607 20.232 10.8223C19.9629 11.484 19.9601 12.2179 20.2241 12.8814L13.1733 16.3188C12.7925 15.8725 12.277 15.55 11.6975 15.3954C11.1179 15.2409 10.5027 15.262 9.93607 15.4557C9.36948 15.6495 8.87928 16.0064 8.53267 16.4776C8.18606 16.9489 8 17.5113 8 18.0878C8 18.6644 8.18606 19.2268 8.53267 19.6981C8.87928 20.1693 9.36948 20.5262 9.93607 20.72C10.5027 20.9137 11.1179 20.9348 11.6975 20.7803C12.277 20.6257 12.7925 20.3032 13.1733 19.8569L20.2066 23.2496C20.0878 23.5554 20.0266 23.879 20.0258 24.2053C20.0258 24.7581 20.1968 25.2984 20.5172 25.758C20.8377 26.2175 21.2931 26.5757 21.8259 26.7873C22.3587 26.9988 22.945 27.0541 23.5106 26.9463C24.0763 26.8385 24.5959 26.5723 25.0037 26.1815C25.4115 25.7906 25.6892 25.2927 25.8017 24.7506C25.9142 24.2084 25.8565 23.6465 25.6358 23.1359C25.4151 22.6252 25.0413 22.1888 24.5618 21.8817C24.0823 21.5746 23.5185 21.4107 22.9418 21.4107H22.9359ZM22.9359 10.2321C23.282 10.2321 23.6202 10.3304 23.9079 10.5147C24.1957 10.6989 24.4199 10.9608 24.5523 11.2672C24.6848 11.5736 24.7194 11.9107 24.6519 12.236C24.5844 12.5613 24.4178 12.86 24.1731 13.0945C23.9284 13.329 23.6166 13.4887 23.2773 13.5534C22.9379 13.6181 22.5861 13.5849 22.2664 13.458C21.9467 13.3311 21.6735 13.1162 21.4812 12.8404C21.289 12.5647 21.1864 12.2405 21.1864 11.9089C21.1864 11.4642 21.3707 11.0377 21.6988 10.7232C22.0269 10.4087 22.4719 10.2321 22.9359 10.2321ZM10.963 19.7339C10.617 19.7339 10.2788 19.6356 9.99104 19.4513C9.70332 19.2671 9.47908 19.0052 9.34666 18.6988C9.21424 18.3924 9.17959 18.0552 9.2471 17.73C9.3146 17.4047 9.48123 17.1059 9.72592 16.8714C9.9706 16.6369 10.2823 16.4772 10.6217 16.4125C10.9611 16.3478 11.3129 16.381 11.6326 16.508C11.9523 16.6349 12.2255 16.8498 12.4178 17.1255C12.61 17.4013 12.7126 17.7255 12.7126 18.0571C12.7126 18.5018 12.5283 18.9283 12.2002 19.2428C11.8721 19.5572 11.4271 19.7339 10.963 19.7339ZM22.9359 25.8821C22.5899 25.8821 22.2516 25.7838 21.9639 25.5995C21.6762 25.4153 21.452 25.1534 21.3195 24.847C21.1871 24.5406 21.1525 24.2035 21.22 23.8782C21.2875 23.553 21.4541 23.2542 21.6988 23.0197C21.9435 22.7852 22.2552 22.6255 22.5946 22.5608C22.934 22.4961 23.2858 22.5293 23.6055 22.6562C23.9252 22.7831 24.1984 22.998 24.3907 23.2738C24.5829 23.5495 24.6855 23.8737 24.6855 24.2053C24.6855 24.6501 24.5012 25.0766 24.1731 25.391C23.845 25.7055 23.4 25.8821 22.9359 25.8821Z" fill="#C4C4C4"/>
</svg>
