<svg width="36" height="36" viewBox="0 0 36 36" fill="none" xmlns="http://www.w3.org/2000/svg">
<circle cx="18" cy="18" r="18" fill="#323B45"/>
<path d="M19.0062 17.9999L22.0437 14.9624C22.1461 14.8428 22.1996 14.689 22.1935 14.5317C22.1874 14.3744 22.1222 14.2252 22.0109 14.1139C21.8996 14.0026 21.7504 13.9374 21.5931 13.9313C21.4358 13.9252 21.282 13.9788 21.1625 14.0811L18.125 17.0874L15.0687 14.0311C14.9491 13.9288 14.7953 13.8752 14.6381 13.8813C14.4808 13.8874 14.3315 13.9526 14.2202 14.0639C14.1089 14.1752 14.0437 14.3244 14.0376 14.4817C14.0316 14.639 14.0851 14.7928 14.1875 14.9124L17.2375 17.9999L14.25 20.9499C14.1845 21.0059 14.1314 21.0749 14.0939 21.1524C14.0564 21.23 14.0353 21.3144 14.032 21.4005C14.0286 21.4866 14.0431 21.5724 14.0746 21.6526C14.106 21.7328 14.1536 21.8056 14.2146 21.8665C14.2755 21.9275 14.3483 21.9751 14.4285 22.0065C14.5087 22.038 14.5945 22.0525 14.6806 22.0491C14.7667 22.0458 14.8511 22.0247 14.9287 21.9872C15.0062 21.9497 15.0752 21.8966 15.1312 21.8311L18.1125 18.8499L21.075 21.8124C21.1945 21.9148 21.3483 21.9683 21.5056 21.9622C21.6629 21.9561 21.8121 21.8909 21.9234 21.7796C22.0347 21.6683 22.0999 21.5191 22.106 21.3618C22.1121 21.2045 22.0586 21.0507 21.9562 20.9311L19.0062 17.9999Z" fill="#C4C4C4"/>
<path d="M18 28C16.0222 28 14.0888 27.4135 12.4443 26.3147C10.7998 25.2159 9.51809 23.6541 8.76121 21.8268C8.00433 19.9996 7.8063 17.9889 8.19215 16.0491C8.578 14.1093 9.53041 12.3275 10.9289 10.9289C12.3275 9.53041 14.1093 8.578 16.0491 8.19215C17.9889 7.8063 19.9996 8.00433 21.8268 8.76121C23.6541 9.51809 25.2159 10.7998 26.3147 12.4443C27.4135 14.0888 28 16.0222 28 18C28 20.6522 26.9464 23.1957 25.0711 25.0711C23.1957 26.9464 20.6522 28 18 28ZM18 9.25C16.2694 9.25 14.5777 9.76318 13.1388 10.7246C11.6998 11.6861 10.5783 13.0527 9.91606 14.6515C9.25379 16.2504 9.08051 18.0097 9.41813 19.707C9.75575 21.4044 10.5891 22.9635 11.8128 24.1872C13.0365 25.4109 14.5956 26.2443 16.293 26.5819C17.9903 26.9195 19.7496 26.7462 21.3485 26.0839C22.9473 25.4217 24.3139 24.3002 25.2754 22.8612C26.2368 21.4223 26.75 19.7306 26.75 18C26.75 15.6794 25.8281 13.4538 24.1872 11.8128C22.5462 10.1719 20.3206 9.25 18 9.25Z" fill="#C4C4C4"/>
</svg>
