<svg width="36" height="36" viewBox="0 0 36 36" fill="none" xmlns="http://www.w3.org/2000/svg">
<circle cx="18" cy="18" r="18" fill="#323B45"/>
<path d="M12.5041 8.19163C12.5652 8.13072 12.6376 8.08245 12.7174 8.04957C12.7971 8.01669 12.8825 7.99985 12.9688 8H22.1562C22.3303 8 22.4972 8.06914 22.6203 8.19221C22.7434 8.31528 22.8125 8.4822 22.8125 8.65625C22.8125 9.54875 22.3636 10.1971 21.9646 10.5974C21.7992 10.7615 21.6365 10.8914 21.5 10.9886V16.8043L21.6024 16.8673C21.8688 17.0339 22.2271 17.2794 22.5881 17.5957C23.285 18.2047 24.125 19.1917 24.125 20.4688C24.125 20.6428 24.0559 20.8097 23.9328 20.9328C23.8097 21.0559 23.6428 21.125 23.4688 21.125H18.2188V27.0313C18.2188 27.3935 17.9247 29 17.5625 29C17.2003 29 16.9062 27.3935 16.9062 27.0313V21.125H11.6562C11.4822 21.125 11.3153 21.0559 11.1922 20.9328C11.0691 20.8097 11 20.6428 11 20.4688C11 19.1917 11.84 18.2047 12.5356 17.5957C12.8752 17.3009 13.2397 17.036 13.625 16.8043V10.9886C13.4595 10.8714 13.3041 10.7405 13.1604 10.5974C12.7614 10.1971 12.3125 9.54744 12.3125 8.65625C12.3123 8.57001 12.3292 8.48459 12.3621 8.40487C12.395 8.32514 12.4432 8.25268 12.5041 8.19163ZM14.5779 10.0396L14.5752 10.0383L14.5779 10.0396ZM14.5752 10.0383L14.5779 10.0396C14.6861 10.0944 14.7769 10.1782 14.8404 10.2815C14.9039 10.3848 14.9375 10.5037 14.9375 10.625V17.1875C14.9375 17.3093 14.9036 17.4286 14.8396 17.5323C14.7757 17.6359 14.6841 17.7196 14.5752 17.7742H14.5726L14.5569 17.7834L14.486 17.8228C14.099 18.0386 13.7353 18.2937 13.4006 18.584C12.9832 18.9489 12.6328 19.3663 12.449 19.8125H22.676C22.4922 19.3663 22.1418 18.9489 21.7244 18.584C21.3693 18.2758 20.9816 18.0073 20.5681 17.7834L20.5524 17.7755H20.5498C20.4407 17.7208 20.349 17.6369 20.285 17.533C20.221 17.4291 20.1873 17.3095 20.1875 17.1875V10.625C20.187 10.4981 20.2233 10.3738 20.292 10.2671C20.3608 10.1604 20.4589 10.0759 20.5747 10.0239C20.7425 9.92504 20.8973 9.80554 21.0354 9.66819C21.1404 9.56319 21.2388 9.44506 21.3162 9.3125H13.8087C13.8875 9.44375 13.9833 9.56319 14.0896 9.66819C14.2346 9.81228 14.3979 9.93671 14.5752 10.0383Z" fill="#C4C4C4"/>
</svg>

