<svg width="36" height="36" viewBox="0 0 36 36" fill="none" xmlns="http://www.w3.org/2000/svg">
<circle cx="18" cy="18" r="18" fill="#323B45"/>
<path d="M25 26.6689H10.3333V12.0023H19.1467L20.48 10.6689H10.3333C9.97971 10.6689 9.64057 10.8094 9.39052 11.0595C9.14048 11.3095 9 11.6487 9 12.0023V26.6689C9 27.0226 9.14048 27.3617 9.39052 27.6118C9.64057 27.8618 9.97971 28.0023 10.3333 28.0023H25C25.3536 28.0023 25.6928 27.8618 25.9428 27.6118C26.1929 27.3617 26.3333 27.0226 26.3333 26.6689V16.6689L25 18.0023V26.6689Z" fill="#C4C4C4"/>
<path d="M28.6868 10.5621L26.4401 8.31541C26.3404 8.21543 26.2219 8.13611 26.0915 8.08198C25.9611 8.02786 25.8213 8 25.6801 8C25.5389 8 25.3991 8.02786 25.2687 8.08198C25.1383 8.13611 25.0198 8.21543 24.9201 8.31541L15.7801 17.5087L15.0401 20.7154C15.0086 20.8709 15.0119 21.0313 15.0498 21.1854C15.0877 21.3394 15.1593 21.483 15.2594 21.6061C15.3595 21.7291 15.4856 21.8284 15.6286 21.8969C15.7717 21.9654 15.9282 22.0013 16.0868 22.0021C16.1687 22.0111 16.2515 22.0111 16.3334 22.0021L19.5668 21.2887L28.6868 12.0821C28.7867 11.9824 28.8661 11.8639 28.9202 11.7335C28.9743 11.6031 29.0022 11.4633 29.0022 11.3221C29.0022 11.1809 28.9743 11.0411 28.9202 10.9107C28.8661 10.7802 28.7867 10.6618 28.6868 10.5621ZM18.8734 20.0554L16.4334 20.5954L17.0001 18.1754L23.8801 11.2487L25.7601 13.1287L18.8734 20.0554ZM26.5134 12.3754L24.6334 10.4954L25.6668 9.44208L27.5601 11.3354L26.5134 12.3754Z" fill="#C4C4C4"/>
</svg>
