<svg width="37" height="36" viewBox="0 0 37 36" fill="none" xmlns="http://www.w3.org/2000/svg">
<path d="M36.0017 18.8571C36.0017 16.1486 34.5017 13.8 32.3194 12.6857C32.5834 11.94 32.7274 11.1343 32.7274 10.2857C32.7274 6.49714 29.796 3.432 26.1823 3.432C25.3766 3.432 24.6051 3.576 23.892 3.86057C22.8326 1.56857 20.5903 0 18.0017 0C15.4131 0 13.1743 1.572 12.1097 3.85714C11.3983 3.57429 10.6251 3.42857 9.81943 3.42857C6.20229 3.42857 3.27429 6.49714 3.27429 10.2857C3.27429 11.1326 3.41657 11.9383 3.68057 12.6857C1.5 13.8 0 16.1451 0 18.8571C0 21.42 1.34057 23.6537 3.32914 24.8331C3.29486 25.1246 3.27429 25.416 3.27429 25.7143C3.27429 29.5029 6.20229 32.5714 9.81943 32.5714C10.6251 32.5714 11.3966 32.424 12.108 32.1429C13.1709 34.4297 15.4097 36 18 36C20.592 36 22.8309 34.4297 23.892 32.1429C24.6034 32.4223 25.3749 32.568 26.1823 32.568C29.7994 32.568 32.7274 29.4994 32.7274 25.7109C32.7274 25.4126 32.7069 25.1211 32.6709 24.8314C34.656 23.6537 36.0017 21.42 36.0017 18.8589V18.8571Z" fill="#FBD914"/>
<path d="M18.1053 12.0002C17.548 12.0002 17.0928 12.4521 17.0928 13.0127V23.7357C17.0928 24.2929 17.5447 24.7482 18.1053 24.7482C18.6625 24.7482 19.1178 24.2963 19.1178 23.7357V13.0127C19.1178 12.4521 18.6659 12.0002 18.1053 12.0002Z" fill="#4AB4F0"/>
<path d="M22.4849 18.3742L27.1295 13.7262C27.5236 13.3321 27.5236 12.69 27.1295 12.2958C26.7353 11.9017 26.0932 11.9017 25.6991 12.2958L20.3376 17.6573C19.9435 18.0515 19.9435 18.6936 20.3376 19.0877L25.6991 24.4492C25.8961 24.6463 26.1543 24.7448 26.416 24.7448C26.6776 24.7448 26.9324 24.6463 27.1329 24.4492C27.527 24.0551 27.527 23.4129 27.1329 23.0188L22.4849 18.3742Z" fill="#4AB4F0"/>
<path d="M9.58379 12C9.02318 12 8.57129 12.4519 8.57129 13.0125C8.57129 13.5731 9.02318 14.025 9.58379 14.025C11.9825 14.025 13.9362 15.9752 13.9362 18.374C13.9362 20.7727 11.9825 22.7264 9.58379 22.7264C9.02318 22.723 8.57129 23.1749 8.57129 23.7355C8.57129 24.2961 9.02318 24.748 9.58379 24.748C13.1004 24.748 15.9578 21.8872 15.9578 18.374C15.9578 14.8574 13.0969 12 9.58379 12Z" fill="#4AB4F0"/>
</svg>
