<svg width="22" height="21" viewBox="0 0 22 21" fill="none" xmlns="http://www.w3.org/2000/svg">
<path d="M10.6667 0C4.78667 0 0 4.18667 0 9.33333C0 14.48 4.78667 18.6667 10.6667 18.6667C11.7668 18.6654 12.8615 18.5129 13.92 18.2133L17.6067 20.56C17.7073 20.6246 17.8235 20.6609 17.943 20.6651C18.0625 20.6694 18.1809 20.6414 18.2859 20.5842C18.3909 20.5269 18.4785 20.4425 18.5396 20.3397C18.6008 20.2369 18.6331 20.1196 18.6333 20V15.5133C19.4675 14.7131 20.1332 13.7541 20.5911 12.6928C21.0491 11.6314 21.2901 10.4892 21.3 9.33333C21.3333 4.18667 16.5467 0 10.6667 0ZM17.5267 14.74C17.4596 14.8022 17.4061 14.8774 17.3694 14.9612C17.3327 15.0449 17.3136 15.1353 17.3133 15.2267V18.7867L14.3933 16.9267C14.3119 16.8752 14.2202 16.842 14.1247 16.8293C14.0292 16.8166 13.9321 16.8248 13.84 16.8533C12.8125 17.1725 11.7426 17.3343 10.6667 17.3333C5.52 17.3333 1.33333 13.7467 1.33333 9.33333C1.33333 4.92 5.52 1.33333 10.6667 1.33333C15.8133 1.33333 20 4.92 20 9.33333C19.9848 10.3567 19.7571 11.3658 19.3313 12.2965C18.9056 13.2272 18.291 14.0593 17.5267 14.74Z" fill="url(#paint0_linear_200_3488)"/>
<path d="M15.3333 8.66602H5.99992C5.82311 8.66602 5.65354 8.73625 5.52851 8.86128C5.40349 8.9863 5.33325 9.15587 5.33325 9.33268C5.33325 9.50949 5.40349 9.67906 5.52851 9.80409C5.65354 9.92911 5.82311 9.99935 5.99992 9.99935H15.3333C15.5101 9.99935 15.6796 9.92911 15.8047 9.80409C15.9297 9.67906 15.9999 9.50949 15.9999 9.33268C15.9999 9.15587 15.9297 8.9863 15.8047 8.86128C15.6796 8.73625 15.5101 8.66602 15.3333 8.66602Z" fill="url(#paint1_linear_200_3488)"/>
<path d="M13.1667 12H8.16667C7.98986 12 7.82029 12.0702 7.69526 12.1953C7.57024 12.3203 7.5 12.4899 7.5 12.6667C7.5 12.8435 7.57024 13.013 7.69526 13.1381C7.82029 13.2631 7.98986 13.3333 8.16667 13.3333H13.1667C13.3435 13.3333 13.513 13.2631 13.6381 13.1381C13.7631 13.013 13.8333 12.8435 13.8333 12.6667C13.8333 12.4899 13.7631 12.3203 13.6381 12.1953C13.513 12.0702 13.3435 12 13.1667 12Z" fill="url(#paint2_linear_200_3488)"/>
<path d="M6.18656 6.66634H15.1466C15.3234 6.66634 15.4929 6.5961 15.618 6.47108C15.743 6.34605 15.8132 6.17649 15.8132 5.99967C15.8132 5.82286 15.743 5.65329 15.618 5.52827C15.4929 5.40325 15.3234 5.33301 15.1466 5.33301H6.18656C6.00975 5.33301 5.84018 5.40325 5.71516 5.52827C5.59014 5.65329 5.5199 5.82286 5.5199 5.99967C5.5199 6.17649 5.59014 6.34605 5.71516 6.47108C5.84018 6.5961 6.00975 6.66634 6.18656 6.66634Z" fill="url(#paint3_linear_200_3488)"/>
<defs>
<linearGradient id="paint0_linear_200_3488" x1="-1.45944e-07" y1="9" x2="21.5" y2="9" gradientUnits="userSpaceOnUse">
<stop stop-color="#7624FE"/>
<stop offset="1" stop-color="#368BFF"/>
</linearGradient>
<linearGradient id="paint1_linear_200_3488" x1="5.33325" y1="9.24669" x2="16.1" y2="9.24669" gradientUnits="userSpaceOnUse">
<stop stop-color="#7624FE"/>
<stop offset="1" stop-color="#368BFF"/>
</linearGradient>
<linearGradient id="paint2_linear_200_3488" x1="7.5" y1="12.5807" x2="13.8927" y2="12.5807" gradientUnits="userSpaceOnUse">
<stop stop-color="#7624FE"/>
<stop offset="1" stop-color="#368BFF"/>
</linearGradient>
<linearGradient id="paint3_linear_200_3488" x1="5.5199" y1="5.91368" x2="15.9098" y2="5.91369" gradientUnits="userSpaceOnUse">
<stop stop-color="#7624FE"/>
<stop offset="1" stop-color="#368BFF"/>
</linearGradient>
</defs>
</svg>
