<svg width="18" height="22" viewBox="0 0 18 22" fill="none" xmlns="http://www.w3.org/2000/svg">
<path d="M17 3.3335H4.33333C4.06812 3.3335 3.81376 3.43885 3.62623 3.62639C3.43869 3.81393 3.33333 4.06828 3.33333 4.3335V20.3335C3.33333 20.5987 3.43869 20.8531 3.62623 21.0406C3.81376 21.2281 4.06812 21.3335 4.33333 21.3335H17C17.2652 21.3335 17.5196 21.2281 17.7071 21.0406C17.8946 20.8531 18 20.5987 18 20.3335V4.3335C18 4.06828 17.8946 3.81393 17.7071 3.62639C17.5196 3.43885 17.2652 3.3335 17 3.3335ZM16.6667 20.0002H4.66667V4.66683H16.6667V20.0002Z" fill="#ffffff"/>
<path d="M14.6667 1C14.6667 0.734784 14.5613 0.48043 14.3738 0.292893C14.1862 0.105357 13.9319 0 13.6667 0H1C0.734784 0 0.480429 0.105357 0.292893 0.292893C0.105357 0.48043 0 0.734784 0 1V17C0 17.2652 0.105357 17.5196 0.292893 17.7071C0.480429 17.8946 0.734784 18 1 18H1.33333V1.33333H14.6667V1Z" fill="#ffffff"/>
</svg>
