<svg width="22" height="20" viewBox="0 0 22 20" fill="none" xmlns="http://www.w3.org/2000/svg">
<path d="M10.665 19.2422C10.5177 19.2417 10.3747 19.1925 10.2583 19.1022C6.55162 16.2222 3.99828 13.7422 2.21162 11.2955C-0.0683827 8.16887 -0.588383 5.2822 0.66495 2.71553C1.55828 0.882199 4.12495 -0.617801 7.12495 0.255532C8.55531 0.668691 9.80328 1.55472 10.665 2.76887C11.5266 1.55472 12.7746 0.668691 14.205 0.255532C17.1983 -0.604468 19.7716 0.882199 20.665 2.71553C21.9183 5.2822 21.3983 8.16887 19.1183 11.2955C17.3316 13.7422 14.7783 16.2222 11.0716 19.1022C10.9553 19.1925 10.8123 19.2417 10.665 19.2422ZM5.41828 1.3422C4.70445 1.31442 3.99653 1.48156 3.37051 1.8257C2.7445 2.16983 2.22402 2.67796 1.86495 3.29553C0.831617 5.41553 1.29828 7.77553 3.29162 10.5022C5.41 13.2346 7.89056 15.6658 10.665 17.7289C13.4389 15.6679 15.9194 13.2389 18.0383 10.5089C20.0383 7.77553 20.4983 5.41553 19.465 3.3022C18.7983 1.96887 16.7983 0.908865 14.5716 1.53553C13.8576 1.74653 13.1958 2.10468 12.6286 2.58692C12.0614 3.06915 11.6014 3.6648 11.2783 4.33553C11.2281 4.45781 11.1426 4.56239 11.0328 4.63599C10.923 4.70959 10.7938 4.74889 10.6616 4.74889C10.5294 4.74889 10.4002 4.70959 10.2904 4.63599C10.1806 4.56239 10.0952 4.45781 10.045 4.33553C9.72427 3.66313 9.2651 3.06608 8.69754 2.58355C8.12999 2.10101 7.46685 1.74386 6.75162 1.53553C6.31827 1.40967 5.86954 1.3446 5.41828 1.3422Z" fill="url(#paint0_linear_200_3485)"/>
<defs>
<linearGradient id="paint0_linear_200_3485" x1="0" y1="7.5" x2="21" y2="7.5" gradientUnits="userSpaceOnUse">
<stop stop-color="#7624FE"/>
<stop offset="1" stop-color="#368BFF"/>
</linearGradient>
</defs>
</svg>
