<svg width="22" height="19" viewBox="0 0 22 19" fill="none" xmlns="http://www.w3.org/2000/svg">
<path d="M20 2.66667H15.1333L14.4267 0.853336C14.33 0.602755 14.1599 0.387217 13.9386 0.234953C13.7173 0.0826881 13.4553 0.000796203 13.1867 2.79456e-06H8.14667C7.87694 -0.000549303 7.61339 0.0807158 7.39081 0.233068C7.16824 0.38542 6.9971 0.601695 6.9 0.853336L6.2 2.66667H1.33333C0.979711 2.66667 0.640573 2.80715 0.390524 3.05719C0.140476 3.30724 0 3.64638 0 4V17.3333C0 17.687 0.140476 18.0261 0.390524 18.2761C0.640573 18.5262 0.979711 18.6667 1.33333 18.6667H20C20.3536 18.6667 20.6928 18.5262 20.9428 18.2761C21.1929 18.0261 21.3333 17.687 21.3333 17.3333V4C21.3333 3.64638 21.1929 3.30724 20.9428 3.05719C20.6928 2.80715 20.3536 2.66667 20 2.66667ZM20 17.3333H1.33333V4H7.11333L8.14667 1.33334H13.1867L14.22 4H20V17.3333Z" fill="url(#paint0_linear_226_3090)"/>
<path d="M4.66675 10C4.66675 11.1867 5.01864 12.3467 5.67793 13.3334C6.33722 14.3201 7.27429 15.0892 8.37065 15.5433C9.467 15.9974 10.6734 16.1162 11.8373 15.8847C13.0012 15.6532 14.0703 15.0818 14.9094 14.2426C15.7485 13.4035 16.3199 12.3344 16.5515 11.1705C16.783 10.0067 16.6642 8.80026 16.21 7.7039C15.7559 6.60754 14.9869 5.67047 14.0002 5.01118C13.0135 4.35189 11.8534 4 10.6667 4C9.07545 4 7.54933 4.63214 6.42411 5.75736C5.29889 6.88258 4.66675 8.4087 4.66675 10ZM15.6001 10C15.6001 10.9757 15.3107 11.9295 14.7687 12.7408C14.2266 13.5521 13.4561 14.1844 12.5547 14.5578C11.6532 14.9312 10.6613 15.0289 9.7043 14.8385C8.74733 14.6482 7.86829 14.1783 7.17835 13.4884C6.48842 12.7985 6.01856 11.9194 5.82821 10.9624C5.63785 10.0055 5.73555 9.01354 6.10894 8.11209C6.48233 7.21065 7.11465 6.44017 7.92594 5.89808C8.73722 5.356 9.69103 5.06667 10.6667 5.06667C11.9746 5.06843 13.2284 5.58876 14.1532 6.51356C15.078 7.43835 15.5983 8.69214 15.6001 10Z" fill="url(#paint1_linear_226_3090)"/>
<path d="M4.91325 5.88685C4.91325 5.7454 4.85706 5.60974 4.75704 5.50973C4.65702 5.40971 4.52136 5.35352 4.37992 5.35352H2.77992C2.63847 5.35352 2.50281 5.40971 2.40279 5.50973C2.30277 5.60974 2.24658 5.7454 2.24658 5.88685C2.24658 6.0283 2.30277 6.16395 2.40279 6.26397C2.50281 6.36399 2.63847 6.42018 2.77992 6.42018H4.37992C4.52136 6.42018 4.65702 6.36399 4.75704 6.26397C4.85706 6.16395 4.91325 6.0283 4.91325 5.88685Z" fill="url(#paint2_linear_226_3090)"/>
<path d="M6.89341 9.99992C6.9009 10.703 7.10788 11.3896 7.49026 11.9797C7.87264 12.5698 8.41471 13.0392 9.05341 13.3333L9.62007 12.4199C9.23833 12.2921 8.89049 12.0795 8.60264 11.798C8.31478 11.5166 8.09438 11.1736 7.95798 10.7948C7.82157 10.4161 7.77269 10.0113 7.815 9.611C7.85732 9.21065 7.98973 8.82507 8.2023 8.48319C8.41488 8.14131 8.7021 7.852 9.04243 7.63695C9.38276 7.42191 9.76737 7.28671 10.1674 7.24149C10.5674 7.19628 10.9725 7.24222 11.3523 7.37588C11.732 7.50954 12.0766 7.72745 12.3601 8.01326L12.9334 7.09326C12.3876 6.65106 11.7274 6.37305 11.0297 6.2916C10.3321 6.21016 9.62558 6.32864 8.99263 6.63324C8.35968 6.93784 7.82631 7.41602 7.45465 8.01207C7.083 8.60812 6.88836 9.29751 6.89341 9.99992Z" fill="url(#paint3_linear_226_3090)"/>
<defs>
<linearGradient id="paint0_linear_226_3090" x1="-7.91687e-08" y1="9.5" x2="21.5" y2="9.5" gradientUnits="userSpaceOnUse">
<stop stop-color="#7624FE"/>
<stop offset="1" stop-color="#368BFF"/>
</linearGradient>
<linearGradient id="paint1_linear_226_3090" x1="4.66675" y1="10.1071" x2="16.7605" y2="10.1071" gradientUnits="userSpaceOnUse">
<stop stop-color="#7624FE"/>
<stop offset="1" stop-color="#368BFF"/>
</linearGradient>
<linearGradient id="paint2_linear_226_3090" x1="2.24658" y1="5.89637" x2="4.93408" y2="5.89637" gradientUnits="userSpaceOnUse">
<stop stop-color="#7624FE"/>
<stop offset="1" stop-color="#368BFF"/>
</linearGradient>
<linearGradient id="paint3_linear_226_3090" x1="6.89331" y1="9.86302" x2="12.9806" y2="9.86302" gradientUnits="userSpaceOnUse">
<stop stop-color="#7624FE"/>
<stop offset="1" stop-color="#368BFF"/>
</linearGradient>
</defs>
</svg>
