<svg width="22" height="19" viewBox="0 0 22 19" fill="none" xmlns="http://www.w3.org/2000/svg">
<path d="M20 0H1.33333C0.979711 0 0.640573 0.140476 0.390524 0.390524C0.140476 0.640573 0 0.979711 0 1.33333V17.3333C0 17.687 0.140476 18.0261 0.390524 18.2761C0.640573 18.5262 0.979711 18.6667 1.33333 18.6667H20C20.3536 18.6667 20.6928 18.5262 20.9428 18.2761C21.1929 18.0261 21.3333 17.687 21.3333 17.3333V1.33333C21.3333 0.979711 21.1929 0.640573 20.9428 0.390524C20.6928 0.140476 20.3536 0 20 0ZM1.33333 17.3333V1.33333H20V17.3333H1.33333Z" fill="url(#paint0_linear_226_3080)"/>
<path d="M4.61328 6.66699C5.00884 6.66699 5.39552 6.5497 5.72442 6.32993C6.05332 6.11017 6.30967 5.79781 6.46104 5.43236C6.61242 5.06691 6.65202 4.66477 6.57485 4.27681C6.49768 3.88885 6.3072 3.53248 6.0275 3.25278C5.74779 2.97307 5.39142 2.78259 5.00346 2.70542C4.6155 2.62825 4.21337 2.66786 3.84791 2.81923C3.48246 2.97061 3.1701 3.22695 2.95034 3.55585C2.73058 3.88475 2.61328 4.27143 2.61328 4.66699C2.61328 5.19743 2.82399 5.70613 3.19907 6.08121C3.57414 6.45628 4.08285 6.66699 4.61328 6.66699ZM4.61328 3.60033C4.82453 3.59901 5.03141 3.66044 5.2077 3.77684C5.38398 3.89324 5.52174 4.05937 5.60349 4.25416C5.68525 4.44895 5.70733 4.66362 5.66693 4.87097C5.62652 5.07832 5.52546 5.26901 5.37656 5.41885C5.22765 5.5687 5.0376 5.67095 4.83051 5.71265C4.62342 5.75435 4.4086 5.73362 4.21331 5.65309C4.01801 5.57255 3.85102 5.43584 3.73352 5.26029C3.61602 5.08473 3.55329 4.87824 3.55328 4.66699C3.55503 4.3864 3.66727 4.1178 3.86568 3.91939C4.06409 3.72098 4.33269 3.60874 4.61328 3.60699V3.60033Z" fill="url(#paint1_linear_226_3080)"/>
<path d="M13.8533 7.58009L10.2533 11.1801L7.58661 8.51343C7.46171 8.38926 7.29274 8.31956 7.11661 8.31956C6.94049 8.31956 6.77152 8.38926 6.64662 8.51343L2.61328 12.6001V14.4868L7.13995 9.96009L9.33328 12.1201L6.83328 14.6201H8.66661L14.2999 8.98676L18.6666 13.3334V11.4534L14.7933 7.58009C14.6684 7.45592 14.4994 7.38623 14.3233 7.38623C14.1472 7.38623 13.9782 7.45592 13.8533 7.58009Z" fill="url(#paint2_linear_226_3080)"/>
<defs>
<linearGradient id="paint0_linear_226_3080" x1="-7.91687e-08" y1="9.5" x2="21.5" y2="9.5" gradientUnits="userSpaceOnUse">
<stop stop-color="#7624FE"/>
<stop offset="1" stop-color="#368BFF"/>
</linearGradient>
<linearGradient id="paint1_linear_226_3080" x1="2.61328" y1="4.70271" x2="6.64453" y2="4.70271" gradientUnits="userSpaceOnUse">
<stop stop-color="#7624FE"/>
<stop offset="1" stop-color="#368BFF"/>
</linearGradient>
<linearGradient id="paint2_linear_226_3080" x1="2.61328" y1="11.0677" x2="18.792" y2="11.0677" gradientUnits="userSpaceOnUse">
<stop stop-color="#7624FE"/>
<stop offset="1" stop-color="#368BFF"/>
</linearGradient>
</defs>
</svg>
