<svg width="8" height="13" viewBox="0 0 8 13" fill="none" xmlns="http://www.w3.org/2000/svg">
<path d="M0.9168 0.116801C0.954015 0.0796792 0.998182 0.0502567 1.04678 0.0302154C1.09537 0.010174 1.14744 -9.32397e-05 1.2 6.37995e-07H6.8C6.90609 6.37995e-07 7.00783 0.0421434 7.08284 0.117158C7.15786 0.192172 7.2 0.293914 7.2 0.400001C7.2 0.944001 6.9264 1.3392 6.6832 1.5832C6.5824 1.6832 6.4832 1.7624 6.4 1.8216V5.3664L6.4624 5.4048C6.6248 5.5064 6.8432 5.656 7.0632 5.8488C7.488 6.22 8 6.8216 8 7.6C8 7.70609 7.95786 7.80783 7.88284 7.88284C7.80783 7.95786 7.70609 8 7.6 8H4.4V11.6C4.4 11.8208 4.2208 12.8 4 12.8C3.7792 12.8 3.6 11.8208 3.6 11.6V8H0.4C0.293913 8 0.192172 7.95786 0.117157 7.88284C0.0421428 7.80783 0 7.70609 0 7.6C0 6.8216 0.512 6.22 0.936 5.8488C1.14296 5.66909 1.36513 5.50769 1.6 5.3664V1.8216C1.49912 1.75017 1.40439 1.67043 1.3168 1.5832C1.0736 1.3392 0.8 0.943201 0.8 0.400001C0.799906 0.347437 0.810173 0.29537 0.830215 0.246776C0.850256 0.198183 0.879678 0.154016 0.9168 0.116801Z" fill="#C4C4C4"/>
</svg>
