<?xml version="1.0" standalone="no"?><!DOCTYPE svg PUBLIC "-//W3C//DTD SVG 1.1//EN" "http://www.w3.org/Graphics/SVG/1.1/DTD/svg11.dtd"><svg class="icon" width="32px" height="32.00px" viewBox="0 0 1024 1024" version="1.1" xmlns="http://www.w3.org/2000/svg"><path d="M763.989333 742.016q89.984-96 89.984-230.016 0-105.984-59.008-192t-155.008-123.989333l0 18.005333q0 34.005333-25.984 59.008t-59.989333 25.002667l-84.010667 0 0 86.016q0 18.005333-13.013333 29.994667t-31.018667 11.989333l-84.010667 0 0 86.016 256 0q18.005333 0 29.994667 11.989333t11.989333 29.994667l0 128 41.984 0q59.989333 0 82.005333 59.989333zM470.016 850.005333l0-82.005333q-34.005333 0-59.989333-25.984t-25.984-59.989333l0-41.984-203.989333-203.989333q-9.984 40.021333-9.984 75.989333 0 130.005333 86.997333 226.005333t212.992 112zM512 86.016q176 0 301.013333 125.013333t125.013333 301.013333-125.013333 301.013333-301.013333 125.013333-301.013333-125.013333-125.013333-301.013333 125.013333-301.013333 301.013333-125.013333z" fill="#ffffff" /></svg>