<svg width="36" height="36" viewBox="0 0 36 36" fill="none" xmlns="http://www.w3.org/2000/svg">
<circle cx="18" cy="18" r="18" fill="#323B45"/>
<path d="M24.8893 17.6667H18.7781V11.5556C18.7781 11.4082 18.7196 11.2669 18.6154 11.1627C18.5112 11.0585 18.3699 11 18.2226 11C18.0752 11 17.9339 11.0585 17.8297 11.1627C17.7256 11.2669 17.667 11.4082 17.667 11.5556V17.6667H11.5559C11.4086 17.6667 11.2673 17.7252 11.1631 17.8294C11.0589 17.9336 11.0004 18.0749 11.0004 18.2222C10.9976 18.2944 11.0104 18.3664 11.0378 18.4332C11.0652 18.5001 11.1066 18.5603 11.1593 18.6098C11.2119 18.6593 11.2746 18.6969 11.343 18.7201C11.4114 18.7433 11.484 18.7516 11.5559 18.7444H17.667V24.8889C17.667 25.0362 17.7256 25.1775 17.8297 25.2817C17.9339 25.3859 18.0752 25.4444 18.2226 25.4444C18.3699 25.4444 18.5112 25.3859 18.6154 25.2817C18.7196 25.1775 18.7781 25.0362 18.7781 24.8889V18.7778H24.8893C25.0366 18.7778 25.1779 18.7192 25.2821 18.6151C25.3863 18.5109 25.4448 18.3696 25.4448 18.2222C25.4448 18.0749 25.3863 17.9336 25.2821 17.8294C25.1779 17.7252 25.0366 17.6667 24.8893 17.6667Z" fill="#C4C4C4"/>
</svg>
