<svg width="36" height="36" viewBox="0 0 36 36" fill="none" xmlns="http://www.w3.org/2000/svg">
<circle cx="18" cy="18" r="18" fill="#4AB4F0"/>
<path d="M27.1663 10.5084C27.1663 10.5084 25.4847 11.5017 24.5497 11.7834C24.0478 11.2063 23.3808 10.7973 22.6389 10.6117C21.897 10.426 21.1159 10.4727 20.4014 10.7454C19.6869 11.0181 19.0734 11.5037 18.6438 12.1365C18.2143 12.7692 17.9894 13.5187 17.9997 14.2834V15.1167C16.5352 15.1547 15.0841 14.8299 13.7755 14.1713C12.467 13.5126 11.3416 12.5406 10.4997 11.3417C10.4997 11.3417 7.16634 18.8417 14.6663 22.175C12.9501 23.34 10.9056 23.9242 8.83301 23.8417C16.333 28.0084 25.4997 23.8417 25.4997 14.2584C25.4997 14.0267 25.4763 13.795 25.433 13.5667C26.283 12.7284 27.1663 10.5084 27.1663 10.5084Z" stroke="white" stroke-linecap="round" stroke-linejoin="round"/>
</svg>
